<?xml version="1.0" encoding="UTF-8" standalone="no"?>
<!-- Created with Inkscape (http://www.inkscape.org/) -->

<svg
   width="58.201904mm"
   height="36.946865mm"
   viewBox="0 0 58.201904 36.946865"
   version="1.1"
   id="svg5"
   inkscape:version="1.4.1 (1:1.4.1+202503302257+93de688d07)"
   sodipodi:docname="HDO_Logo.svg"
   xml:space="preserve"
   xmlns:inkscape="http://www.inkscape.org/namespaces/inkscape"
   xmlns:sodipodi="http://sodipodi.sourceforge.net/DTD/sodipodi-0.dtd"
   xmlns="http://www.w3.org/2000/svg"
   xmlns:svg="http://www.w3.org/2000/svg"><sodipodi:namedview
     id="namedview7"
     pagecolor="#ffffff"
     bordercolor="#666666"
     borderopacity="1.0"
     inkscape:showpageshadow="2"
     inkscape:pageopacity="0.0"
     inkscape:pagecheckerboard="0"
     inkscape:deskcolor="#d1d1d1"
     inkscape:document-units="mm"
     showgrid="false"
     inkscape:zoom="0.99224002"
     inkscape:cx="80.121743"
     inkscape:cy="260.01773"
     inkscape:window-width="2512"
     inkscape:window-height="1403"
     inkscape:window-x="0"
     inkscape:window-y="0"
     inkscape:window-maximized="1"
     inkscape:current-layer="g1236"
     showguides="true"><sodipodi:guide
       position="64.566798,115.16449"
       orientation="0,-1"
       id="guide1121"
       inkscape:locked="false" /><sodipodi:guide
       position="5.4929349,35.226041"
       orientation="0,-1"
       id="guide1254"
       inkscape:locked="false" /></sodipodi:namedview><defs
     id="defs2" /><g
     inkscape:label="Layer 1"
     inkscape:groupmode="layer"
     id="layer1"
     transform="translate(-18.024808,-204.10565)"><g
       id="g1200"
       transform="matrix(0.40971046,0.6892813,-0.6892813,0.40971046,91.06749,169.56654)"
       inkscape:transform-center-x="9.756735"
       inkscape:transform-center-y="-9.471637"
       inkscape:export-filename="HDO_Logo.png"
       inkscape:export-xdpi="464.76"
       inkscape:export-ydpi="464.76"
       style="fill:#002864;fill-opacity:1;stroke:#002864;stroke-opacity:1"><g
         id="g1198"
         transform="rotate(32.792077,49.746866,76.413845)"
         style="fill:#002864;fill-opacity:1;stroke:#002864;stroke-opacity:1" /></g><g
       id="g1294"
       transform="translate(-39.477516,2.8948674)"><g
         id="g1236"
         transform="translate(-16.41473,27.415903)"
         inkscape:export-filename="HDO_logo.png"
         inkscape:export-xdpi="327.30887"
         inkscape:export-ydpi="327.30887"><path
           id="circle1230"
           style="fill:#002864;fill-opacity:1;stroke:#002864;stroke-width:0;stroke-linecap:round;stroke-linejoin:round;stroke-dasharray:none;stroke-opacity:1;paint-order:stroke fill markers"
           d="m 176.494,-121.25574 a 8.2891665,8.2891665 0 0 0 8.27237,7.76853 8.2891665,8.2891665 0 0 0 8.28916,-8.28907 8.2891665,8.2891665 0 0 0 -8.28907,-8.28916 8.2891665,8.2891665 0 0 0 -8.28916,8.28907 8.2891665,8.2891665 0 0 0 0.0167,0.52063 z m 1.61765,1.22357 -0.10832,-3.00458 c -0.0204,-0.56696 0.20604,-1.10519 0.58792,-1.53526 l 1.27472,-1.38939 c 0.38256,-0.41117 0.92265,-0.65792 1.48961,-0.67836 l 6.46311,-0.233 c 0.56696,-0.0204 1.12341,0.18677 1.53459,0.56933 l 1.39006,1.29331 c 0.41118,0.38256 0.6574,0.92267 0.67784,1.48963 l 0.10832,3.00458 c 0.0204,0.56697 -0.16668,1.14131 -0.56814,1.55317 l -1.29399,1.37146 c -0.38256,0.41118 -0.92265,0.65792 -1.48961,0.67836 l -6.46311,0.23301 c -0.56696,0.0204 -1.12341,-0.18677 -1.53459,-0.56933 l -1.37079,-1.27539 c -0.43076,-0.40078 -0.67718,-0.94058 -0.69762,-1.50754 z m 2.55799,-0.43299 c 0.004,0.11339 0.0642,0.20615 0.14312,0.29786 l 0.86076,0.78289 c 0.079,0.0918 0.19399,0.12538 0.30739,0.12129 l 5.76386,-0.20779 c 0.1134,-0.004 0.20673,-0.0452 0.29786,-0.14312 l 0.78304,-0.84215 c 0.0911,-0.0979 0.1259,-0.19402 0.12181,-0.30741 l -0.0831,-2.30534 c -0.004,-0.11339 -0.0464,-0.2253 -0.1443,-0.31643 l -0.84165,-0.78357 c -0.0972,-0.0722 -0.194,-0.12539 -0.30739,-0.1213 l -5.76387,0.2078 c -0.11339,0.004 -0.20536,0.083 -0.29786,0.14312 l -0.80214,0.84283 c -0.0722,0.0972 -0.12472,0.21259 -0.12063,0.32599 z"
           transform="rotate(92.064726)" /></g><circle
         style="fill:#002864;fill-opacity:1;stroke:#002864;stroke-width:1.66659;stroke-linecap:round;stroke-linejoin:round;stroke-opacity:1;paint-order:stroke fill markers"
         id="circle1174"
         cx="38.933933"
         cy="50.527767"
         r="1.3674122"
         transform="matrix(-0.0288896,0.80133436,-0.80133436,-0.0288896,121.44887,197.50737)" /><path
         style="fill:#002864;fill-opacity:1;stroke:#002864;stroke-width:1.8;stroke-linecap:butt;stroke-linejoin:miter;stroke-dasharray:none;stroke-opacity:1"
         d="m 48.197632,47.061492 -9.429075,3.648753"
         id="path1176"
         sodipodi:nodetypes="cc"
         transform="matrix(-0.0288896,0.80133436,-0.80133436,-0.0288896,121.44887,197.50737)" /><path
         style="fill:#002864;fill-opacity:1;stroke:#002864;stroke-width:1.8;stroke-linecap:butt;stroke-linejoin:miter;stroke-dasharray:none;stroke-opacity:1"
         d="M 38.88096,49.36341 37.40423,37.066122"
         id="path1178"
         sodipodi:nodetypes="cc"
         transform="matrix(-0.0288896,0.80133436,-0.80133436,-0.0288896,121.44887,197.50737)" /><path
         style="fill:#002864;fill-opacity:1;stroke:#002864;stroke-width:1.8;stroke-linecap:butt;stroke-linejoin:miter;stroke-dasharray:none;stroke-opacity:1"
         d="m 43.319766,28.645883 -5.908121,9.045325"
         id="path1180"
         sodipodi:nodetypes="cc"
         transform="matrix(-0.0288896,0.80133436,-0.80133436,-0.0288896,121.44887,197.50737)" /><circle
         style="fill:#002864;fill-opacity:1;stroke:#002864;stroke-width:3.01635;stroke-linecap:round;stroke-linejoin:round;stroke-opacity:1;paint-order:stroke fill markers"
         id="circle1182"
         cx="48.43708"
         cy="47.000793"
         r="2.4748716"
         transform="matrix(-0.0288896,0.80133436,-0.80133436,-0.0288896,121.44887,197.50737)" /><circle
         style="fill:#002864;fill-opacity:1;stroke:#002864;stroke-width:2.3872;stroke-linecap:round;stroke-linejoin:round;stroke-opacity:1;paint-order:stroke fill markers"
         id="circle1184"
         cx="37.307072"
         cy="37.614899"
         r="1.9586601"
         transform="matrix(-0.0288896,0.80133436,-0.80133436,-0.0288896,121.44887,197.50737)" /><path
         style="fill:#002864;fill-opacity:1;stroke:#002864;stroke-width:1.8;stroke-linecap:butt;stroke-linejoin:miter;stroke-dasharray:none;stroke-opacity:1"
         d="M 8.1706817,27.862973 12.293642,39.258956"
         id="path1186"
         sodipodi:nodetypes="cc"
         transform="matrix(-0.0288896,0.80133436,-0.80133436,-0.0288896,121.44887,197.50737)" /><path
         style="fill:#002864;fill-opacity:1;stroke:#002864;stroke-width:1.8;stroke-linecap:butt;stroke-linejoin:miter;stroke-dasharray:none;stroke-opacity:1"
         d="m 31.649117,33.037982 5.553993,4.224079"
         id="path1188"
         sodipodi:nodetypes="cc"
         transform="matrix(-0.0288896,0.80133436,-0.80133436,-0.0288896,121.44887,197.50737)" /><circle
         style="fill:#002864;fill-opacity:1;stroke:#002864;stroke-width:2.03183;stroke-linecap:round;stroke-linejoin:round;stroke-opacity:1;paint-order:stroke fill markers"
         id="circle1190"
         cx="202.97594"
         cy="-97.076965"
         r="1.6670843"
         transform="rotate(92.064726)" /><circle
         style="fill:#002864;fill-opacity:1;stroke:#002864;stroke-width:1.91394;stroke-linecap:round;stroke-linejoin:round;stroke-opacity:1;paint-order:stroke fill markers"
         id="circle1192"
         cx="43.529144"
         cy="28.12529"
         r="1.5703608"
         transform="matrix(-0.0288896,0.80133436,-0.80133436,-0.0288896,121.44887,197.50737)" /><path
         style="fill:#002864;fill-opacity:1;stroke:#002864;stroke-width:1.8;stroke-linecap:butt;stroke-linejoin:miter;stroke-dasharray:none;stroke-opacity:1"
         d="M 48.197632,47.061492 37.910759,37.938801"
         id="path1194"
         sodipodi:nodetypes="cc"
         transform="matrix(-0.0288896,0.80133436,-0.80133436,-0.0288896,121.44887,197.50737)" /><path
         style="fill:#002864;fill-opacity:1;stroke:#002864;stroke-width:1.8;stroke-linecap:butt;stroke-linejoin:miter;stroke-dasharray:none;stroke-opacity:1"
         d="m 12.340448,39.551867 5.088015,-6.866861"
         id="path1196"
         sodipodi:nodetypes="cc"
         transform="matrix(-0.0288896,0.80133436,-0.80133436,-0.0288896,121.44887,197.50737)" /><circle
         style="fill:#002864;fill-opacity:1;stroke:#002864;stroke-width:1.5347;stroke-linecap:round;stroke-linejoin:round;stroke-opacity:1;paint-order:stroke fill markers"
         id="circle1257"
         cx="199.54753"
         cy="-106.00912"
         r="1.2592015"
         transform="rotate(92.064726)" /><text
         xml:space="preserve"
         style="font-style:normal;font-variant:normal;font-weight:bold;font-stretch:normal;font-size:18.9109px;line-height:1.25;font-family:Hermann;-inkscape-font-specification:'Hermann, Bold';font-variant-ligatures:normal;font-variant-caps:normal;font-variant-numeric:normal;font-variant-east-asian:normal;letter-spacing:0px;word-spacing:0px;fill:#005aa0;fill-opacity:1;stroke-width:0.472774"
         x="67.068459"
         y="223.12025"
         id="text1208"><tspan
           sodipodi:role="line"
           id="tspan1206"
           style="font-style:normal;font-variant:normal;font-weight:bold;font-stretch:normal;font-size:18.9109px;font-family:Hermann;-inkscape-font-specification:'Hermann, Bold';font-variant-ligatures:normal;font-variant-caps:normal;font-variant-numeric:normal;font-variant-east-asian:normal;fill:#005aa0;fill-opacity:1;stroke-width:0.472774"
           x="67.068459"
           y="223.12025"><tspan
             style="fill:#002864;fill-opacity:1"
             id="tspan1202">HD</tspan><tspan
             style="fill:#ffffff"
             id="tspan1204" /></tspan></text><path
         style="fill:#14c8ff;fill-opacity:1;stroke-width:0.0707679"
         d="m 60.759121,220.23188 -3.219937,-2.91016 -0.01843,-0.82006 -0.01843,-0.82006 3.21523,-2.89967 c 1.768378,-1.59481 3.244739,-2.9095 3.280804,-2.92153 0.07386,-0.0246 1.870749,1.9624 1.840258,2.03499 -0.0108,0.0256 -1.142866,1.06102 -2.515762,2.30081 -1.372896,1.23981 -2.48749,2.27923 -2.476875,2.30981 0.01059,0.0306 1.133893,1.0635 2.496175,2.29536 1.362281,1.23185 2.476874,2.26768 2.476874,2.30183 0,0.0688 -1.747306,2.04604 -1.804222,2.04163 -0.01966,-0.002 -1.484713,-1.31235 -3.255679,-2.91295 z m 47.515539,1.92422 c -0.48638,-0.54519 -0.88432,-1.01919 -0.88432,-1.05334 0,-0.0342 1.11459,-1.06998 2.47688,-2.30184 1.36228,-1.23186 2.48556,-2.26476 2.49617,-2.29535 0.0108,-0.0306 -1.10398,-1.07001 -2.47688,-2.30981 -1.37289,-1.23981 -2.50498,-2.27518 -2.51577,-2.30081 -0.0305,-0.0726 1.7664,-2.05961 1.84027,-2.03499 0.036,0.012 1.51179,1.32672 3.27939,2.92153 l 3.21383,2.89966 -0.002,0.81383 -0.002,0.81383 -3.22314,2.90149 c -1.77273,1.59582 -3.24432,2.90948 -3.27019,2.91926 -0.0259,0.01 -0.445,-0.42828 -0.93137,-0.97346 z"
         id="path1210"
         sodipodi:nodetypes="ccccsscsssscsccsscscsscccsccc" /></g></g></svg>
