<?xml version="1.0" encoding="UTF-8" standalone="no"?>
<!-- Created with Inkscape (http://www.inkscape.org/) -->

<svg
   width="113.13774mm"
   height="73.784737mm"
   viewBox="0 0 113.13774 73.784735"
   version="1.1"
   id="svg5"
   inkscape:version="1.4.1 (1:1.4.1+202503302257+93de688d07)"
   sodipodi:docname="Logo_HelmholtzKG.svg"
   xmlns:inkscape="http://www.inkscape.org/namespaces/inkscape"
   xmlns:sodipodi="http://sodipodi.sourceforge.net/DTD/sodipodi-0.dtd"
   xmlns="http://www.w3.org/2000/svg"
   xmlns:svg="http://www.w3.org/2000/svg">
  <sodipodi:namedview
     id="namedview7"
     pagecolor="#ffffff"
     bordercolor="#666666"
     borderopacity="1.0"
     inkscape:showpageshadow="2"
     inkscape:pageopacity="0.0"
     inkscape:pagecheckerboard="0"
     inkscape:deskcolor="#d1d1d1"
     inkscape:document-units="mm"
     showgrid="false"
     inkscape:zoom="7.604568"
     inkscape:cx="348.27751"
     inkscape:cy="271.35006"
     inkscape:window-width="2512"
     inkscape:window-height="1376"
     inkscape:window-x="0"
     inkscape:window-y="0"
     inkscape:window-maximized="1"
     inkscape:current-layer="g579"
     showguides="true">
    <sodipodi:guide
       position="-62.009586,-274.10876"
       orientation="0,-1"
       id="guide34507"
       inkscape:locked="false" />
    <sodipodi:guide
       position="-51.646692,-299.01607"
       orientation="0,-1"
       id="guide34509"
       inkscape:locked="false" />
    <sodipodi:guide
       position="-5.104573,-297.19801"
       orientation="1,0"
       id="guide34511"
       inkscape:locked="false" />
    <sodipodi:guide
       position="142.83551,-207.09029"
       orientation="1,0"
       id="guide1250"
       inkscape:locked="false" />
  </sodipodi:namedview>
  <defs
     id="defs2">
    <inkscape:path-effect
       effect="powerclip"
       id="path-effect1234"
       is_visible="true"
       lpeversion="1"
       inverse="true"
       flatten="false"
       hide_clip="false"
       message="" />
    <inkscape:path-effect
       effect="powerclip"
       id="path-effect3023"
       is_visible="true"
       lpeversion="1"
       inverse="true"
       flatten="false"
       hide_clip="false"
       message="" />
    <marker
       style="overflow:visible"
       id="TriangleOutS"
       refX="0"
       refY="0"
       orient="auto"
       inkscape:stockid="TriangleOutS"
       inkscape:isstock="true">
      <path
         transform="scale(0.2)"
         style="fill:context-stroke;fill-rule:evenodd;stroke:context-stroke;stroke-width:1pt"
         d="M 5.77,0 -2.88,5 V -5 Z"
         id="path12311" />
    </marker>
    <marker
       style="overflow:visible"
       id="marker980"
       refX="0"
       refY="0"
       orient="auto"
       inkscape:stockid="TriangleOutS"
       inkscape:isstock="true">
      <path
         transform="scale(0.2)"
         style="fill:context-stroke;fill-rule:evenodd;stroke:context-stroke;stroke-width:1pt"
         d="M 5.77,0 -2.88,5 V -5 Z"
         id="path978" />
    </marker>
    <clipPath
       clipPathUnits="userSpaceOnUse"
       id="clipPath3007">
      <rect
         style="display:block;fill:#14c8ff;fill-opacity:1;fill-rule:evenodd;stroke:none;stroke-width:29.8156;stroke-linecap:round;stroke-linejoin:round;stroke-miterlimit:4.1;paint-order:markers stroke fill"
         id="rect3009"
         width="25.828459"
         height="5.1447301"
         x="121.85995"
         y="84.981697" />
    </clipPath>
    <clipPath
       clipPathUnits="userSpaceOnUse"
       id="clipPath1218">
      <rect
         style="display:block;fill:#ffffff;fill-rule:evenodd;stroke:#002864;stroke-width:1.91383;stroke-linecap:round;stroke-linejoin:round;stroke-miterlimit:2;paint-order:markers stroke fill"
         id="rect1220"
         width="35.569363"
         height="5.3724523"
         x="114.55404"
         y="73.379532" />
    </clipPath>
  </defs>
  <g
     inkscape:label="Layer 1"
     inkscape:groupmode="layer"
     id="layer1"
     transform="translate(-172.34319,252.82553)">
    <g
       id="g11920"
       transform="translate(81.559168,-62.899052)"
       style="fill:#000000" />
    <g
       id="g3011"
       inkscape:export-filename="Logo_HGF-KG_text_brightback.png"
       inkscape:export-xdpi="300"
       inkscape:export-ydpi="300">
      <g
         id="g543"
         inkscape:export-filename="Logo_HGF-KG_text_brightback.png"
         inkscape:export-xdpi="318.00888"
         inkscape:export-ydpi="318.00888"
         transform="translate(0,-57.724806)">
        <g
           id="g541"
           transform="translate(79.618786,-208.86173)"
           inkscape:export-filename="Logo_HGF-KG_extended.png"
           inkscape:export-xdpi="366.58524"
           inkscape:export-ydpi="366.58524"
           style="fill:#800000">
          <g
             id="g539"
             transform="translate(0,6.0923667e-4)">
            <path
               style="font-weight:bold;font-size:7.3597px;line-height:1.25;font-family:Hermann;-inkscape-font-specification:'Hermann, Bold';word-spacing:0px;fill:#142864;stroke-width:0.183993"
               d="m 136.0478,87.205482 h -1.28795 l -1.87672,-2.333024 v 2.333024 h -1.00092 v -5.218027 h 1.00092 v 2.20055 l 1.64121,-2.038637 c 0.081,-0.103035 0.19871,-0.161913 0.32383,-0.161913 h 1.08923 l -2.04599,2.539097 z m 2.53909,-2.965959 v 1.00092 h 1.0598 v 0.551977 c 0,0.04416 -0.0147,0.08832 -0.0442,0.117755 l -0.32383,0.323827 c -0.0294,0.02944 -0.0736,0.04416 -0.11775,0.04416 h -1.10396 c -0.0442,0 -0.0883,-0.01472 -0.11775,-0.04416 l -0.32383,-0.323827 c -0.0294,-0.02944 -0.0442,-0.0736 -0.0442,-0.117755 v -2.384543 c 0,-0.04416 0.0147,-0.08096 0.0442,-0.117755 l 0.32383,-0.316467 c 0.0294,-0.0368 0.0736,-0.05152 0.11775,-0.05152 h 1.10396 c 0.0442,0 0.0883,0.02208 0.11775,0.05152 l 0.44894,0.441582 0.70654,-0.706531 -0.54462,-0.537258 c -0.15456,-0.161914 -0.36799,-0.25023 -0.58878,-0.25023 h -1.38362 c -0.22079,0 -0.43422,0.08832 -0.58878,0.24287 l -0.51518,0.515179 c -0.16191,0.161913 -0.24287,0.367985 -0.24287,0.596136 v 2.656851 c 0,0.220791 0.081,0.434223 0.24287,0.588776 l 0.51518,0.515179 c 0.15456,0.161914 0.36799,0.24287 0.58878,0.24287 h 1.38362 c 0.22079,0 0.43422,-0.08096 0.58878,-0.24287 l 0.51518,-0.515179 c 0.15455,-0.154553 0.24287,-0.367985 0.24287,-0.588776 v -1.692731 z"
               id="text533"
               aria-label="KG"
               sodipodi:nodetypes="cccccccccsccccccsccssccssccssccccsscsssccsscsscc" />
            <path
               style="font-weight:bold;font-size:7.3597px;line-height:1.25;font-family:Hermann;-inkscape-font-specification:'Hermann, Bold';word-spacing:0px;fill:#145aa0;stroke-width:0.183993"
               d="m 95.51373,84.099689 v -2.112234 h 1.000919 v 5.218027 H 95.51373 v -2.104874 h -1.788407 v 2.104874 h -1.000919 v -5.218027 h 1.000919 v 2.112234 z m 2.907071,-1.103955 v 1.103955 h 1.906159 v 1.000919 h -1.906159 v 1.103955 h 2.281509 v 1.000919 h -2.796688 c -0.04416,0 -0.08832,-0.01472 -0.117755,-0.04416 L 97.46404,86.837497 c -0.02944,-0.02944 -0.04416,-0.0736 -0.04416,-0.117755 v -4.239187 c 0,-0.04416 0.01472,-0.08096 0.04416,-0.117755 l 0.323827,-0.323827 c 0.02944,-0.02944 0.0736,-0.04416 0.117755,-0.04416 h 2.796688 v 1.000919 z m 4.172949,3.208829 v -4.209748 h -1.00092 v 4.724927 c 0,0.04416 0.0147,0.08832 0.0442,0.117755 l 0.32382,0.323827 c 0.0294,0.02944 0.0736,0.04416 0.11776,0.04416 h 2.52438 v -1.000919 z m 6.14533,-4.209748 -1.21435,2.546456 -1.21435,-2.546456 h -1.00092 v 5.210667 h 1.00092 V 84.32048 l 0.69917,1.4793 c 0.0221,0.04416 0.0662,0.0736 0.11775,0.0736 h 0.78749 c 0.0515,0 0.0957,-0.02944 0.11776,-0.0736 l 0.70653,-1.4793 v 2.885002 H 109.74 v -5.210667 z m 4.8574,2.104874 v -2.112234 h 1.00092 v 5.218027 h -1.00092 v -2.104874 h -1.78841 v 2.104874 h -1.00092 v -5.218027 h 1.00092 v 2.112234 z m 4.50412,-2.119594 h -1.17019 c -0.22079,0 -0.43422,0.08832 -0.59614,0.25023 l -0.51517,0.515179 c -0.15456,0.154554 -0.24287,0.367985 -0.24287,0.588776 v 2.517018 c 0,0.220791 0.0883,0.434222 0.24287,0.588776 l 0.51517,0.522538 c 0.15456,0.161914 0.37535,0.24287 0.59614,0.24287 h 1.17019 c 0.22079,0 0.43423,-0.08832 0.58878,-0.24287 l 0.52254,-0.522538 c 0.15455,-0.154554 0.24287,-0.367985 0.24287,-0.588776 V 83.33428 c 0,-0.220791 -0.0883,-0.434222 -0.24287,-0.588776 l -0.52254,-0.515179 c -0.16191,-0.154554 -0.36799,-0.25023 -0.58878,-0.25023 z m 0.30175,3.856483 -0.31647,0.316467 c -0.0368,0.0368 -0.081,0.05152 -0.12511,0.05152 h -0.89788 c -0.0442,0 -0.081,-0.01472 -0.11776,-0.05152 l -0.31647,-0.316467 c -0.0368,-0.0368 -0.0515,-0.0736 -0.0515,-0.117755 v -2.244709 c 0,-0.04416 0.0147,-0.08832 0.0515,-0.117755 l 0.31647,-0.323827 c 0.0368,-0.02944 0.0736,-0.05152 0.11776,-0.05152 h 0.89788 c 0.0442,0 0.0883,0.02208 0.12511,0.05152 l 0.31647,0.323827 c 0.0221,0.0368 0.0515,0.0736 0.0515,0.117755 v 2.244709 c 0,0.04416 -0.0221,0.08096 -0.0515,0.117755 z m 3.01012,0.367985 v -4.209748 h -1.00092 v 4.724927 c 0,0.04416 0.0147,0.08832 0.0442,0.117755 l 0.32382,0.323827 c 0.0294,0.02944 0.0736,0.04416 0.11776,0.04416 h 2.52437 v -1.000919 z m 1.75895,-3.216189 v -1.000919 h 3.62097 v 1.000919 h -1.31002 v 4.217108 h -1.00092 v -4.217108 z m 4.36429,-0.993559 v 1.000919 h 2.14167 l -2.16375,3.414901 v 0.309107 c 0,0.04416 0.0221,0.08832 0.0515,0.117755 l 0.32382,0.323827 c 0.0294,0.02944 0.0736,0.04416 0.11776,0.04416 h 3.01748 V 86.204565 H 128.831 l 2.19319,-3.466419 v -0.257589 c 0,-0.04416 -0.0221,-0.08096 -0.0515,-0.117755 l -0.32383,-0.323827 c -0.0294,-0.02944 -0.0736,-0.04416 -0.11775,-0.04416 z"
               id="text537"
               aria-label="HELMHOLTZ"
               sodipodi:nodetypes="cccccccccccccccccccccscssscssccccccsccscccccccccccsscccccccccccccccccccssccssccssssssccscssscsssccssccssccccsccsccccccccccccccccsccsccccsccsc" />
          </g>
        </g>
      </g>
      <g
         id="g529"
         inkscape:export-filename="Logo_HGF-KG_notext_brightback.png"
         inkscape:export-xdpi="318.01001"
         inkscape:export-ydpi="318.01001"
         transform="matrix(1.1151619,0,0,1.1151619,70.288514,-291.01489)"
         style="fill:#800000">
        <circle
           style="fill:#002864;fill-opacity:1;stroke-width:1.18647;stroke-linecap:round;stroke-linejoin:round;paint-order:stroke fill markers"
           id="circle505"
           cx="128.50888"
           cy="82.823975"
           r="2.8847718"
           inkscape:export-filename="Icon_Graph.png"
           inkscape:export-xdpi="534.85272"
           inkscape:export-ydpi="534.85272" />
        <circle
           style="fill:#002864;fill-opacity:1;stroke-width:0.744826;stroke-linecap:round;stroke-linejoin:round;paint-order:stroke fill markers"
           id="circle507"
           cx="125.87144"
           cy="75.90451"
           r="1.8109667" />
        <circle
           style="fill:#002864;fill-opacity:1;stroke-width:0.744826;stroke-linecap:round;stroke-linejoin:round;paint-order:stroke fill markers"
           id="circle509"
           cx="135.14081"
           cy="70.935944"
           r="1.8109667" />
        <circle
           style="fill:#002864;fill-opacity:1;stroke-width:0.744826;stroke-linecap:round;stroke-linejoin:round;paint-order:stroke fill markers"
           id="circle511"
           cx="132.09789"
           cy="89.36911"
           r="1.8109667" />
        <circle
           style="fill:#002864;fill-opacity:1;stroke-width:0.901414;stroke-linecap:round;stroke-linejoin:round;paint-order:stroke fill markers"
           id="circle513"
           cx="115.39861"
           cy="81.759247"
           r="2.1916933" />
        <circle
           style="fill:#002864;fill-opacity:1;stroke-width:0.744826;stroke-linecap:round;stroke-linejoin:round;paint-order:stroke fill markers"
           id="circle515"
           cx="120.74375"
           cy="92.294342"
           r="1.8109667" />
        <path
           style="fill:#002864;fill-opacity:1;stroke:#002864;stroke-width:1.065;stroke-linecap:butt;stroke-linejoin:miter;stroke-miterlimit:4;stroke-dasharray:none;stroke-opacity:1"
           d="m 128.63752,82.774785 6.26074,-11.08554"
           id="path517"
           sodipodi:nodetypes="cc" />
        <path
           style="fill:#002864;fill-opacity:1;stroke:#002864;stroke-width:1.065;stroke-linecap:butt;stroke-linejoin:miter;stroke-miterlimit:4;stroke-dasharray:none;stroke-opacity:1"
           d="m 132.01077,89.434275 -3.37325,-6.65949"
           id="path519"
           sodipodi:nodetypes="cc" />
        <path
           style="fill:#002864;fill-opacity:1;stroke:#002864;stroke-width:1.065;stroke-linecap:butt;stroke-linejoin:miter;stroke-miterlimit:4;stroke-dasharray:none;stroke-opacity:1"
           d="m 120.89735,92.126875 7.74017,-9.35209"
           id="path521"
           sodipodi:nodetypes="cc" />
        <path
           style="fill:#002864;fill-opacity:1;stroke:#002864;stroke-width:1.065;stroke-linecap:butt;stroke-linejoin:miter;stroke-miterlimit:4;stroke-dasharray:none;stroke-opacity:1"
           d="m 125.97561,75.930275 9.32048,-4.93398"
           id="path523"
           sodipodi:nodetypes="cc" />
        <path
           style="fill:#002864;fill-opacity:1;stroke:#002864;stroke-width:1.065;stroke-linecap:butt;stroke-linejoin:miter;stroke-miterlimit:4;stroke-dasharray:none;stroke-opacity:1"
           d="m 115.36822,81.778115 12.97487,0.99667"
           id="path525"
           sodipodi:nodetypes="cc" />
        <path
           style="fill:#002864;fill-opacity:1;stroke:#002864;stroke-width:1.065;stroke-linecap:butt;stroke-linejoin:miter;stroke-miterlimit:4;stroke-dasharray:none;stroke-opacity:1"
           d="m 125.91795,75.942695 2.71957,6.83209"
           id="path527"
           sodipodi:nodetypes="cc" />
      </g>
    </g>
    <g
       id="g2989"
       inkscape:export-filename="Logo_HGF-KG_notext_brightback.png"
       inkscape:export-xdpi="300"
       inkscape:export-ydpi="300">
      <g
         id="g885"
         inkscape:export-filename="Logo_HGF-KG_notext_brightback.png"
         inkscape:export-xdpi="318.01001"
         inkscape:export-ydpi="318.01001"
         transform="matrix(1.1151619,0,0,1.1151619,70.288514,-329.91107)"
         style="fill:#800000">
        <circle
           style="fill:#002864;fill-opacity:1;stroke-width:1.18647;stroke-linecap:round;stroke-linejoin:round;paint-order:stroke fill markers"
           id="circle861"
           cx="128.50888"
           cy="82.823975"
           r="2.8847718"
           inkscape:export-filename="Icon_Graph.png"
           inkscape:export-xdpi="534.85272"
           inkscape:export-ydpi="534.85272" />
        <circle
           style="fill:#002864;fill-opacity:1;stroke-width:0.744826;stroke-linecap:round;stroke-linejoin:round;paint-order:stroke fill markers"
           id="circle863"
           cx="125.87144"
           cy="75.90451"
           r="1.8109667" />
        <circle
           style="fill:#002864;fill-opacity:1;stroke-width:0.744826;stroke-linecap:round;stroke-linejoin:round;paint-order:stroke fill markers"
           id="circle865"
           cx="135.14081"
           cy="70.935944"
           r="1.8109667" />
        <circle
           style="fill:#002864;fill-opacity:1;stroke-width:0.744826;stroke-linecap:round;stroke-linejoin:round;paint-order:stroke fill markers"
           id="circle867"
           cx="132.09789"
           cy="89.36911"
           r="1.8109667" />
        <circle
           style="fill:#002864;fill-opacity:1;stroke-width:0.901414;stroke-linecap:round;stroke-linejoin:round;paint-order:stroke fill markers"
           id="circle869"
           cx="115.39861"
           cy="81.759247"
           r="2.1916933" />
        <circle
           style="fill:#002864;fill-opacity:1;stroke-width:0.744826;stroke-linecap:round;stroke-linejoin:round;paint-order:stroke fill markers"
           id="circle871"
           cx="120.74375"
           cy="92.294342"
           r="1.8109667" />
        <path
           style="fill:#002864;fill-opacity:1;stroke:#002864;stroke-width:1.065;stroke-linecap:butt;stroke-linejoin:miter;stroke-miterlimit:4;stroke-dasharray:none;stroke-opacity:1"
           d="m 128.63752,82.774785 6.26074,-11.08554"
           id="path873"
           sodipodi:nodetypes="cc" />
        <path
           style="fill:#002864;fill-opacity:1;stroke:#002864;stroke-width:1.065;stroke-linecap:butt;stroke-linejoin:miter;stroke-miterlimit:4;stroke-dasharray:none;stroke-opacity:1"
           d="m 132.01077,89.434275 -3.37325,-6.65949"
           id="path875"
           sodipodi:nodetypes="cc" />
        <path
           style="fill:#002864;fill-opacity:1;stroke:#002864;stroke-width:1.065;stroke-linecap:butt;stroke-linejoin:miter;stroke-miterlimit:4;stroke-dasharray:none;stroke-opacity:1"
           d="m 120.89735,92.126875 7.74017,-9.35209"
           id="path877"
           sodipodi:nodetypes="cc" />
        <path
           style="fill:#002864;fill-opacity:1;stroke:#002864;stroke-width:1.065;stroke-linecap:butt;stroke-linejoin:miter;stroke-miterlimit:4;stroke-dasharray:none;stroke-opacity:1"
           d="m 125.97561,75.930275 9.32048,-4.93398"
           id="path879"
           sodipodi:nodetypes="cc" />
        <path
           style="fill:#002864;fill-opacity:1;stroke:#002864;stroke-width:1.065;stroke-linecap:butt;stroke-linejoin:miter;stroke-miterlimit:4;stroke-dasharray:none;stroke-opacity:1"
           d="m 115.36822,81.778115 12.97487,0.99667"
           id="path881"
           sodipodi:nodetypes="cc" />
        <path
           style="fill:#002864;fill-opacity:1;stroke:#002864;stroke-width:1.065;stroke-linecap:butt;stroke-linejoin:miter;stroke-miterlimit:4;stroke-dasharray:none;stroke-opacity:1"
           d="m 125.91795,75.942695 2.71957,6.83209"
           id="path883"
           sodipodi:nodetypes="cc" />
      </g>
    </g>
    <g
       id="g2959"
       inkscape:export-filename="Logo_HGF-KG_text_darkback.png"
       inkscape:export-xdpi="300"
       inkscape:export-ydpi="300">
      <g
         id="g581"
         transform="translate(141.73446,-266.32048)"
         inkscape:export-filename="Logo_HGF-KG_extended.png"
         inkscape:export-xdpi="366.58524"
         inkscape:export-ydpi="366.58524"
         style="fill:#800000">
        <g
           id="g579"
           transform="translate(0,6.0923667e-4)">
          <path
             style="font-weight:bold;font-size:7.3597px;line-height:1.25;font-family:Hermann;-inkscape-font-specification:'Hermann, Bold';word-spacing:0px;fill:#14c8ff;stroke-width:0.183993"
             d="m 136.0478,87.205482 h -1.28795 l -1.87672,-2.333024 v 2.333024 h -1.00092 v -5.218027 h 1.00092 v 2.20055 l 1.64121,-2.038637 c 0.081,-0.103035 0.19871,-0.161913 0.32383,-0.161913 h 1.08923 l -2.04599,2.539097 z m 2.53909,-2.965959 v 1.00092 h 1.0598 v 0.551977 c 0,0.04416 -0.0147,0.08832 -0.0442,0.117755 l -0.32383,0.323827 c -0.0294,0.02944 -0.0736,0.04416 -0.11775,0.04416 h -1.10396 c -0.0442,0 -0.0883,-0.01472 -0.11775,-0.04416 l -0.32383,-0.323827 c -0.0294,-0.02944 -0.0442,-0.0736 -0.0442,-0.117755 v -2.384543 c 0,-0.04416 0.0147,-0.08096 0.0442,-0.117755 l 0.32383,-0.316467 c 0.0294,-0.0368 0.0736,-0.05152 0.11775,-0.05152 h 1.10396 c 0.0442,0 0.0883,0.02208 0.11775,0.05152 l 0.44894,0.441582 0.70654,-0.706531 -0.54462,-0.537258 c -0.15456,-0.161914 -0.36799,-0.25023 -0.58878,-0.25023 h -1.38362 c -0.22079,0 -0.43422,0.08832 -0.58878,0.24287 l -0.51518,0.515179 c -0.16191,0.161913 -0.24287,0.367985 -0.24287,0.596136 v 2.656851 c 0,0.220791 0.081,0.434223 0.24287,0.588776 l 0.51518,0.515179 c 0.15456,0.161914 0.36799,0.24287 0.58878,0.24287 h 1.38362 c 0.22079,0 0.43422,-0.08096 0.58878,-0.24287 l 0.51518,-0.515179 c 0.15455,-0.154553 0.24287,-0.367985 0.24287,-0.588776 v -1.692731 z"
             id="text573"
             aria-label="KG" />
          <path
             style="font-weight:bold;font-size:7.3597px;line-height:1.25;font-family:Hermann;-inkscape-font-specification:'Hermann, Bold';word-spacing:0px;fill:#ffffff;stroke-width:0.183993"
             d="m 95.51373,84.099689 v -2.112234 h 1.000919 v 5.218027 H 95.51373 v -2.104874 h -1.788407 v 2.104874 h -1.000919 v -5.218027 h 1.000919 v 2.112234 z m 2.907071,-1.103955 v 1.103955 h 1.906159 v 1.000919 h -1.906159 v 1.103955 h 2.281509 v 1.000919 h -2.796688 c -0.04416,0 -0.08832,-0.01472 -0.117755,-0.04416 L 97.46404,86.837497 c -0.02944,-0.02944 -0.04416,-0.0736 -0.04416,-0.117755 v -4.239187 c 0,-0.04416 0.01472,-0.08096 0.04416,-0.117755 l 0.323827,-0.323827 c 0.02944,-0.02944 0.0736,-0.04416 0.117755,-0.04416 h 2.796688 v 1.000919 z m 4.172949,3.208829 v -4.209748 h -1.00092 v 4.724927 c 0,0.04416 0.0147,0.08832 0.0442,0.117755 l 0.32382,0.323827 c 0.0294,0.02944 0.0736,0.04416 0.11776,0.04416 h 2.52438 v -1.000919 z m 6.14533,-4.209748 -1.21435,2.546456 -1.21435,-2.546456 h -1.00092 v 5.210667 h 1.00092 V 84.32048 l 0.69917,1.4793 c 0.0221,0.04416 0.0662,0.0736 0.11775,0.0736 h 0.78749 c 0.0515,0 0.0957,-0.02944 0.11776,-0.0736 l 0.70653,-1.4793 v 2.885002 H 109.74 v -5.210667 z m 4.8574,2.104874 v -2.112234 h 1.00092 v 5.218027 h -1.00092 v -2.104874 h -1.78841 v 2.104874 h -1.00092 v -5.218027 h 1.00092 v 2.112234 z m 4.50412,-2.119594 h -1.17019 c -0.22079,0 -0.43422,0.08832 -0.59614,0.25023 l -0.51517,0.515179 c -0.15456,0.154554 -0.24287,0.367985 -0.24287,0.588776 v 2.517018 c 0,0.220791 0.0883,0.434222 0.24287,0.588776 l 0.51517,0.522538 c 0.15456,0.161914 0.37535,0.24287 0.59614,0.24287 h 1.17019 c 0.22079,0 0.43423,-0.08832 0.58878,-0.24287 l 0.52254,-0.522538 c 0.15455,-0.154554 0.24287,-0.367985 0.24287,-0.588776 V 83.33428 c 0,-0.220791 -0.0883,-0.434222 -0.24287,-0.588776 l -0.52254,-0.515179 c -0.16191,-0.154554 -0.36799,-0.25023 -0.58878,-0.25023 z m 0.30175,3.856483 -0.31647,0.316467 c -0.0368,0.0368 -0.081,0.05152 -0.12511,0.05152 h -0.89788 c -0.0442,0 -0.081,-0.01472 -0.11776,-0.05152 l -0.31647,-0.316467 c -0.0368,-0.0368 -0.0515,-0.0736 -0.0515,-0.117755 v -2.244709 c 0,-0.04416 0.0147,-0.08832 0.0515,-0.117755 l 0.31647,-0.323827 c 0.0368,-0.02944 0.0736,-0.05152 0.11776,-0.05152 h 0.89788 c 0.0442,0 0.0883,0.02208 0.12511,0.05152 l 0.31647,0.323827 c 0.0221,0.0368 0.0515,0.0736 0.0515,0.117755 v 2.244709 c 0,0.04416 -0.0221,0.08096 -0.0515,0.117755 z m 3.01012,0.367985 v -4.209748 h -1.00092 v 4.724927 c 0,0.04416 0.0147,0.08832 0.0442,0.117755 l 0.32382,0.323827 c 0.0294,0.02944 0.0736,0.04416 0.11776,0.04416 h 2.52437 v -1.000919 z m 1.75895,-3.216189 v -1.000919 h 3.62097 v 1.000919 h -1.31002 v 4.217108 h -1.00092 v -4.217108 z m 4.36429,-0.993559 v 1.000919 h 2.14167 l -2.16375,3.414901 v 0.309107 c 0,0.04416 0.0221,0.08832 0.0515,0.117755 l 0.32382,0.323827 c 0.0294,0.02944 0.0736,0.04416 0.11776,0.04416 h 3.01748 v -1.000919 h -2.19319 l 2.19319,-3.466419 v -0.257589 c 0,-0.04416 -0.0221,-0.08096 -0.0515,-0.117755 l -0.32383,-0.323827 c -0.0294,-0.02944 -0.0736,-0.04416 -0.11775,-0.04416 z"
             id="text577"
             aria-label="HELMHOLTZ" />
        </g>
      </g>
      <g
         id="g569"
         inkscape:export-filename="Logo_HGF-KG_notext_darkback.png"
         inkscape:export-xdpi="318.01001"
         inkscape:export-ydpi="318.01001"
         transform="matrix(1.1151619,0,0,1.1151619,132.75753,-290.5706)"
         style="fill:#800000">
        <circle
           style="fill:#14c8ff;fill-opacity:1;stroke-width:1.18647;stroke-linecap:round;stroke-linejoin:round;paint-order:stroke fill markers"
           id="circle545"
           cx="128.50888"
           cy="82.823975"
           r="2.8847718"
           inkscape:export-filename="Icon_Graph.png"
           inkscape:export-xdpi="534.85272"
           inkscape:export-ydpi="534.85272" />
        <circle
           style="fill:#14c8ff;fill-opacity:1;stroke-width:0.744826;stroke-linecap:round;stroke-linejoin:round;paint-order:stroke fill markers"
           id="circle547"
           cx="125.87144"
           cy="75.90451"
           r="1.8109667" />
        <circle
           style="fill:#14c8ff;fill-opacity:1;stroke-width:0.744826;stroke-linecap:round;stroke-linejoin:round;paint-order:stroke fill markers"
           id="circle549"
           cx="135.14081"
           cy="70.935944"
           r="1.8109667" />
        <circle
           style="fill:#14c8ff;fill-opacity:1;stroke-width:0.744826;stroke-linecap:round;stroke-linejoin:round;paint-order:stroke fill markers"
           id="circle551"
           cx="132.09789"
           cy="89.36911"
           r="1.8109667" />
        <circle
           style="fill:#14c8ff;fill-opacity:1;stroke-width:0.901414;stroke-linecap:round;stroke-linejoin:round;paint-order:stroke fill markers"
           id="circle553"
           cx="115.39861"
           cy="81.759247"
           r="2.1916933" />
        <circle
           style="fill:#14c8ff;fill-opacity:1;stroke-width:0.744826;stroke-linecap:round;stroke-linejoin:round;paint-order:stroke fill markers"
           id="circle555"
           cx="120.74375"
           cy="92.294342"
           r="1.8109667" />
        <path
           style="fill:#ffffff;fill-opacity:1;stroke:#14c8ff;stroke-width:1.06532;stroke-linecap:butt;stroke-linejoin:miter;stroke-miterlimit:4;stroke-dasharray:none;stroke-opacity:1"
           d="m 128.63752,82.774785 6.26074,-11.08554"
           id="path557"
           sodipodi:nodetypes="cc" />
        <path
           style="fill:#ffffff;fill-opacity:1;stroke:#14c8ff;stroke-width:1.06532;stroke-linecap:butt;stroke-linejoin:miter;stroke-miterlimit:4;stroke-dasharray:none;stroke-opacity:1"
           d="m 132.01077,89.434275 -3.37325,-6.65949"
           id="path559"
           sodipodi:nodetypes="cc" />
        <path
           style="fill:#ffffff;fill-opacity:1;stroke:#14c8ff;stroke-width:1.06532;stroke-linecap:butt;stroke-linejoin:miter;stroke-miterlimit:4;stroke-dasharray:none;stroke-opacity:1"
           d="m 120.89735,92.126875 7.74017,-9.35209"
           id="path561"
           sodipodi:nodetypes="cc" />
        <path
           style="fill:#ffffff;fill-opacity:1;stroke:#14c8ff;stroke-width:1.06532;stroke-linecap:butt;stroke-linejoin:miter;stroke-miterlimit:4;stroke-dasharray:none;stroke-opacity:1"
           d="m 125.97561,75.930275 9.32048,-4.93398"
           id="path563"
           sodipodi:nodetypes="cc" />
        <path
           style="fill:#ffffff;fill-opacity:1;stroke:#14c8ff;stroke-width:1.06532;stroke-linecap:butt;stroke-linejoin:miter;stroke-miterlimit:4;stroke-dasharray:none;stroke-opacity:1"
           d="m 115.36822,81.778115 12.97487,0.99667"
           id="path565"
           sodipodi:nodetypes="cc" />
        <path
           style="fill:#11ccff;fill-opacity:0.117647;stroke:#14c8ff;stroke-width:1.065;stroke-linecap:butt;stroke-linejoin:miter;stroke-miterlimit:4;stroke-dasharray:none;stroke-opacity:1"
           d="m 125.91795,75.942695 2.71957,6.83209"
           id="path567"
           sodipodi:nodetypes="cc" />
      </g>
      <g
         id="g728"
         inkscape:export-filename="Logo_HGF-KG_notext_darkback.png"
         inkscape:export-xdpi="318.01001"
         inkscape:export-ydpi="318.01001"
         transform="matrix(1.1151619,0,0,1.1151619,132.75753,-329.16606)"
         style="fill:#800000">
        <circle
           style="fill:#14c8ff;fill-opacity:1;stroke-width:1.18647;stroke-linecap:round;stroke-linejoin:round;paint-order:stroke fill markers"
           id="circle704"
           cx="128.50888"
           cy="82.823975"
           r="2.8847718"
           inkscape:export-filename="Icon_Graph.png"
           inkscape:export-xdpi="534.85272"
           inkscape:export-ydpi="534.85272" />
        <circle
           style="fill:#14c8ff;fill-opacity:1;stroke-width:0.744826;stroke-linecap:round;stroke-linejoin:round;paint-order:stroke fill markers"
           id="circle706"
           cx="125.87144"
           cy="75.90451"
           r="1.8109667" />
        <circle
           style="fill:#14c8ff;fill-opacity:1;stroke-width:0.744826;stroke-linecap:round;stroke-linejoin:round;paint-order:stroke fill markers"
           id="circle708"
           cx="135.14081"
           cy="70.935944"
           r="1.8109667" />
        <circle
           style="fill:#14c8ff;fill-opacity:1;stroke-width:0.744826;stroke-linecap:round;stroke-linejoin:round;paint-order:stroke fill markers"
           id="circle710"
           cx="132.09789"
           cy="89.36911"
           r="1.8109667" />
        <circle
           style="fill:#14c8ff;fill-opacity:1;stroke-width:0.901414;stroke-linecap:round;stroke-linejoin:round;paint-order:stroke fill markers"
           id="circle712"
           cx="115.39861"
           cy="81.759247"
           r="2.1916933" />
        <circle
           style="fill:#14c8ff;fill-opacity:1;stroke-width:0.744826;stroke-linecap:round;stroke-linejoin:round;paint-order:stroke fill markers"
           id="circle714"
           cx="120.74375"
           cy="92.294342"
           r="1.8109667" />
        <path
           style="fill:#ffffff;fill-opacity:1;stroke:#14c8ff;stroke-width:1.06532;stroke-linecap:butt;stroke-linejoin:miter;stroke-miterlimit:4;stroke-dasharray:none;stroke-opacity:1"
           d="m 128.63752,82.774785 6.26074,-11.08554"
           id="path716"
           sodipodi:nodetypes="cc" />
        <path
           style="fill:#ffffff;fill-opacity:1;stroke:#14c8ff;stroke-width:1.06532;stroke-linecap:butt;stroke-linejoin:miter;stroke-miterlimit:4;stroke-dasharray:none;stroke-opacity:1"
           d="m 132.01077,89.434275 -3.37325,-6.65949"
           id="path718"
           sodipodi:nodetypes="cc" />
        <path
           style="fill:#ffffff;fill-opacity:1;stroke:#14c8ff;stroke-width:1.06532;stroke-linecap:butt;stroke-linejoin:miter;stroke-miterlimit:4;stroke-dasharray:none;stroke-opacity:1"
           d="m 120.89735,92.126875 7.74017,-9.35209"
           id="path720"
           sodipodi:nodetypes="cc" />
        <path
           style="fill:#ffffff;fill-opacity:1;stroke:#14c8ff;stroke-width:1.06532;stroke-linecap:butt;stroke-linejoin:miter;stroke-miterlimit:4;stroke-dasharray:none;stroke-opacity:1"
           d="m 125.97561,75.930275 9.32048,-4.93398"
           id="path722"
           sodipodi:nodetypes="cc" />
        <path
           style="fill:#ffffff;fill-opacity:1;stroke:#14c8ff;stroke-width:1.06532;stroke-linecap:butt;stroke-linejoin:miter;stroke-miterlimit:4;stroke-dasharray:none;stroke-opacity:1"
           d="m 115.36822,81.778115 12.97487,0.99667"
           id="path724"
           sodipodi:nodetypes="cc" />
        <path
           style="fill:#11ccff;fill-opacity:0.117647;stroke:#14c8ff;stroke-width:1.065;stroke-linecap:butt;stroke-linejoin:miter;stroke-miterlimit:4;stroke-dasharray:none;stroke-opacity:1"
           d="m 125.91795,75.942695 2.71957,6.83209"
           id="path726"
           sodipodi:nodetypes="cc" />
      </g>
    </g>
  </g>
</svg>
