<?xml version="1.0" encoding="UTF-8" standalone="no"?>
<!-- Created with Inkscape (http://www.inkscape.org/) -->

<svg
   width="139.30423mm"
   height="20.465693mm"
   viewBox="0 0 139.30423 20.465693"
   version="1.1"
   id="svg1208"
   inkscape:version="1.4.1 (1:1.4.1+202503302257+93de688d07)"
   sodipodi:docname="FAIRPYTHONCOOKIECUTTER.svg"
   xml:space="preserve"
   xmlns:inkscape="http://www.inkscape.org/namespaces/inkscape"
   xmlns:sodipodi="http://sodipodi.sourceforge.net/DTD/sodipodi-0.dtd"
   xmlns="http://www.w3.org/2000/svg"
   xmlns:svg="http://www.w3.org/2000/svg"><sodipodi:namedview
     id="namedview1210"
     pagecolor="#ffffff"
     bordercolor="#666666"
     borderopacity="1.0"
     inkscape:pageshadow="2"
     inkscape:pageopacity="0.0"
     inkscape:pagecheckerboard="0"
     inkscape:document-units="mm"
     showgrid="false"
     showguides="true"
     inkscape:guide-bbox="true"
     inkscape:lockguides="false"
     inkscape:zoom="2.2299489"
     inkscape:cx="194.84751"
     inkscape:cy="55.158215"
     inkscape:window-width="2512"
     inkscape:window-height="1403"
     inkscape:window-x="0"
     inkscape:window-y="0"
     inkscape:window-maximized="1"
     inkscape:current-layer="layer1"
     inkscape:showpageshadow="2"
     inkscape:deskcolor="#d1d1d1" /><defs
     id="defs1205"><inkscape:perspective
       sodipodi:type="inkscape:persp3d"
       inkscape:vp_x="0 : -128.03432 : 1"
       inkscape:vp_y="0 : 1000 : 0"
       inkscape:vp_z="210.00002 : -128.03432 : 1"
       inkscape:persp3d-origin="105.00001 : -177.53432 : 1"
       id="perspective137310" /></defs><g
     inkscape:label="Layer 1"
     inkscape:groupmode="layer"
     id="layer1"
     transform="translate(-31.531672,-206.72806)"><text
       xml:space="preserve"
       style="font-style:normal;font-variant:normal;font-weight:normal;font-stretch:normal;font-size:10.9487px;line-height:1.25;font-family:Hermann;-inkscape-font-specification:'Hermann, Normal';font-variant-ligatures:normal;font-variant-caps:normal;font-variant-numeric:normal;font-variant-east-asian:normal;fill:#005aa0;fill-opacity:1;stroke:none;stroke-width:0.193364"
       x="49.302944"
       y="331.86536"
       id="text52559-6-0-1-7-0-1-9-5-3-0-2-1-8-4"
       inkscape:export-filename="FAIRPYTHONCOOKIECUTTER_Logo_Text.png"
       inkscape:export-xdpi="263.92001"
       inkscape:export-ydpi="263.92001"><tspan
         sodipodi:role="line"
         id="tspan52557-2-8-9-7-9-9-7-4-9-7-7-9-0-8"
         style="font-style:normal;font-variant:normal;font-weight:normal;font-stretch:normal;font-size:10.9553px;font-family:Hermann;-inkscape-font-specification:'Hermann, Normal';font-variant-ligatures:normal;font-variant-caps:normal;font-variant-numeric:normal;font-variant-east-asian:normal;fill:#005aa0;fill-opacity:1;stroke-width:0.193364"
         x="49.302944"
         y="331.86536">FAIR</tspan></text><text
       xml:space="preserve"
       style="font-style:normal;font-variant:normal;font-weight:normal;font-stretch:normal;font-size:10.9487px;line-height:1.25;font-family:Hermann;-inkscape-font-specification:'Hermann, Normal';font-variant-ligatures:normal;font-variant-caps:normal;font-variant-numeric:normal;font-variant-east-asian:normal;fill:#002864;fill-opacity:1;stroke:none;stroke-width:0.193364"
       x="72.452255"
       y="331.87631"
       id="text52559-6-0-1-7-0-1-9-5-9-7-6-4-5-2-0"
       inkscape:export-filename="/home/v.hofmann/WORKING/Logos/DirSchema_Logo_Text.png"
       inkscape:export-xdpi="263.92001"
       inkscape:export-ydpi="263.92001"><tspan
         sodipodi:role="line"
         id="tspan52557-2-8-9-7-9-9-7-4-8-2-3-0-7-1-4"
         style="font-style:normal;font-variant:normal;font-weight:normal;font-stretch:normal;font-size:10.9553px;font-family:Hermann;-inkscape-font-specification:'Hermann, Normal';font-variant-ligatures:normal;font-variant-caps:normal;font-variant-numeric:normal;font-variant-east-asian:normal;fill:#002864;fill-opacity:1;stroke-width:0.193364"
         x="72.452255"
         y="331.87631">PYTHoN</tspan></text><text
       xml:space="preserve"
       style="font-style:normal;font-weight:normal;font-size:10.5833px;line-height:1.25;font-family:sans-serif;fill:#000000;fill-opacity:1;stroke:none;stroke-width:0.264583"
       x="-372.44165"
       y="388.89365"
       id="text212478"><tspan
         sodipodi:role="line"
         id="tspan212476"
         style="stroke-width:0.264583"
         x="-372.44165"
         y="388.89365" /></text><path
       style="fill:#14c8ff;fill-opacity:1;fill-rule:evenodd;stroke:#0a2d6e;stroke-width:0.310645;stroke-linecap:round;stroke-linejoin:round;stroke-miterlimit:2;paint-order:markers stroke fill"
       id="path3335"
       sodipodi:type="arc"
       sodipodi:cx="39.776661"
       sodipodi:cy="333.02045"
       sodipodi:rx="8.0324297"
       sodipodi:ry="8.0324297"
       sodipodi:start="0.45225575"
       sodipodi:end="5.5757451"
       sodipodi:arc-type="slice"
       d="m 47.001539,336.53058 a 8.0324297,8.0324297 0 0 1 -8.523077,4.41669 8.0324297,8.0324297 0 0 1 -6.668936,-6.90473 8.0324297,8.0324297 0 0 1 4.710055,-8.36453 8.0324297,8.0324297 0 0 1 9.361951,2.12224 l -6.104871,5.2202 z" /><path
       style="fill:#005aa0;fill-opacity:1;stroke-width:0.0821912"
       d="m 42.142177,340.04991 -0.224992,-0.12208 -0.136062,-0.26311 -0.136063,-0.26312 v -0.4148 -0.4148 l 0.13199,-0.25524 0.131987,-0.25524 0.136747,-0.0525 0.136746,-0.0525 0.119278,0.099 c 0.173744,0.14418 0.48212,0.78452 0.640966,1.33093 l 0.138047,0.47486 -0.143536,0.15861 -0.14354,0.15861 -0.213286,-0.003 -0.213288,-0.003 z m -7.056389,-6.18969 -0.190032,-0.15388 0.09331,-0.40091 c 0.05132,-0.22051 0.187378,-0.61275 0.302353,-0.87166 l 0.209049,-0.47074 0.166243,-0.16625 0.166242,-0.16624 h 0.413595 0.413599 l 0.278636,0.11642 0.278639,0.11643 0.139449,0.21283 0.139452,0.21282 -0.09988,0.24113 -0.09988,0.24113 -0.46835,0.44673 -0.46835,0.44674 -0.342375,0.17466 -0.342373,0.17467 H 35.475466 35.27582 Z m 1.587362,-6.54939 -0.182672,-0.12795 v -0.10754 c 0,-0.0592 0.07747,-0.20603 0.172153,-0.3264 l 0.172153,-0.21886 0.317722,-0.16209 0.317722,-0.16208 0.270397,7.7e-4 0.270398,7.8e-4 0.425226,0.19799 0.425227,0.19798 0.131431,0.20059 0.131431,0.20059 -0.04748,0.12373 -0.04748,0.12374 -0.204823,0.0933 -0.204827,0.0933 h -0.881952 -0.881953 l -0.182671,-0.12795 z"
       id="path3281"
       sodipodi:nodetypes="ccccccccccssccccccccssccccccccccccccccccccssccccccccccccccccc" /><path
       style="fill:#005aa0;fill-opacity:1;stroke-width:0.0821912"
       d="m 52.950514,341.233 c -1.247703,-0.16349 -1.983133,-0.70357 -2.568749,-1.88642 l -0.261029,-0.52722 -0.03041,-1.03441 -0.03041,-1.03441 0.126066,-0.59556 0.126065,-0.59556 0.215511,-0.43184 0.215516,-0.43183 0.30267,-0.31234 c 0.36617,-0.37787 0.811722,-0.644 1.400789,-0.83673 l 0.440582,-0.14414 0.710097,0.0365 0.710103,0.0365 0.434785,0.1901 0.434785,0.19009 0.07891,0.14745 c 0.04341,0.0811 0.07891,0.22508 0.07891,0.31997 v 0.17251 l -0.196596,0.38768 c -0.108128,0.21323 -0.274718,0.45828 -0.370201,0.54457 l -0.173607,0.15687 -0.451495,-0.10831 -0.451497,-0.10831 -0.308437,0.094 c -0.169637,0.0517 -0.422353,0.16418 -0.561587,0.24995 l -0.253154,0.15595 -0.151524,0.31792 -0.151525,0.31792 -0.0063,0.65753 -0.0063,0.65754 0.144854,0.37527 0.144852,0.37527 0.292158,0.28226 0.292155,0.28226 0.943659,-0.0231 0.943659,-0.0231 0.242613,0.53508 0.242614,0.53507 v 0.19877 0.19877 l -0.278757,0.24476 -0.278757,0.24474 -0.399322,0.0878 c -0.21963,0.0483 -0.565759,0.10397 -0.769185,0.1237 l -0.369861,0.0359 z m 6.041697,-0.0363 c -0.226025,-0.0558 -0.585429,-0.17952 -0.798674,-0.27485 l -0.387717,-0.17336 -0.396848,-0.37121 -0.396853,-0.37121 -0.190497,-0.38142 c -0.254104,-0.5088 -0.39734,-1.07673 -0.463845,-1.83915 l -0.05493,-0.62972 0.09172,-0.59115 0.09172,-0.59115 0.170824,-0.45657 0.170826,-0.45656 0.263887,-0.34599 0.263887,-0.34597 0.407293,-0.31026 0.407295,-0.31025 0.522356,-0.16302 0.522353,-0.16304 h 0.600455 0.600455 l 0.500319,0.15572 0.500322,0.15572 0.414309,0.26586 0.414314,0.26587 0.29063,0.35467 0.290634,0.35468 0.170007,0.43607 0.170009,0.43607 0.03952,1.11994 0.03952,1.11995 -0.09835,0.56479 -0.09835,0.56479 -0.216988,0.39868 -0.216989,0.39869 -0.398247,0.35805 -0.398244,0.35806 -0.426757,0.20152 -0.426755,0.20154 -0.487697,0.0899 c -0.603211,0.11114 -0.955843,0.10505 -1.4849,-0.0256 z m 1.530958,-2.19445 0.215891,-0.15255 0.153205,-0.30984 0.153201,-0.30983 -0.0032,-0.82191 -0.0032,-0.82192 -0.173787,-0.38457 -0.173788,-0.38458 -0.274324,-0.14334 -0.274325,-0.14334 -0.390341,0.005 -0.390341,0.005 -0.204491,0.13399 -0.204489,0.13398 -0.180655,0.34812 -0.180656,0.34811 -0.03548,0.75559 -0.03548,0.75558 0.176055,0.36369 c 0.2146,0.4433 0.394106,0.61319 0.803453,0.76042 l 0.313659,0.11282 0.246573,-0.0487 c 0.135619,-0.0268 0.343729,-0.11731 0.46247,-0.20121 z m 6.220759,2.19445 c -0.211881,-0.0613 -0.550761,-0.19153 -0.753065,-0.28946 l -0.367829,-0.17806 -0.359289,-0.31626 -0.359285,-0.31626 -0.23287,-0.42785 c -0.128079,-0.23533 -0.283584,-0.61833 -0.345567,-0.85113 l -0.112702,-0.42327 2.49e-4,-0.90411 2.45e-4,-0.9041 0.121487,-0.51528 0.121484,-0.51527 0.205913,-0.40635 c 0.269417,-0.53166 0.613665,-0.91623 1.092048,-1.21996 l 0.388139,-0.24643 0.446422,-0.13054 0.446425,-0.13055 h 0.59286 0.592859 l 0.535055,0.16526 0.535052,0.16527 0.480453,0.35428 0.48045,0.35427 0.222223,0.32292 c 0.122223,0.17761 0.276041,0.45238 0.341821,0.6106 l 0.119596,0.28767 0.100997,0.69078 0.100996,0.69077 -0.04781,0.66539 -0.04781,0.66538 -0.167015,0.53773 -0.167016,0.53773 -0.262143,0.39576 -0.262141,0.39577 -0.397184,0.31395 -0.397188,0.31397 -0.472771,0.17892 -0.472774,0.17893 -0.657529,0.0305 -0.657534,0.0304 -0.38524,-0.11139 z m 1.555412,-2.15403 0.183874,-0.11642 0.181538,-0.34811 0.181538,-0.34811 0.03393,-0.83178 0.03392,-0.83178 -0.145059,-0.30569 -0.145059,-0.30569 -0.3233,-0.21395 -0.323301,-0.21395 h -0.389238 -0.389242 l -0.251563,0.17913 -0.251563,0.17912 -0.144065,0.35038 -0.144068,0.35038 -0.03871,0.61643 -0.03871,0.61645 0.09457,0.34989 0.09456,0.3499 0.284872,0.28487 0.284871,0.28487 0.266595,0.0778 0.266596,0.0778 0.246574,-0.0426 c 0.135615,-0.0234 0.329318,-0.095 0.430448,-0.15901 z m 23.75754,2.186 -0.469443,-0.0585 -0.45229,-0.22128 -0.452277,-0.22129 -0.34024,-0.38579 -0.340257,-0.3858 -0.19894,-0.39166 c -0.10942,-0.21543 -0.259157,-0.62227 -0.332757,-0.90411 l -0.13382,-0.51243 v -0.73973 -0.73972 l 0.13932,-0.53424 c 0.0766,-0.29384 0.232097,-0.73767 0.345487,-0.9863 l 0.20618,-0.45205 0.334027,-0.3415 0.33404,-0.34151 0.586447,-0.27493 0.586453,-0.27493 0.904097,7.7e-4 0.904094,7.8e-4 0.432607,0.1947 0.432587,0.19471 0.0474,0.1892 0.0474,0.1892 -0.12755,0.4388 -0.127567,0.43879 -0.16986,0.18233 -0.16987,0.18233 -0.185867,0.0467 -0.18586,0.0467 -0.22818,-0.0867 c -0.125487,-0.0477 -0.338187,-0.0867 -0.472657,-0.0867 h -0.244497 l -0.30495,0.15564 c -0.389197,0.19864 -0.579997,0.41185 -0.7201,0.80467 l -0.11186,0.31366 -0.003,0.58555 -0.003,0.58556 0.11855,0.33603 c 0.0652,0.18481 0.198543,0.4442 0.296273,0.5764 l 0.17772,0.24037 0.212727,0.0969 0.21273,0.0969 0.785514,-0.0535 0.785507,-0.0535 0.14354,0.10966 0.143537,0.10965 0.16467,0.47055 c 0.0906,0.2588 0.16468,0.56126 0.16468,0.67212 v 0.20156 l -0.21842,0.17182 -0.218437,0.17181 -0.41855,0.11459 c -0.230197,0.063 -0.640464,0.13068 -0.911694,0.15037 l -0.493147,0.0358 -0.469447,-0.0585 z m 6.017347,0.005 c -1.043554,-0.19457 -1.892491,-0.74642 -2.170008,-1.41061 l -0.12308,-0.29456 -0.0863,-0.68846 -0.0863,-0.68846 v -2.32406 -2.32407 h 1.150664 1.150674 l 0.003,2.363 0.003,2.36301 0.0708,0.36688 0.0708,0.36687 0.181307,0.14683 0.18132,0.14681 h 0.1925 c 0.105877,0 0.286597,-0.0429 0.401607,-0.0953 l 0.209087,-0.0953 0.0877,-0.29514 0.0877,-0.29514 0.0477,-2.40232 0.0477,-2.40233 0.13198,-0.0375 c 0.0726,-0.0207 0.575822,-0.0491 1.118282,-0.0634 l 0.9863,-0.0259 -0.0189,2.67122 -0.0189,2.67123 -0.089,0.5416 -0.089,0.5416 -0.15598,0.25648 -0.15597,0.25647 -0.31682,0.20967 c -0.17426,0.11532 -0.52763,0.28375 -0.78525,0.3743 l -0.468442,0.16464 -0.594657,0.0354 -0.594657,0.0354 z m 6.554733,0.0191 -0.22606,-0.0342 -0.0883,-0.16507 -0.0883,-0.16505 -0.0736,-1.45276 c -0.0405,-0.79902 -0.0747,-2.03052 -0.076,-2.73667 l -0.002,-1.28389 -0.64846,-0.0566 -0.64847,-0.0565 -0.1529,-0.1118 -0.1529,-0.1118 v -0.64362 -0.64361 l 0.0596,-0.145 0.0595,-0.14501 2.57061,0.0217 2.57062,0.0217 v 0.86302 0.86301 l -0.73972,0.0696 c -0.40685,0.0383 -0.7514,0.0808 -0.76567,0.0944 -0.0143,0.0136 -0.0572,1.18434 -0.0954,2.60158 l -0.0695,2.57679 -0.0996,0.27299 -0.0996,0.273 -0.20075,0.0763 -0.20074,0.0763 -0.30287,-0.0123 c -0.16657,-0.007 -0.40459,-0.0277 -0.52893,-0.0466 z m 5.63611,0.002 c -0.0984,-0.0192 -0.22195,-0.0866 -0.27448,-0.14994 l -0.0955,-0.11511 -0.0719,-0.80461 -0.0719,-0.80462 -0.003,-1.43835 c -0.002,-0.7911 -0.0269,-1.68564 -0.0554,-1.98787 l -0.0519,-0.54951 -0.72833,-0.057 -0.72831,-0.057 v -0.89351 -0.8935 h 2.58903 2.58904 v 0.89432 0.89434 l -0.76782,0.0576 -0.76783,0.0575 -0.054,2.4796 -0.054,2.4796 -0.0782,0.32876 -0.0782,0.32877 -0.17755,0.14384 -0.17754,0.14383 -0.38131,-0.0112 c -0.20972,-0.006 -0.46183,-0.0269 -0.56027,-0.046 z m 10.01724,-0.0248 c -0.36039,-0.0842 -0.36903,-0.0968 -0.43693,-0.64004 l -0.0588,-0.46977 -0.007,-3.30821 -0.007,-3.30821 0.26712,0.004 c 0.14692,0.002 1.00685,0.0349 1.91096,0.0724 l 1.64383,0.0682 0.29133,0.12188 0.29133,0.12188 0.33475,0.38028 0.33473,0.38029 0.11177,0.39124 0.11177,0.39123 -0.009,0.50047 -0.009,0.50045 -0.17341,0.39203 -0.17341,0.39203 -0.24725,0.2816 -0.24725,0.28159 v 0.13575 0.13574 l 0.45404,0.8019 c 0.24973,0.44105 0.5093,0.95849 0.57682,1.14988 l 0.12278,0.34797 -0.22291,0.23266 -0.2229,0.23266 -0.41115,0.20488 -0.41114,0.20489 h -0.21611 -0.21611 l -0.1725,-0.18494 -0.1725,-0.18493 -0.48981,-0.9863 -0.48981,-0.9863 -0.17587,-0.15832 -0.17589,-0.15833 -0.10078,0.10056 -0.10081,0.10056 -0.0272,1.12557 -0.0273,1.12557 -0.089,0.0551 c -0.049,0.0303 -0.25861,0.0789 -0.46586,0.10811 -0.20724,0.0292 -0.4323,0.0653 -0.50011,0.0802 -0.0678,0.0149 -0.24536,-0.002 -0.39457,-0.0363 z m 2.03269,-4.14795 c 0.28913,-0.14951 0.64686,-0.5666 0.71342,-0.8318 l 0.0502,-0.19973 -0.13681,-0.20881 -0.13682,-0.20881 -0.26265,-0.16015 -0.26266,-0.16015 -0.18203,-3.1e-4 -0.18204,-3e-4 -0.0851,0.15897 -0.0851,0.15898 v 0.60355 0.60355 l 0.12795,0.18267 c 0.15161,0.21645 0.14537,0.21557 0.44169,0.0623 z m -46.203673,3.87517 -0.269864,-0.27254 -0.559605,-0.98087 c -0.307788,-0.53949 -0.614385,-1.05467 -0.681326,-1.14486 l -0.121718,-0.16398 -0.06654,0.10767 -0.06655,0.10768 -0.0498,1.16428 -0.0498,1.16429 -0.142698,0.10434 -0.142698,0.10436 h -0.888399 -0.888394 v -3.77202 -3.77202 l 0.117737,-0.0452 c 0.06476,-0.0248 0.335432,-0.0698 0.601502,-0.0999 l 0.483768,-0.0547 0.466986,0.097 0.466984,0.0969 v 1.44624 1.44621 l 0.05361,-0.0536 c 0.02948,-0.0295 0.360514,-0.69216 0.735627,-1.47259 l 0.682021,-1.419 1.052039,0.021 c 0.578623,0.0116 1.101146,0.0392 1.161174,0.0615 l 0.109126,0.0405 -0.426829,0.80149 c -0.234756,0.44082 -0.649544,1.22134 -0.921752,1.73448 l -0.494915,0.93298 0.141461,0.29665 c 0.0778,0.16315 0.466221,0.76043 0.863152,1.32728 0.396923,0.56685 0.784569,1.15367 0.861436,1.30402 l 0.139746,0.27339 -0.127394,0.19442 -0.127385,0.19442 -0.526693,0.25137 -0.526692,0.25137 H 76.674919 76.38119 Z m 2.773136,-0.36443 c 0.02616,-0.30514 0.0656,-0.67365 0.08764,-0.81892 l 0.04006,-0.26414 0.305056,-0.0847 c 0.16778,-0.0467 0.388927,-0.0849 0.491445,-0.0852 l 0.186389,-3.1e-4 -0.02205,-1.99241 -0.02197,-1.99241 -0.436208,-0.0694 -0.436207,-0.0694 -0.06553,-0.17791 c -0.03602,-0.0978 -0.0876,-0.47457 -0.114552,-0.83714 l -0.04899,-0.65922 1.701445,0.0242 c 0.935796,0.0133 1.858635,0.0441 2.050762,0.0684 l 0.349309,0.0442 -0.0082,0.54977 c -0.0047,0.30236 -0.03362,0.64221 -0.06475,0.75523 l -0.0566,0.20548 -0.44894,0.0866 -0.448939,0.0866 v 1.9664 1.9664 l 0.442643,0.084 0.442643,0.084 0.05962,0.16438 c 0.03284,0.0904 0.08582,0.46952 0.117797,0.84247 l 0.05815,0.67807 h -2.103827 -2.103818 l 0.04759,-0.55478 z m 5.072598,-3.24656 0.02135,-3.80136 h 2.136977 2.136977 l 0.02337,0.88355 0.02337,0.88357 H 87.18674 86.074376 v 0.47486 0.47486 l 0.120266,0.17171 0.120274,0.17171 0.516716,0.0574 0.516716,0.0575 0.195543,0.12671 0.195542,0.12673 -0.0448,0.4938 -0.0448,0.49381 -0.09014,0.0901 -0.09015,0.0901 -0.588048,0.0539 -0.588048,0.0539 -0.10956,0.14983 -0.109553,0.14983 0.0016,0.25141 7.76e-4,0.25141 0.07783,0.12329 0.07784,0.12329 0.958838,0.0464 0.958847,0.0464 0.118947,0.15903 0.118954,0.15903 -0.0281,0.59036 -0.0281,0.59036 -0.05955,0.0596 c -0.03276,0.0328 -0.235579,0.0885 -0.450733,0.12392 l -0.391193,0.0644 -1.747398,0.005 -1.747391,0.005 0.02135,-3.80135 z m 30.308499,3.51266 -0.0785,-0.20651 -0.005,-3.55376 -0.005,-3.55375 0.31211,-0.0283 c 0.17167,-0.0155 1.09958,-0.002 2.06203,0.0297 l 1.7499,0.0581 0.11995,0.11995 0.11995,0.11995 v 0.55376 0.55376 l -0.11639,0.15954 -0.1164,0.15955 -1.01374,0.0411 -1.01374,0.0411 0.0134,0.56608 0.0134,0.56608 0.10988,0.0696 0.10988,0.0696 0.70711,7.7e-4 0.70711,7.8e-4 -0.0327,0.4315 c -0.018,0.23734 -0.051,0.55042 -0.0733,0.69575 l -0.0406,0.26424 -0.0882,0.0545 c -0.0485,0.03 -0.34646,0.0828 -0.66213,0.11751 l -0.57394,0.063 -0.0881,0.0881 -0.0881,0.0881 v 0.3726 0.3726 l 0.0613,0.0616 0.0613,0.0616 0.93573,0.0411 0.93572,0.0412 0.14279,0.1428 0.14279,0.14281 0.028,0.51473 0.028,0.51472 -0.0737,0.10869 -0.0737,0.10868 -0.32024,0.0743 -0.32024,0.0743 -1.74861,0.002 -1.74859,0.002 -0.0785,-0.2065 z"
       id="path3408"
       sodipodi:nodetypes="cscccccccsscccccsscsscccsscccccccccccccccccsscccscccsscccccccccccccccccccccccccccccccsccccccccccccccccccccssccccsscccsscccccsscccccccccssccccccccccccccccsscccccccccccccccccccccccssccccccsscccsscccccccccccccccccsscsscccsscccccccsscccsscccsscccccccccccccsscccccsscccccccsscccsccccsccccccccccccccssscccccsccssccccscccccccccccccccccsssssccccscccccccccccccccsscccccccccccccccccssssssscccccccccccsssccsscccccccccccsscccccssccscsscsssccccccccsscsccccccsscsscsscccccccssccccsccccccccccccccccccccccccccccccccccsscccccccccsscccccccccccccccsscssccccccccccccccccccccc" /><path
       style="fill:#0a2d6e;fill-opacity:1;stroke-width:0.0821912"
       d="m 40.014857,330.63842 -0.268419,-0.23984 v -0.42444 -0.42444 l 0.268419,-0.23983 0.268419,-0.23984 0.306924,3.1e-4 0.30692,3.2e-4 0.258649,0.15771 0.258649,0.15771 0.09704,0.29404 0.09704,0.29404 -0.09704,0.29403 -0.09704,0.29403 -0.258649,0.15771 -0.258649,0.15771 -0.30692,3.1e-4 -0.306924,3.2e-4 -0.268419,-0.23984 z"
       id="path3410"
       sodipodi:nodetypes="cccccccccccccccccccc" /><path
       style="fill:#14c8ff;fill-opacity:1;stroke-width:0.0163783"
       d="m 39.429313,366.86145 c 0.52552,-0.03 1.12812,-0.14865 1.64412,-0.32376 0.9363,-0.31775 1.49367,-0.86118 1.58756,-1.54788 0.0227,-0.16605 0.0233,-3.63578 6.7e-4,-3.81086 -0.0547,-0.423 -0.24647,-0.80543 -0.55041,-1.09771 -0.23751,-0.2284 -0.46985,-0.3637 -0.77888,-0.45356 l -0.15243,-0.0443 -2.05547,-0.01 c -2.04358,-0.01 -2.05641,-0.01 -2.21507,-0.046 -0.93618,-0.21225 -1.63747,-0.95433 -1.78988,-1.894 -0.0189,-0.1167 -0.024,-0.33378 -0.0241,-1.02919 l -7e-5,-0.8813 -0.82301,0.006 c -0.93452,0.007 -0.93782,0.007 -1.23247,0.14949 -0.60114,0.29075 -0.94735,0.92312 -1.19378,2.18055 -0.24754,1.26311 -0.20347,2.16828 0.15652,3.21475 0.2155,0.62643 0.39825,0.97906 0.6462,1.24687 0.2565,0.27704 0.54875,0.4116 0.9643,0.444 0.11045,0.009 1.35337,0.0155 2.83755,0.0157 l 2.641,3.3e-4 v 0.22111 0.22111 h -1.77794 -1.77789 l 0.006,0.82301 c 0.006,0.88419 0.005,0.87196 0.0972,1.10963 0.13629,0.35125 0.46753,0.69568 0.89109,0.92656 0.71606,0.39033 1.93723,0.63438 2.89954,0.57947 z m -2.53472,-1.21095 c -0.19229,-0.06 -0.35951,-0.2266 -0.42528,-0.42366 -0.0491,-0.14721 -0.0395,-0.36403 0.0222,-0.49794 0.0602,-0.13071 0.18992,-0.26288 0.32177,-0.32779 0.10165,-0.05 0.11752,-0.053 0.28808,-0.0528 0.16664,1.7e-4 0.18806,0.004 0.27878,0.0486 0.19232,0.0947 0.33175,0.28134 0.37206,0.49807 0.0618,0.33259 -0.17232,0.69224 -0.50309,0.77268 -0.0948,0.0231 -0.24956,0.0156 -0.3545,-0.0172 z"
       id="path310"
       sodipodi:nodetypes="csscsscscsscscssscccccccssscccssscssscc"
       inkscape:export-filename="FAIRPYTHONCOOKIECUTTER_Logo_Text.png"
       inkscape:export-xdpi="263.92001"
       inkscape:export-ydpi="263.92001" /><path
       style="fill:#002864;fill-opacity:1;stroke-width:0.0163783"
       d="m 38.310943,355.11566 -0.14529,-0.48004 0.1956,-1.13979 1.50284,-0.95602 1.50283,-0.95603 -0.39866,-0.6393 c -0.43365,-0.69543 -0.57531,-0.89484 -0.75973,-1.06948 -0.49171,-0.46559 -1.11884,-0.47107 -2.17376,-0.019 -0.57958,0.24837 -0.994,0.47445 -1.61372,0.88035 -0.83458,0.54663 -1.40187,1.02142 -1.66568,1.39413 -0.3756,0.53063 -0.49649,1.13191 -0.34231,1.70269 l 0.0402,0.14898 1.10558,1.86585 c 0.23082,-0.15711 1.0186,0.0384 1.57328,-0.0117 0.44734,-0.0404 3.83076,-0.007 3.54676,0.0101 -1.49045,0.0881 -0.24863,0.34718 -2.09962,-0.43155 z m 0.98476,-3.37994 c -0.0543,0.007 -0.14328,0.005 -0.19775,-0.005 -0.57702,-0.10528 -0.76315,-0.83428 -0.30532,-1.19579 0.32942,-0.26012 0.85973,-0.1128 1.01789,0.28277 0.11123,0.27819 0.0415,0.58339 -0.17392,0.76167 -0.10227,0.0846 -0.22346,0.14003 -0.3409,0.15602 z"
       id="path312"
       sodipodi:nodetypes="cccccscssssccssccssssccs"
       inkscape:transform-center-x="-2.2656645"
       inkscape:transform-center-y="-3.1893626" /><path
       style="fill:#002864;fill-opacity:1;stroke-width:0.0163783"
       d="m 44.584892,362.96253 c 0.61227,-0.0649 1.12357,-0.4583 1.43324,-1.10284 0.14535,-0.30252 0.24712,-0.64956 0.35952,-1.22595 0.10319,-0.52919 0.12328,-0.73986 0.12299,-1.28917 -1.7e-4,-0.42512 -0.006,-0.53979 -0.037,-0.76978 -0.0623,-0.45895 -0.19795,-1.08432 -0.29188,-1.34609 -0.10841,-0.3021 -0.29142,-0.6033 -0.50119,-0.82491 -0.29946,-0.31637 -0.66089,-0.4913 -1.12646,-0.63443 -0.30392,-0.0934 -6.1297,-0.0465 -2.78021,-0.04 l -2.64101,-0.005 c -0.63657,0.0305 0.10494,-0.0181 -3.56479,-0.0108 l 0.003,1.90325 0.0439,0.15897 c 0.16039,0.58062 0.57748,1.04175 1.12198,1.24047 0.30458,0.11116 0.16004,0.10435 2.43733,0.11484 l 2.06367,0.01 0.19146,0.0516 c 0.3869,0.10418 0.72618,0.29491 1.00639,0.56575 0.33389,0.32274 0.54651,0.69157 0.6557,1.13745 0.0234,0.0956 0.0287,0.25405 0.0369,1.09447 l 0.009,0.9827 0.66332,0.002 c 0.36483,0.001 0.72219,-0.004 0.79414,-0.0119 z"
       id="path410"
       sodipodi:nodetypes="ssccsssscccssscssscccccs" /><text
       xml:space="preserve"
       style="font-style:normal;font-variant:normal;font-weight:normal;font-stretch:normal;font-size:10.9487px;line-height:1.25;font-family:Hermann;-inkscape-font-specification:'Hermann, Normal';font-variant-ligatures:normal;font-variant-caps:normal;font-variant-numeric:normal;font-variant-east-asian:normal;fill:#005aa0;fill-opacity:1;stroke:none;stroke-width:0.193364"
       x="48.24461"
       y="356.63531"
       id="text1451"
       inkscape:export-filename="FAIRPYTHONCOOKIECUTTER_Logo_Text.png"
       inkscape:export-xdpi="263.92001"
       inkscape:export-ydpi="263.92001"><tspan
         sodipodi:role="line"
         id="tspan1449"
         style="font-style:normal;font-variant:normal;font-weight:normal;font-stretch:normal;font-size:10.9553px;font-family:Hermann;-inkscape-font-specification:'Hermann, Normal';font-variant-ligatures:normal;font-variant-caps:normal;font-variant-numeric:normal;font-variant-east-asian:normal;fill:#005aa0;fill-opacity:1;stroke-width:0.193364"
         x="48.24461"
         y="356.63531">FAIR</tspan></text><text
       xml:space="preserve"
       style="font-style:normal;font-variant:normal;font-weight:normal;font-stretch:normal;font-size:10.9487px;line-height:1.25;font-family:Hermann;-inkscape-font-specification:'Hermann, Normal';font-variant-ligatures:normal;font-variant-caps:normal;font-variant-numeric:normal;font-variant-east-asian:normal;fill:#002864;fill-opacity:1;stroke:none;stroke-width:0.193364"
       x="72.452255"
       y="356.64627"
       id="text1455"
       inkscape:export-filename="/home/v.hofmann/WORKING/Logos/DirSchema_Logo_Text.png"
       inkscape:export-xdpi="263.92001"
       inkscape:export-ydpi="263.92001"><tspan
         sodipodi:role="line"
         id="tspan1453"
         style="font-style:normal;font-variant:normal;font-weight:normal;font-stretch:normal;font-size:10.9553px;font-family:Hermann;-inkscape-font-specification:'Hermann, Normal';font-variant-ligatures:normal;font-variant-caps:normal;font-variant-numeric:normal;font-variant-east-asian:normal;fill:#002864;fill-opacity:1;stroke-width:0.193364"
         x="72.452255"
         y="356.64627">PYTHoN</tspan></text><path
       style="fill:#005aa0;fill-opacity:1;stroke-width:0.0821912"
       d="m 51.89218,366.00303 c -1.247703,-0.16349 -1.983133,-0.70357 -2.568749,-1.88642 l -0.261029,-0.52722 -0.03041,-1.03441 -0.03041,-1.03441 0.126066,-0.59556 0.126065,-0.59556 0.215511,-0.43184 0.215516,-0.43183 0.30267,-0.31234 c 0.36617,-0.37787 0.811722,-0.644 1.400789,-0.83673 l 0.440582,-0.14414 0.710097,0.0365 0.710103,0.0365 0.434785,0.1901 0.434785,0.19009 0.07891,0.14745 c 0.04341,0.0811 0.07891,0.22508 0.07891,0.31997 v 0.17251 l -0.196596,0.38768 c -0.108128,0.21323 -0.274718,0.45828 -0.370201,0.54457 l -0.173607,0.15687 -0.451495,-0.10831 -0.451497,-0.10831 -0.308437,0.094 c -0.169637,0.0517 -0.422353,0.16418 -0.561587,0.24995 l -0.253154,0.15595 -0.151524,0.31792 -0.151525,0.31792 -0.0063,0.65753 -0.0063,0.65754 0.144854,0.37527 0.144852,0.37527 0.292158,0.28226 0.292155,0.28226 0.943659,-0.0231 0.943659,-0.0231 0.242613,0.53508 0.242614,0.53507 v 0.19877 0.19877 l -0.278757,0.24476 -0.278757,0.24474 -0.399322,0.0878 c -0.21963,0.0483 -0.565759,0.10397 -0.769185,0.1237 l -0.369861,0.0359 z m 6.041697,-0.0363 c -0.226025,-0.0558 -0.585429,-0.17952 -0.798674,-0.27485 l -0.387717,-0.17336 -0.396848,-0.37121 -0.396853,-0.37121 -0.190497,-0.38142 c -0.254104,-0.5088 -0.39734,-1.07673 -0.463845,-1.83915 l -0.05493,-0.62972 0.09172,-0.59115 0.09172,-0.59115 0.170824,-0.45657 0.170826,-0.45656 0.263887,-0.34599 0.263887,-0.34597 0.407293,-0.31026 0.407295,-0.31025 0.522356,-0.16302 0.522353,-0.16304 h 0.600455 0.600455 l 0.500319,0.15572 0.500322,0.15572 0.414309,0.26586 0.414314,0.26587 0.29063,0.35467 0.290634,0.35468 0.170007,0.43607 0.170009,0.43607 0.03952,1.11994 0.03952,1.11995 -0.09835,0.56479 -0.09835,0.56479 -0.216988,0.39868 -0.216989,0.39869 -0.398247,0.35805 -0.398244,0.35806 -0.426757,0.20152 -0.426755,0.20154 -0.487697,0.0899 c -0.603211,0.11114 -0.955843,0.10505 -1.4849,-0.0256 z m 1.530958,-2.19445 0.215891,-0.15255 0.153205,-0.30984 0.153201,-0.30983 -0.0032,-0.82191 -0.0032,-0.82192 -0.173787,-0.38457 -0.173788,-0.38458 -0.274324,-0.14334 -0.274325,-0.14334 -0.390341,0.005 -0.390341,0.005 -0.204491,0.13399 -0.204489,0.13398 -0.180655,0.34812 -0.180656,0.34811 -0.03548,0.75559 -0.03548,0.75558 0.176055,0.36369 c 0.2146,0.4433 0.394106,0.61319 0.803453,0.76042 l 0.313659,0.11282 0.246573,-0.0487 c 0.135619,-0.0268 0.343729,-0.11731 0.46247,-0.20121 z m 6.220759,2.19445 c -0.211881,-0.0613 -0.550761,-0.19153 -0.753065,-0.28946 l -0.367829,-0.17806 -0.359289,-0.31626 -0.359285,-0.31626 -0.23287,-0.42785 c -0.128079,-0.23533 -0.283584,-0.61833 -0.345567,-0.85113 l -0.112702,-0.42327 2.49e-4,-0.90411 2.45e-4,-0.9041 0.121487,-0.51528 0.121484,-0.51527 0.205913,-0.40635 c 0.269417,-0.53166 0.613665,-0.91623 1.092048,-1.21996 l 0.388139,-0.24643 0.446422,-0.13054 0.446425,-0.13055 h 0.59286 0.592859 l 0.535055,0.16526 0.535052,0.16527 0.480453,0.35428 0.48045,0.35427 0.222223,0.32292 c 0.122223,0.17761 0.276041,0.45238 0.341821,0.6106 l 0.119596,0.28767 0.100997,0.69078 0.100996,0.69077 -0.04781,0.66539 -0.04781,0.66538 -0.167015,0.53773 -0.167016,0.53773 -0.262143,0.39576 -0.262141,0.39577 -0.397184,0.31395 -0.397188,0.31397 -0.472771,0.17892 -0.472774,0.17893 -0.657529,0.0305 -0.657534,0.0304 -0.38524,-0.11139 z m 1.555412,-2.15403 0.183874,-0.11642 0.181538,-0.34811 0.181538,-0.34811 0.03393,-0.83178 0.03392,-0.83178 -0.145059,-0.30569 -0.145059,-0.30569 -0.3233,-0.21395 -0.323301,-0.21395 h -0.389238 -0.389242 l -0.251563,0.17913 -0.251563,0.17912 -0.144065,0.35038 -0.144068,0.35038 -0.03871,0.61643 -0.03871,0.61645 0.09457,0.34989 0.09456,0.3499 0.284872,0.28487 0.284871,0.28487 0.266595,0.0778 0.266596,0.0778 0.246574,-0.0426 c 0.135615,-0.0234 0.329318,-0.095 0.430448,-0.15901 z m 23.75754,2.186 -0.469443,-0.0585 -0.45229,-0.22128 -0.452277,-0.22129 -0.34024,-0.38579 -0.340257,-0.3858 -0.19894,-0.39166 c -0.10942,-0.21543 -0.259157,-0.62227 -0.332757,-0.90411 l -0.13382,-0.51243 v -0.73973 -0.73972 l 0.13932,-0.53424 c 0.0766,-0.29384 0.232097,-0.73767 0.345487,-0.9863 l 0.20618,-0.45205 0.334027,-0.3415 0.33404,-0.34151 0.586447,-0.27493 0.586453,-0.27493 0.904097,7.7e-4 0.904094,7.8e-4 0.432607,0.1947 0.432587,0.19471 0.0474,0.1892 0.0474,0.1892 -0.12755,0.4388 -0.127567,0.43879 -0.16986,0.18233 -0.16987,0.18233 -0.185867,0.0467 -0.18586,0.0467 -0.22818,-0.0867 c -0.125487,-0.0477 -0.338187,-0.0867 -0.472657,-0.0867 h -0.244497 l -0.30495,0.15564 c -0.389197,0.19864 -0.579997,0.41185 -0.7201,0.80467 l -0.11186,0.31366 -0.003,0.58555 -0.003,0.58556 0.11855,0.33603 c 0.0652,0.18481 0.198543,0.4442 0.296273,0.5764 l 0.17772,0.24037 0.212727,0.0969 0.21273,0.0969 0.785514,-0.0535 0.785507,-0.0535 0.14354,0.10966 0.143537,0.10965 0.16467,0.47055 c 0.0906,0.2588 0.16468,0.56126 0.16468,0.67212 v 0.20156 l -0.21842,0.17182 -0.218437,0.17181 -0.41855,0.11459 c -0.230197,0.063 -0.640464,0.13068 -0.911694,0.15037 l -0.493147,0.0358 -0.469447,-0.0585 z m 6.017347,0.005 c -1.043554,-0.19457 -1.892491,-0.74642 -2.170008,-1.41061 l -0.12308,-0.29456 -0.0863,-0.68846 -0.0863,-0.68846 v -2.32406 -2.32407 h 1.150664 1.150674 l 0.003,2.363 0.003,2.36301 0.0708,0.36688 0.0708,0.36687 0.181307,0.14683 0.18132,0.14681 h 0.1925 c 0.105877,0 0.286597,-0.0429 0.401607,-0.0953 l 0.209087,-0.0953 0.0877,-0.29514 0.0877,-0.29514 0.0477,-2.40232 0.0477,-2.40233 0.13198,-0.0375 c 0.0726,-0.0207 0.575817,-0.0491 1.118274,-0.0634 l 0.986302,-0.0259 -0.0189,2.67122 -0.0189,2.67123 -0.089,0.5416 -0.089,0.5416 -0.15598,0.25648 -0.15597,0.25647 -0.316822,0.20967 c -0.17426,0.11532 -0.52763,0.28375 -0.785247,0.3743 l -0.468437,0.16464 -0.594657,0.0354 -0.594657,0.0354 z m 6.554727,0.0191 -0.22606,-0.0342 -0.0883,-0.16507 -0.0883,-0.16505 -0.0736,-1.45276 c -0.0405,-0.79902 -0.0747,-2.03052 -0.076,-2.73667 l -0.002,-1.28389 -0.64846,-0.0566 -0.64847,-0.0565 -0.1529,-0.1118 -0.1529,-0.1118 v -0.64362 -0.64361 l 0.0596,-0.145 0.0595,-0.14501 2.57061,0.0217 2.57062,0.0217 v 0.86302 0.86301 l -0.73972,0.0696 c -0.40685,0.0383 -0.7514,0.0808 -0.76567,0.0944 -0.0143,0.0136 -0.0572,1.18434 -0.0954,2.60158 l -0.0695,2.57679 -0.0996,0.27299 -0.0996,0.273 -0.20075,0.0763 -0.20074,0.0763 -0.30287,-0.0123 c -0.16657,-0.007 -0.40459,-0.0277 -0.52893,-0.0466 z m 5.63611,0.002 c -0.0984,-0.0192 -0.22195,-0.0866 -0.27448,-0.14994 l -0.0955,-0.11511 -0.0719,-0.80461 -0.0719,-0.80462 -0.003,-1.43835 c -0.002,-0.7911 -0.0269,-1.68564 -0.0554,-1.98787 l -0.0519,-0.54951 -0.72833,-0.057 -0.72831,-0.057 v -0.89351 -0.8935 h 2.58903 2.58904 v 0.89432 0.89434 l -0.76782,0.0576 -0.76783,0.0575 -0.054,2.4796 -0.054,2.4796 -0.0782,0.32876 -0.0782,0.32877 -0.17755,0.14384 -0.17754,0.14383 -0.38131,-0.0112 c -0.20972,-0.006 -0.46183,-0.0269 -0.56027,-0.046 z M 119.22397,366 c -0.36039,-0.0842 -0.36903,-0.0968 -0.43693,-0.64004 l -0.0588,-0.46977 -0.007,-3.30821 -0.007,-3.30821 0.26712,0.004 c 0.14692,0.002 1.00685,0.0349 1.91096,0.0724 l 1.64383,0.0682 0.29133,0.12188 0.29133,0.12188 0.33475,0.38028 0.33473,0.38029 0.11177,0.39124 0.11177,0.39123 -0.009,0.50047 -0.009,0.50045 -0.17341,0.39203 -0.17341,0.39203 -0.24725,0.2816 -0.24725,0.28159 v 0.13575 0.13574 l 0.45404,0.8019 c 0.24973,0.44105 0.5093,0.95849 0.57682,1.14988 l 0.12278,0.34797 -0.22291,0.23266 -0.2229,0.23266 -0.41115,0.20488 -0.41114,0.20489 h -0.21611 -0.21611 l -0.1725,-0.18494 -0.1725,-0.18493 -0.48981,-0.9863 -0.48981,-0.9863 -0.17587,-0.15832 -0.17589,-0.15833 -0.10078,0.10056 -0.10081,0.10056 -0.0272,1.12557 -0.0273,1.12557 -0.089,0.0551 c -0.049,0.0303 -0.25861,0.0789 -0.46586,0.10811 -0.20724,0.0292 -0.4323,0.0653 -0.50011,0.0802 -0.0678,0.0149 -0.24536,-0.002 -0.39457,-0.0363 z m 2.03269,-4.14795 c 0.28913,-0.14951 0.64686,-0.5666 0.71342,-0.8318 l 0.0502,-0.19973 -0.13681,-0.20881 -0.13682,-0.20881 -0.26265,-0.16015 -0.26266,-0.16015 -0.18203,-3.1e-4 -0.18204,-3e-4 -0.0851,0.15897 -0.0851,0.15898 v 0.60355 0.60355 l 0.12795,0.18267 c 0.15161,0.21645 0.14537,0.21557 0.44169,0.0623 z m -46.203667,3.87517 -0.269864,-0.27254 -0.559605,-0.98087 c -0.307788,-0.53949 -0.614385,-1.05467 -0.681326,-1.14486 l -0.121718,-0.16398 -0.06654,0.10767 -0.06655,0.10768 -0.0498,1.16428 -0.0498,1.16429 -0.142698,0.10434 -0.142698,0.10436 h -0.888399 -0.888394 v -3.77202 -3.77202 l 0.117737,-0.0452 c 0.06476,-0.0248 0.335432,-0.0698 0.601502,-0.0999 l 0.483768,-0.0547 0.466986,0.097 0.466984,0.0969 v 1.44624 1.44621 l 0.05361,-0.0536 c 0.02948,-0.0295 0.360514,-0.69216 0.735627,-1.47259 l 0.682021,-1.419 1.052039,0.021 c 0.578623,0.0116 1.101146,0.0392 1.161174,0.0615 l 0.109126,0.0405 -0.426829,0.80149 c -0.234756,0.44082 -0.649544,1.22134 -0.921752,1.73448 l -0.494915,0.93298 0.141461,0.29665 c 0.0778,0.16315 0.466221,0.76043 0.863152,1.32728 0.396923,0.56685 0.784569,1.15367 0.861436,1.30402 l 0.139746,0.27339 -0.127394,0.19442 -0.127385,0.19442 -0.526693,0.25137 -0.526692,0.25137 h -0.293725 -0.293729 z m 2.773136,-0.36443 c 0.02616,-0.30514 0.0656,-0.67365 0.08764,-0.81892 l 0.04006,-0.26414 0.305056,-0.0847 c 0.16778,-0.0467 0.388927,-0.0849 0.491445,-0.0852 l 0.186389,-3.1e-4 -0.02205,-1.99241 -0.02197,-1.99241 -0.436208,-0.0694 -0.436207,-0.0694 -0.06553,-0.17791 c -0.03602,-0.0978 -0.0876,-0.47457 -0.114552,-0.83714 l -0.04899,-0.65922 1.701445,0.0242 c 0.935796,0.0133 1.858635,0.0441 2.050762,0.0684 l 0.349309,0.0442 -0.0082,0.54977 c -0.0047,0.30236 -0.03362,0.64221 -0.06475,0.75523 l -0.0566,0.20548 -0.44894,0.0866 -0.448939,0.0866 v 1.9664 1.9664 l 0.442643,0.084 0.442643,0.084 0.05962,0.16438 c 0.03284,0.0904 0.08582,0.46952 0.117797,0.84247 l 0.05815,0.67807 h -2.103827 -2.103818 l 0.04759,-0.55478 z m 5.072598,-3.24656 0.02135,-3.80136 h 2.136977 2.136977 l 0.02337,0.88355 0.02337,0.88357 h -1.112365 -1.112364 v 0.47486 0.47486 l 0.120266,0.17171 0.120274,0.17171 0.516716,0.0574 0.516716,0.0575 0.195543,0.12671 0.195542,0.12673 -0.0448,0.4938 -0.0448,0.49381 -0.09014,0.0901 -0.09015,0.0901 -0.588048,0.0539 -0.588048,0.0539 -0.10956,0.14983 -0.109553,0.14983 0.0016,0.25141 7.76e-4,0.25141 0.07783,0.12329 0.07784,0.12329 0.958838,0.0464 0.958847,0.0464 0.118947,0.15903 0.118954,0.15903 -0.0281,0.59036 -0.0281,0.59036 -0.05955,0.0596 c -0.03276,0.0328 -0.235579,0.0885 -0.450733,0.12392 l -0.391193,0.0644 -1.747398,0.005 -1.747391,0.005 0.02135,-3.80135 z m 30.308493,3.51266 -0.0785,-0.20651 -0.005,-3.55376 -0.005,-3.55375 0.31211,-0.0283 c 0.17167,-0.0155 1.09958,-0.002 2.06203,0.0297 l 1.7499,0.0581 0.11995,0.11995 0.11995,0.11995 v 0.55376 0.55376 l -0.11639,0.15954 -0.1164,0.15955 -1.01374,0.0411 -1.01374,0.0411 0.0134,0.56608 0.0134,0.56608 0.10988,0.0696 0.10988,0.0696 0.70711,7.7e-4 0.70711,7.8e-4 -0.0327,0.4315 c -0.018,0.23734 -0.051,0.55042 -0.0733,0.69575 l -0.0406,0.26424 -0.0882,0.0545 c -0.0485,0.03 -0.34646,0.0828 -0.66213,0.11751 l -0.57394,0.063 -0.0881,0.0881 -0.0881,0.0881 v 0.3726 0.3726 l 0.0613,0.0616 0.0613,0.0616 0.93573,0.0411 0.93572,0.0412 0.14279,0.1428 0.14279,0.14281 0.028,0.51473 0.028,0.51472 -0.0737,0.10869 -0.0737,0.10868 -0.32024,0.0743 -0.32024,0.0743 -1.74861,0.002 -1.74859,0.002 -0.0785,-0.2065 z"
       id="path1457"
       sodipodi:nodetypes="cscccccccsscccccsscsscccsscccccccccccccccccsscccscccsscccccccccccccccccccccccccccccccsccccccccccccccccccccssccccsscccsscccccsscccccccccssccccccccccccccccsscccccccccccccccccccccccssccccccsscccsscccccccccccccccccsscsscccsscccccccsscccsscccsscccccccccccccsscccccsscccccccsscccsccccsccccccccccccccssscccccsccssccccscccccccccccccccccsssssccccscccccccccccccccsscccccccccccccccccssssssscccccccccccsssccsscccccccccccsscccccssccscsscsssccccccccsscsccccccsscsscsscccccccssccccsccccccccccccccccccccccccccccccccccsscccccccccsscccccccccccccccsscssccccccccccccccccccccc" /><g
       id="g2381"
       inkscape:export-filename="FAIRPYTHONCOOKIECUTTER_Logo.png"
       inkscape:export-xdpi="263.92001"
       inkscape:export-ydpi="263.92001"
       transform="rotate(13.107222,133.38764,273.1596)"><path
         style="fill:#002864;fill-opacity:1;stroke-width:0.0163783"
         d="m 36.932662,273.46254 c 0.458609,0.25836 1.029952,0.48369 1.558859,0.61475 0.959727,0.23779 1.722237,0.0811 2.171883,-0.44633 0.108722,-0.12754 1.981792,-3.04827 2.057228,-3.20787 0.182241,-0.38564 0.227183,-0.81108 0.129068,-1.22118 -0.07669,-0.32045 -0.199269,-0.55975 -0.410935,-0.80218 l -0.10441,-0.1196 -1.725033,-1.11773 c -1.715026,-1.11131 -1.725826,-1.11824 -1.839969,-1.23416 -0.673589,-0.68394 -0.863491,-1.68715 -0.484678,-2.56046 0.04706,-0.10846 0.159936,-0.29396 0.53515,-0.87945 l 0.475567,-0.74198 -0.696104,-0.43911 c -0.790517,-0.49846 -0.793295,-0.50025 -1.118252,-0.5393 -0.663028,-0.0793 -1.295737,0.26587 -2.181816,1.19147 -0.890076,0.92977 -1.341483,1.71559 -1.603183,2.79086 -0.156646,0.64366 -0.193116,1.03916 -0.128904,1.39843 0.06642,0.37167 0.239837,0.64268 0.57219,0.89421 0.08813,0.0672 1.130992,0.74345 2.380365,1.54461 l 2.223193,1.42559 -0.119337,0.18614 -0.119326,0.18615 -1.496788,-0.95954 -1.496748,-0.95949 -0.439114,0.69609 c -0.472133,0.74761 -0.466375,0.73678 -0.517022,0.98662 -0.07487,0.36925 0.01815,0.83799 0.250128,1.26096 0.392171,0.71505 1.288525,1.57955 2.128295,2.05267 z m -1.480365,-2.3874 c -0.129501,-0.15429 -0.180365,-0.3848 -0.129385,-0.5862 0.03808,-0.15042 0.163202,-0.32777 0.287421,-0.40721 0.121221,-0.0775 0.301759,-0.11881 0.447789,-0.1023 0.112553,0.0128 0.127668,0.0181 0.271032,0.11096 0.140186,0.0901 0.156161,0.10489 0.208468,0.19136 0.110799,0.18352 0.127452,0.41591 0.04442,0.62012 -0.127463,0.31334 -0.51866,0.48976 -0.840538,0.37898 -0.09228,-0.0317 -0.218514,-0.12154 -0.28916,-0.2058 z"
         id="path2375"
         sodipodi:nodetypes="csscsscscsscscssscccccccssscccssscssscc"
         inkscape:export-filename="FAIRPYTHONCOOKIECUTTER1_Logo_Text.png"
         inkscape:export-xdpi="263.92001"
         inkscape:export-ydpi="263.92001" /><path
         style="fill:#14c8ff;fill-opacity:1;stroke-width:0.0163783"
         d="m 41.705135,261.2132 c 0,0 0.12649,-0.42101 0.188303,-0.6645 0.06181,-0.24349 0.539142,-0.73272 0.539142,-0.73272 l 1.50284,-0.95602 1.50283,-0.95603 -0.39866,-0.6393 c -0.43365,-0.69543 -0.57531,-0.89484 -0.75973,-1.06948 -0.49171,-0.46559 -1.11884,-0.47107 -2.17376,-0.019 -0.57958,0.24837 -0.994,0.47445 -1.61372,0.88035 -0.83458,0.54663 -1.40187,1.02142 -1.66568,1.39413 -0.3756,0.53063 -0.49649,1.13191 -0.34231,1.70269 l 0.0402,0.14898 1.10558,1.86585 c 0.23082,-0.15711 0.804117,1.23592 1.358797,1.18582 0.44734,-0.0404 2.694547,1.40311 2.473417,1.22408 -1.404209,-1.13688 -1.77913,-1.38714 -1.799673,-2.50678 z m 1.661897,-3.15733 c -0.0543,0.007 -0.14328,0.005 -0.19775,-0.005 -0.57702,-0.10528 -0.76315,-0.83428 -0.30532,-1.19579 0.32942,-0.26012 0.85973,-0.1128 1.01789,0.28277 0.11123,0.27819 0.0415,0.58339 -0.17392,0.76167 -0.10227,0.0846 -0.22346,0.14003 -0.3409,0.15602 z"
         id="path2377"
         sodipodi:nodetypes="czcccscssssccssccssssccs"
         inkscape:transform-center-x="-2.2656645"
         inkscape:transform-center-y="-3.1893626" /><path
         style="fill:#14c8ff;fill-opacity:1;stroke-width:0.0163783"
         d="m 43.377162,272.96256 c 0.550475,0.2758 1.19323,0.22055 1.801785,-0.15494 0.28563,-0.17624 0.558601,-0.41348 0.964295,-0.83807 0.372468,-0.38981 0.503077,-0.55632 0.799287,-1.01893 0.229288,-0.35798 0.286266,-0.45766 0.384291,-0.66803 0.19524,-0.41999 0.418543,-1.01967 0.480739,-1.29074 0.07177,-0.31283 0.08028,-0.66517 0.02326,-0.96495 -0.08137,-0.42796 -0.291234,-0.77028 -0.605937,-1.14204 -0.205453,-0.24265 -5.135296,-3.34725 -2.318979,-1.53412 l -2.22068,-1.42952 c -0.552369,-0.31786 0.09811,0.0414 -2.995251,-1.93295 l -1.02463,1.6039 -0.04885,0.15752 c -0.178322,0.57537 -0.07606,1.18868 0.275094,1.64983 0.196426,0.25796 0.07841,0.17422 1.98993,1.41207 l 1.731939,1.12215 0.133337,0.14677 c 0.269495,0.2965 0.452187,0.64019 0.54192,1.01942 0.106911,0.4519 0.08686,0.87715 -0.06185,1.31146 -0.03188,0.0931 -0.112937,0.22936 -0.559603,0.94131 l -0.522772,0.83216 0.557347,0.35967 c 0.306601,0.19772 0.610148,0.38638 0.674984,0.41856 z"
         id="path2379"
         sodipodi:nodetypes="ssccsssscccssscssscccccs" /></g><g
       id="g1224"
       inkscape:export-filename="FAIRPYTHONCOOKIECUTTER_Logo_Text.png"
       inkscape:export-xdpi="263.92001"
       inkscape:export-ydpi="263.92001"
       transform="rotate(13.107222,257.86772,283.9312)"><path
         style="fill:#002864;fill-opacity:1;stroke-width:0.0163783"
         d="m 36.932662,273.46254 c 0.458609,0.25836 1.029952,0.48369 1.558859,0.61475 0.959727,0.23779 1.722237,0.0811 2.171883,-0.44633 0.108722,-0.12754 1.981792,-3.04827 2.057228,-3.20787 0.182241,-0.38564 0.227183,-0.81108 0.129068,-1.22118 -0.07669,-0.32045 -0.199269,-0.55975 -0.410935,-0.80218 l -0.10441,-0.1196 -1.725033,-1.11773 c -1.715026,-1.11131 -1.725826,-1.11824 -1.839969,-1.23416 -0.673589,-0.68394 -0.863491,-1.68715 -0.484678,-2.56046 0.04706,-0.10846 0.159936,-0.29396 0.53515,-0.87945 l 0.475567,-0.74198 -0.696104,-0.43911 c -0.790517,-0.49846 -0.793295,-0.50025 -1.118252,-0.5393 -0.663028,-0.0793 -1.295737,0.26587 -2.181816,1.19147 -0.890076,0.92977 -1.341483,1.71559 -1.603183,2.79086 -0.156646,0.64366 -0.193116,1.03916 -0.128904,1.39843 0.06642,0.37167 0.239837,0.64268 0.57219,0.89421 0.08813,0.0672 1.130992,0.74345 2.380365,1.54461 l 2.223193,1.42559 -0.119337,0.18614 -0.119326,0.18615 -1.496788,-0.95954 -1.496748,-0.95949 -0.439114,0.69609 c -0.472133,0.74761 -0.466375,0.73678 -0.517022,0.98662 -0.07487,0.36925 0.01815,0.83799 0.250128,1.26096 0.392171,0.71505 1.288525,1.57955 2.128295,2.05267 z m -1.480365,-2.3874 c -0.129501,-0.15429 -0.180365,-0.3848 -0.129385,-0.5862 0.03808,-0.15042 0.163202,-0.32777 0.287421,-0.40721 0.121221,-0.0775 0.301759,-0.11881 0.447789,-0.1023 0.112553,0.0128 0.127668,0.0181 0.271032,0.11096 0.140186,0.0901 0.156161,0.10489 0.208468,0.19136 0.110799,0.18352 0.127452,0.41591 0.04442,0.62012 -0.127463,0.31334 -0.51866,0.48976 -0.840538,0.37898 -0.09228,-0.0317 -0.218514,-0.12154 -0.28916,-0.2058 z"
         id="path1218"
         sodipodi:nodetypes="csscsscscsscscssscccccccssscccssscssscc"
         inkscape:export-filename="FAIRPYTHONCOOKIECUTTER1_Logo_Text.png"
         inkscape:export-xdpi="263.92001"
         inkscape:export-ydpi="263.92001" /><path
         style="fill:#14c8ff;fill-opacity:1;stroke-width:0.0163783"
         d="m 41.705135,261.2132 c 0,0 0.12649,-0.42101 0.188303,-0.6645 0.06181,-0.24349 0.539142,-0.73272 0.539142,-0.73272 l 1.50284,-0.95602 1.50283,-0.95603 -0.39866,-0.6393 c -0.43365,-0.69543 -0.57531,-0.89484 -0.75973,-1.06948 -0.49171,-0.46559 -1.11884,-0.47107 -2.17376,-0.019 -0.57958,0.24837 -0.994,0.47445 -1.61372,0.88035 -0.83458,0.54663 -1.40187,1.02142 -1.66568,1.39413 -0.3756,0.53063 -0.49649,1.13191 -0.34231,1.70269 l 0.0402,0.14898 1.10558,1.86585 c 0.23082,-0.15711 0.804117,1.23592 1.358797,1.18582 0.44734,-0.0404 2.694547,1.40311 2.473417,1.22408 -1.404209,-1.13688 -1.77913,-1.38714 -1.799673,-2.50678 z m 1.661897,-3.15733 c -0.0543,0.007 -0.14328,0.005 -0.19775,-0.005 -0.57702,-0.10528 -0.76315,-0.83428 -0.30532,-1.19579 0.32942,-0.26012 0.85973,-0.1128 1.01789,0.28277 0.11123,0.27819 0.0415,0.58339 -0.17392,0.76167 -0.10227,0.0846 -0.22346,0.14003 -0.3409,0.15602 z"
         id="path1220"
         sodipodi:nodetypes="czcccscssssccssccssssccs"
         inkscape:transform-center-x="-2.2656645"
         inkscape:transform-center-y="-3.1893626" /><path
         style="fill:#14c8ff;fill-opacity:1;stroke-width:0.0163783"
         d="m 43.377162,272.96256 c 0.550475,0.2758 1.19323,0.22055 1.801785,-0.15494 0.28563,-0.17624 0.558601,-0.41348 0.964295,-0.83807 0.372468,-0.38981 0.503077,-0.55632 0.799287,-1.01893 0.229288,-0.35798 0.286266,-0.45766 0.384291,-0.66803 0.19524,-0.41999 0.418543,-1.01967 0.480739,-1.29074 0.07177,-0.31283 0.08028,-0.66517 0.02326,-0.96495 -0.08137,-0.42796 -0.291234,-0.77028 -0.605937,-1.14204 -0.205453,-0.24265 -5.135296,-3.34725 -2.318979,-1.53412 l -2.22068,-1.42952 c -0.552369,-0.31786 0.09811,0.0414 -2.995251,-1.93295 l -1.02463,1.6039 -0.04885,0.15752 c -0.178322,0.57537 -0.07606,1.18868 0.275094,1.64983 0.196426,0.25796 0.07841,0.17422 1.98993,1.41207 l 1.731939,1.12215 0.133337,0.14677 c 0.269495,0.2965 0.452187,0.64019 0.54192,1.01942 0.106911,0.4519 0.08686,0.87715 -0.06185,1.31146 -0.03188,0.0931 -0.112937,0.22936 -0.559603,0.94131 l -0.522772,0.83216 0.557347,0.35967 c 0.306601,0.19772 0.610148,0.38638 0.674984,0.41856 z"
         id="path1222"
         sodipodi:nodetypes="ssccsssscccssscssscccccs" /></g><path
       style="font-size:10.9553px;line-height:1.25;font-family:Hermann;-inkscape-font-specification:'Hermann, Normal';fill:#002864;stroke-width:0.193364"
       d="m -4.5804116,218.70578 v 1.48992 h -3.538562 v 1.65425 h 3.0893947 v 1.48992 h -3.0893947 v 3.13321 h -1.4899208 v -7.0333 c 0,-0.0657 0.021911,-0.13146 0.076687,-0.17528 l 0.4820332,-0.48204 c 0.043821,-0.0438 0.109553,-0.0767 0.1752848,-0.0767 z m 5.10513417,6.25547 0.53680973,1.51183 h 1.5775632 l -2.67309325,-7.60297 c -0.0328659,-0.0986 -0.1314636,-0.16433 -0.23006131,-0.16433 H -1.5677398 c -0.109553,0 -0.1971954,0.0657 -0.2300613,0.17528 l -2.6730933,7.59202 h 1.5775633 l 0.5368097,-1.51183 z m -1.44609965,-4.10824 0.92024523,2.61832 H -1.830667 Z M 5.2245347,218.70578 H 3.7346139 v 7.7673 h 1.4899208 z m 6.1239973,5.22567 0.821648,-0.8326 c 0.241016,-0.23006 0.37248,-0.54776 0.37248,-0.87642 v -1.48992 c 0,-0.33962 -0.131464,-0.64637 -0.37248,-0.88738 l -0.766871,-0.76687 c -0.230062,-0.23007 -0.547765,-0.36153 -0.876424,-0.36153 H 6.9773673 v 7.75635 h 1.4899209 v -2.23488 h 1.3365466 l 1.2489042,2.23488 h 1.698072 z m -2.8812438,-3.7248 h 1.8514458 c 0.06573,0 0.131464,0.0219 0.175285,0.0767 l 0.482033,0.47108 c 0.04382,0.0548 0.07669,0.10955 0.07669,0.17528 v 1.08458 c 0,0.0657 -0.03287,0.13146 -0.07669,0.17528 l -0.482033,0.48203 c -0.04382,0.0438 -0.109553,0.0767 -0.175285,0.0767 H 8.4672882 Z"
       id="text1228"
       transform="rotate(-17.059164)"
       aria-label="FAIR" /><path
       style="fill:#002864;fill-opacity:1;stroke-width:0.0821912"
       d="m 61.458948,226.90062 c -1.247703,-0.16349 -1.983133,-0.70357 -2.568749,-1.88642 l -0.261029,-0.52722 -0.03041,-1.03441 -0.03041,-1.03441 0.126066,-0.59556 0.126065,-0.59556 0.215511,-0.43184 0.215516,-0.43183 0.30267,-0.31234 c 0.36617,-0.37787 0.811722,-0.644 1.400789,-0.83673 l 0.440582,-0.14414 0.710097,0.0365 0.710103,0.0365 0.434785,0.1901 0.434785,0.19009 0.07891,0.14745 c 0.04341,0.0811 0.07891,0.22508 0.07891,0.31997 v 0.17251 l -0.196596,0.38768 c -0.108128,0.21323 -0.274718,0.45828 -0.370201,0.54457 l -0.173607,0.15687 -0.451495,-0.10831 -0.451497,-0.10831 -0.308437,0.094 c -0.169637,0.0517 -0.422353,0.16418 -0.561587,0.24995 l -0.253154,0.15595 -0.151524,0.31792 -0.151525,0.31792 -0.0063,0.65753 -0.0063,0.65754 0.144854,0.37527 0.144852,0.37527 0.292158,0.28226 0.292155,0.28226 0.943659,-0.0231 0.943659,-0.0231 0.242613,0.53508 0.242614,0.53507 v 0.19877 0.19877 l -0.278757,0.24476 -0.278757,0.24474 -0.399322,0.0878 c -0.21963,0.0483 -0.565759,0.10397 -0.769185,0.1237 l -0.369861,0.0359 z m 6.041697,-0.0363 c -0.226025,-0.0558 -0.585429,-0.17952 -0.798674,-0.27485 l -0.387717,-0.17336 -0.396848,-0.37121 -0.396853,-0.37121 -0.190497,-0.38142 c -0.254104,-0.5088 -0.39734,-1.07673 -0.463845,-1.83915 l -0.05493,-0.62972 0.09172,-0.59115 0.09172,-0.59115 0.170824,-0.45657 0.170826,-0.45656 0.263887,-0.34599 0.263887,-0.34597 0.407293,-0.31026 0.407295,-0.31025 0.522356,-0.16302 0.522353,-0.16304 h 0.600455 0.600455 l 0.500319,0.15572 0.500322,0.15572 0.414309,0.26586 0.414314,0.26587 0.29063,0.35467 0.290634,0.35468 0.170007,0.43607 0.170009,0.43607 0.03952,1.11994 0.03952,1.11995 -0.09835,0.56479 -0.09835,0.56479 -0.216988,0.39868 -0.216989,0.39869 -0.398247,0.35805 -0.398244,0.35806 -0.426757,0.20152 -0.426755,0.20154 -0.487697,0.0899 c -0.603211,0.11114 -0.955843,0.10505 -1.4849,-0.0256 z m 1.530958,-2.19445 0.215891,-0.15255 0.153205,-0.30984 0.153201,-0.30983 -0.0032,-0.82191 -0.0032,-0.82192 -0.173787,-0.38457 -0.173788,-0.38458 -0.274324,-0.14334 -0.274325,-0.14334 -0.390341,0.005 -0.390341,0.005 -0.204491,0.13399 -0.204489,0.13398 -0.180655,0.34812 -0.180656,0.34811 -0.03548,0.75559 -0.03548,0.75558 0.176055,0.36369 c 0.2146,0.4433 0.394106,0.61319 0.803453,0.76042 l 0.313659,0.11282 0.246573,-0.0487 c 0.135619,-0.0268 0.343729,-0.11731 0.46247,-0.20121 z m 6.220759,2.19445 c -0.211881,-0.0613 -0.550761,-0.19153 -0.753065,-0.28946 l -0.367829,-0.17806 -0.359289,-0.31626 -0.359285,-0.31626 -0.23287,-0.42785 C 73.051945,225.1011 72.89644,224.7181 72.834457,224.4853 l -0.112702,-0.42327 2.49e-4,-0.90411 2.45e-4,-0.9041 0.121487,-0.51528 0.121484,-0.51527 0.205913,-0.40635 c 0.269417,-0.53166 0.613665,-0.91623 1.092048,-1.21996 l 0.388139,-0.24643 0.446422,-0.13054 0.446425,-0.13055 h 0.59286 0.592859 l 0.535055,0.16526 0.535052,0.16527 0.480453,0.35428 0.48045,0.35427 0.222223,0.32292 c 0.122223,0.17761 0.276041,0.45238 0.341821,0.6106 l 0.119596,0.28767 0.100997,0.69078 0.100996,0.69077 -0.04781,0.66539 -0.04781,0.66538 -0.167015,0.53773 -0.167016,0.53773 -0.262143,0.39576 -0.262141,0.39577 -0.397184,0.31395 -0.397188,0.31397 -0.472771,0.17892 -0.472774,0.17893 -0.657529,0.0305 -0.657534,0.0304 -0.38524,-0.11139 z m 1.555412,-2.15403 0.183874,-0.11642 0.181538,-0.34811 0.181538,-0.34811 0.03393,-0.83178 0.03392,-0.83178 -0.145059,-0.30569 -0.145059,-0.30569 -0.3233,-0.21395 -0.323301,-0.21395 h -0.389238 -0.389242 l -0.251563,0.17913 -0.251563,0.17912 -0.144065,0.35038 -0.144068,0.35038 -0.03871,0.61643 -0.03871,0.61645 0.09457,0.34989 0.09456,0.3499 0.284872,0.28487 0.284871,0.28487 0.266595,0.0778 0.266596,0.0778 0.246574,-0.0426 c 0.135615,-0.0234 0.329318,-0.095 0.430448,-0.15901 z m 23.757506,2.186 -0.46944,-0.0585 -0.452285,-0.22128 -0.45228,-0.22129 -0.34024,-0.38579 -0.340257,-0.3858 -0.19894,-0.39166 c -0.10942,-0.21543 -0.25915,-0.62227 -0.33275,-0.90411 l -0.13382,-0.51243 v -0.73973 -0.73972 l 0.13932,-0.53424 c 0.0766,-0.29384 0.23209,-0.73767 0.34548,-0.9863 l 0.206177,-0.45205 0.33403,-0.3415 0.33404,-0.34151 0.58645,-0.27493 0.586445,-0.27493 0.9041,7.7e-4 0.90409,7.8e-4 0.43261,0.1947 0.43259,0.19471 0.0474,0.1892 0.0474,0.1892 -0.12755,0.4388 -0.12757,0.43879 -0.16986,0.18233 -0.16987,0.18233 -0.18587,0.0467 -0.18586,0.0467 -0.22818,-0.0867 c -0.12548,-0.0477 -0.33818,-0.0867 -0.47265,-0.0867 h -0.2445 l -0.30495,0.15564 c -0.3892,0.19864 -0.58,0.41185 -0.7201,0.80467 l -0.11186,0.31366 -0.003,0.58555 -0.003,0.58556 0.11855,0.33603 c 0.0652,0.18481 0.19854,0.4442 0.29627,0.5764 l 0.17772,0.24037 0.21273,0.0969 0.21273,0.0969 0.78551,-0.0535 0.78551,-0.0535 0.14354,0.10966 0.14354,0.10965 0.16467,0.47055 c 0.0906,0.2588 0.16468,0.56126 0.16468,0.67212 v 0.20156 l -0.21842,0.17182 -0.21844,0.17181 -0.41855,0.11459 c -0.2302,0.063 -0.64046,0.13068 -0.91169,0.15037 l -0.49315,0.0358 -0.46945,-0.0585 z m 6.01735,0.005 c -1.04355,-0.19457 -1.89248,-0.74642 -2.17001,-1.41061 l -0.12308,-0.29456 -0.0863,-0.68846 -0.0863,-0.68846 v -2.32406 -2.32407 h 1.15067 1.15067 l 0.003,2.363 0.003,2.36301 0.0708,0.36688 0.0708,0.36687 0.18131,0.14683 0.18132,0.14681 h 0.1925 c 0.10587,0 0.28659,-0.0429 0.4016,-0.0953 l 0.20909,-0.0953 0.0877,-0.29514 0.0877,-0.29514 0.0477,-2.40232 0.0477,-2.40233 0.13198,-0.0375 c 0.0726,-0.0207 0.57582,-0.0491 1.11827,-0.0634 l 0.9863,-0.0259 -0.0189,2.67122 -0.0189,2.67123 -0.089,0.5416 -0.089,0.5416 -0.15598,0.25648 -0.15597,0.25647 -0.31682,0.20967 c -0.17426,0.11532 -0.52763,0.28375 -0.78524,0.3743 l -0.46844,0.16464 -0.59466,0.0354 -0.59465,0.0354 z m 6.55473,0.0191 -0.22606,-0.0342 -0.0883,-0.16507 -0.0883,-0.16505 -0.0736,-1.45276 c -0.0405,-0.79902 -0.0747,-2.03052 -0.076,-2.73667 l -0.002,-1.28389 -0.64846,-0.0566 -0.64847,-0.0565 -0.1529,-0.1118 -0.1529,-0.1118 v -0.64362 -0.64361 l 0.0596,-0.145 0.0595,-0.14501 2.57061,0.0217 2.57062,0.0217 v 0.86302 0.86301 l -0.73972,0.0696 c -0.40685,0.0383 -0.7514,0.0808 -0.76567,0.0944 -0.0143,0.0136 -0.0572,1.18434 -0.0954,2.60158 l -0.0695,2.57679 -0.0996,0.27299 -0.0996,0.273 -0.20075,0.0763 -0.20074,0.0763 -0.30287,-0.0123 c -0.16657,-0.007 -0.40459,-0.0277 -0.52893,-0.0466 z m 5.63611,0.002 c -0.0984,-0.0192 -0.22195,-0.0866 -0.27448,-0.14994 l -0.0955,-0.11511 -0.0719,-0.80461 -0.0719,-0.80462 -0.003,-1.43835 c -0.002,-0.7911 -0.0269,-1.68564 -0.0554,-1.98787 l -0.0519,-0.54951 -0.72833,-0.057 -0.72831,-0.057 v -0.89351 -0.8935 h 2.58903 2.58904 v 0.89432 0.89434 l -0.76782,0.0576 -0.76783,0.0575 -0.054,2.4796 -0.054,2.4796 -0.0782,0.32876 -0.0782,0.32877 -0.17755,0.14384 -0.17754,0.14383 -0.38131,-0.0112 c -0.20972,-0.006 -0.46183,-0.0269 -0.56027,-0.046 z m 10.01724,-0.0248 c -0.36039,-0.0842 -0.36903,-0.0968 -0.43693,-0.64004 l -0.0588,-0.46977 -0.007,-3.30821 -0.007,-3.30821 0.26712,0.004 c 0.14692,0.002 1.00685,0.0349 1.91096,0.0724 l 1.64383,0.0682 0.29133,0.12188 0.29133,0.12188 0.33475,0.38028 0.33473,0.38029 0.11177,0.39124 0.11177,0.39123 -0.009,0.50047 -0.009,0.50045 -0.17341,0.39203 -0.17341,0.39203 -0.24725,0.2816 -0.24725,0.28159 v 0.13575 0.13574 l 0.45404,0.8019 c 0.24973,0.44105 0.5093,0.95849 0.57682,1.14988 l 0.12278,0.34797 -0.22291,0.23266 -0.2229,0.23266 -0.41115,0.20488 -0.41114,0.20489 h -0.21611 -0.21611 l -0.1725,-0.18494 -0.1725,-0.18493 -0.48981,-0.9863 -0.48981,-0.9863 -0.17587,-0.15832 -0.17589,-0.15833 -0.10078,0.10056 -0.10081,0.10056 -0.0272,1.12557 -0.0273,1.12557 -0.089,0.0551 c -0.049,0.0303 -0.25861,0.0789 -0.46586,0.10811 -0.20724,0.0292 -0.4323,0.0653 -0.50011,0.0802 -0.0678,0.0149 -0.24536,-0.002 -0.39457,-0.0363 z m 2.03269,-4.14795 c 0.28913,-0.14951 0.64686,-0.5666 0.71342,-0.8318 l 0.0502,-0.19973 -0.13681,-0.20881 -0.13682,-0.20881 -0.26265,-0.16015 -0.26266,-0.16015 -0.18203,-3.1e-4 -0.18204,-3e-4 -0.0851,0.15897 -0.0851,0.15898 v 0.60355 0.60355 l 0.12795,0.18267 c 0.15161,0.21645 0.14537,0.21557 0.44169,0.0623 z m -46.203639,3.87517 -0.269864,-0.27254 -0.559605,-0.98087 c -0.307788,-0.53949 -0.614385,-1.05467 -0.681326,-1.14486 l -0.121718,-0.16398 -0.06654,0.10767 -0.06655,0.10768 -0.0498,1.16428 -0.0498,1.16429 -0.142698,0.10434 -0.142698,0.10436 h -0.888399 -0.888394 v -3.77202 -3.77202 l 0.117737,-0.0452 c 0.06476,-0.0248 0.335432,-0.0698 0.601502,-0.0999 l 0.483768,-0.0547 0.466986,0.097 0.466984,0.0969 v 1.44624 1.44621 l 0.05361,-0.0536 c 0.02948,-0.0295 0.360514,-0.69216 0.735627,-1.47259 l 0.682021,-1.419 1.052039,0.021 c 0.578625,0.0116 1.101142,0.0392 1.161172,0.0615 l 0.10912,0.0405 -0.42682,0.80149 c -0.234757,0.44082 -0.649545,1.22134 -0.921753,1.73448 l -0.494915,0.93298 0.141461,0.29665 c 0.0778,0.16315 0.466221,0.76043 0.86315,1.32728 0.396917,0.56685 0.784567,1.15367 0.861437,1.30402 l 0.139737,0.27339 -0.127387,0.19442 -0.12739,0.19442 -0.526687,0.25137 -0.52669,0.25137 h -0.293725 -0.293729 z m 2.773128,-0.36443 c 0.0262,-0.30514 0.0656,-0.67365 0.0876,-0.81892 l 0.0401,-0.26414 0.305047,-0.0847 c 0.16778,-0.0467 0.38893,-0.0849 0.491447,-0.0852 l 0.18639,-3.1e-4 -0.022,-1.99241 -0.022,-1.99241 -0.436207,-0.0694 -0.436207,-0.0694 -0.0655,-0.17791 c -0.036,-0.0978 -0.0876,-0.47457 -0.11455,-0.83714 l -0.049,-0.65922 1.701441,0.0242 c 0.93579,0.0133 1.85863,0.0441 2.05076,0.0684 l 0.34931,0.0442 -0.008,0.54977 c -0.005,0.30236 -0.0336,0.64221 -0.0648,0.75523 l -0.0566,0.20548 -0.44894,0.0866 -0.44894,0.0866 v 1.9664 1.9664 l 0.44264,0.084 0.44264,0.084 0.0596,0.16438 c 0.0328,0.0904 0.0858,0.46952 0.1178,0.84247 l 0.0581,0.67807 h -2.10383 -2.103801 l 0.0476,-0.55478 z m 5.072591,-3.24656 0.0213,-3.80136 h 2.13697 2.136978 l 0.0234,0.88355 0.0234,0.88357 H 95.695168 94.5828 v 0.47486 0.47486 l 0.12027,0.17171 0.12027,0.17171 0.516718,0.0574 0.51671,0.0575 0.19555,0.12671 0.19554,0.12673 -0.0448,0.4938 -0.0448,0.49381 -0.0901,0.0901 -0.0902,0.0901 -0.58805,0.0539 -0.588048,0.0539 -0.10956,0.14983 -0.10955,0.14983 0.002,0.25141 7.8e-4,0.25141 0.0778,0.12329 0.0778,0.12329 0.958828,0.0464 0.95885,0.0464 0.11895,0.15903 0.11895,0.15903 -0.0281,0.59036 -0.0281,0.59036 -0.0596,0.0596 c -0.0328,0.0328 -0.23558,0.0885 -0.45073,0.12392 l -0.39119,0.0644 -1.747398,0.005 -1.74739,0.005 0.0213,-3.80135 z m 30.30848,3.51266 -0.0785,-0.20651 -0.005,-3.55376 -0.005,-3.55375 0.31211,-0.0283 c 0.17167,-0.0155 1.09958,-0.002 2.06203,0.0297 l 1.7499,0.0581 0.11995,0.11995 0.11995,0.11995 v 0.55376 0.55376 l -0.11639,0.15954 -0.1164,0.15955 -1.01374,0.0411 -1.01374,0.0411 0.0134,0.56608 0.0134,0.56608 0.10988,0.0696 0.10988,0.0696 0.70711,7.7e-4 0.70711,7.8e-4 -0.0327,0.4315 c -0.018,0.23734 -0.051,0.55042 -0.0733,0.69575 l -0.0406,0.26424 -0.0882,0.0545 c -0.0485,0.03 -0.34646,0.0828 -0.66213,0.11751 l -0.57394,0.063 -0.0881,0.0881 -0.0881,0.0881 v 0.3726 0.3726 l 0.0613,0.0616 0.0613,0.0616 0.93573,0.0411 0.93572,0.0412 0.14279,0.1428 0.14279,0.14281 0.028,0.51473 0.028,0.51472 -0.0737,0.10869 -0.0737,0.10868 -0.32024,0.0743 -0.32024,0.0743 -1.74861,0.002 -1.74859,0.002 -0.0785,-0.2065 z"
       id="path1230"
       sodipodi:nodetypes="cscccccccsscccccsscsscccsscccccccccccccccccsscccscccsscccccccccccccccccccccccccccccccsccccccccccccccccccccssccccsscccsscccccsscccccccccssccccccccccccccccsscccccccccccccccccccccccssccccccsscccsscccccccccccccccccsscsscccsscccccccsscccsscccsscccccccccccccsscccccsscccccccsscccsccccsccccccccccccccssscccccsccssccccscccccccccccccccccsssssccccscccccccccccccccsscccccccccccccccccssssssscccccccccccsssccsscccccccccccsscccccssccscsscsssccccccccsscsccccccsscsscsscccccccssccccsccccccccccccccccccccccccccccccccccsscccccccccsscccccccccccccccsscssccccccccccccccccccccc" /><path
       style="font-size:10.9553px;line-height:1.25;font-family:Hermann;-inkscape-font-specification:'Hermann, Normal';fill:#14c8ff;stroke-width:0.193364"
       d="m 96.588132,209.71728 h -3.680981 v 7.76731 h 1.489921 v -2.66214 h 2.19106 c 0.328659,0 0.635407,-0.13146 0.876424,-0.36152 l 0.766871,-0.76688 c 0.230061,-0.23006 0.361525,-0.54776 0.361525,-0.87642 v -1.08457 c 0,-0.32866 -0.131464,-0.64637 -0.361525,-0.87643 l -0.766871,-0.76687 c -0.241017,-0.24102 -0.547765,-0.37248 -0.876424,-0.37248 z m -0.208151,3.61525 h -1.982909 v -2.12533 h 1.982909 c 0.06573,0 0.131463,0.0329 0.175285,0.0767 l 0.471078,0.48203 c 0.05478,0.0438 0.07669,0.43821 0.07669,0.50395 v 0.33961 c 0,0.0657 -0.02191,0.13146 -0.07669,0.17528 l -0.471078,0.48204 c -0.04382,0.0438 -0.109553,0.0657 -0.175285,0.0657 z m 6.211629,-0.81069 1.63234,-2.80456 h 1.71998 l -2.60736,4.49167 v 3.27564 h -1.48992 v -3.27564 l -2.596404,-4.49167 h 1.719984 z m 4.06441,-1.31464 v -1.48992 h 5.39001 v 1.48992 h -1.95004 v 6.27739 h -1.48992 v -6.27739 z m 10.58281,1.65425 v -3.14417 h 1.48992 v 7.76731 h -1.48992 v -3.13322 h -2.66214 v 3.13322 h -1.48992 v -7.76731 h 1.48992 v 3.14417 z m 6.70462,-3.15512 h -1.74189 c -0.32866,0 -0.64636,0.13146 -0.88738,0.37248 l -0.76687,0.76687 c -0.23006,0.23006 -0.36152,0.54776 -0.36152,0.87642 v 3.74671 c 0,0.32866 0.13146,0.64637 0.36152,0.87643 l 0.76687,0.77782 c 0.23006,0.24102 0.55872,0.36153 0.88738,0.36153 h 1.74189 c 0.32866,0 0.64637,-0.13146 0.87643,-0.36153 l 0.77782,-0.77782 c 0.23007,-0.23006 0.36153,-0.54777 0.36153,-0.87643 v -3.74671 c 0,-0.32866 -0.13146,-0.64636 -0.36153,-0.87642 l -0.77782,-0.76687 c -0.24102,-0.23007 -0.54777,-0.37248 -0.87643,-0.37248 z m 0.44917,5.74057 -0.47108,0.47108 c -0.0548,0.0548 -0.12051,0.0767 -0.18624,0.0767 h -1.33654 c -0.0657,0 -0.12051,-0.0219 -0.17529,-0.0767 l -0.47108,-0.47108 c -0.0548,-0.0548 -0.0767,-0.10955 -0.0767,-0.17528 v -3.34137 c 0,-0.0657 0.0219,-0.13146 0.0767,-0.17528 l 0.47108,-0.48204 c 0.0548,-0.0438 0.10955,-0.0767 0.17529,-0.0767 h 1.33654 c 0.0657,0 0.13147,0.0329 0.18624,0.0767 l 0.47108,0.48204 c 0.0329,0.0548 0.0767,0.10955 0.0767,0.17528 v 3.34137 c 0,0.0657 -0.0329,0.12051 -0.0767,0.17528 z m 7.2743,-5.72962 v 4.74365 l -2.61832,-4.61219 c -0.0438,-0.0767 -0.12051,-0.13146 -0.2191,-0.13146 h -1.33655 v 7.76731 h 1.48992 v -4.74365 l 2.61832,4.62314 c 0.0438,0.0767 0.1205,0.12051 0.20815,0.12051 h 1.3475 v -7.76731 z"
       id="text1234"
       aria-label="PYTHoN" /></g></svg>
