<?xml version="1.0" encoding="UTF-8" standalone="no"?>
<!-- Created with Inkscape (http://www.inkscape.org/) -->

<svg
   width="139.30423mm"
   height="20.465693mm"
   viewBox="0 0 139.30423 20.465693"
   version="1.1"
   id="svg1208"
   inkscape:version="1.4.1 (1:1.4.1+202503302257+93de688d07)"
   sodipodi:docname="Dirschema_logo.svg"
   xmlns:inkscape="http://www.inkscape.org/namespaces/inkscape"
   xmlns:sodipodi="http://sodipodi.sourceforge.net/DTD/sodipodi-0.dtd"
   xmlns="http://www.w3.org/2000/svg"
   xmlns:svg="http://www.w3.org/2000/svg">
  <sodipodi:namedview
     id="namedview1210"
     pagecolor="#ffffff"
     bordercolor="#666666"
     borderopacity="1.0"
     inkscape:pageshadow="2"
     inkscape:pageopacity="0.0"
     inkscape:pagecheckerboard="0"
     inkscape:document-units="mm"
     showgrid="false"
     showguides="true"
     inkscape:guide-bbox="true"
     inkscape:lockguides="false"
     inkscape:zoom="2.2513316"
     inkscape:cx="429.74566"
     inkscape:cy="26.206712"
     inkscape:window-width="2512"
     inkscape:window-height="1403"
     inkscape:window-x="0"
     inkscape:window-y="0"
     inkscape:window-maximized="1"
     inkscape:current-layer="layer1"
     inkscape:showpageshadow="2"
     inkscape:deskcolor="#d1d1d1" />
  <defs
     id="defs1205">
    <inkscape:perspective
       sodipodi:type="inkscape:persp3d"
       inkscape:vp_x="0 : -128.03432 : 1"
       inkscape:vp_y="0 : 1000 : 0"
       inkscape:vp_z="210.00002 : -128.03432 : 1"
       inkscape:persp3d-origin="105.00001 : -177.53432 : 1"
       id="perspective137310" />
  </defs>
  <g
     inkscape:label="Layer 1"
     inkscape:groupmode="layer"
     id="layer1"
     transform="translate(-31.531672,-206.72806)">
    <path
       style="font-size:14.1111px;line-height:1.25;font-family:Hermann;-inkscape-font-specification:'Hermann, Normal';fill:#002864;stroke-width:0.249064"
       d="m 58.360903,216.01175 -0.987777,-0.98778 c -0.310445,-0.31044 -0.705555,-0.47977 -1.128888,-0.47977 h -4.628441 v 0.94544 8.11388 c 0,0.0847 0.02822,0.16933 0.09878,0.22578 l 0.620889,0.62089 c 0.05644,0.0705 0.141111,0.0988 0.225777,0.0988 h 3.682998 c 0.423333,0 0.818443,-0.15523 1.128888,-0.46567 l 0.987777,-1.00189 c 0.282222,-0.29633 0.465666,-0.70555 0.465666,-1.12889 v -4.81188 c 0,-0.42334 -0.169333,-0.83256 -0.465666,-1.12889 z m -1.453444,1.397 v 4.28977 c 0,0.0847 -0.02822,0.15523 -0.08467,0.22578 l -0.620889,0.60678 c -0.05644,0.0705 -0.141111,0.0988 -0.225777,0.0988 h -2.441221 v -6.16655 h 2.441221 c 0.08467,0 0.169333,0.0423 0.225777,0.0988 l 0.620889,0.62089 c 0.05644,0.0564 0.08467,0.14111 0.08467,0.22578 z m 5.333965,-2.86455 h -1.91911 v 10.00477 h 1.91911 z m 7.888084,6.73099 1.058333,-1.07244 c 0.310444,-0.29634 0.479777,-0.70556 0.479777,-1.12889 v -1.91911 c 0,-0.43745 -0.169333,-0.83256 -0.479777,-1.143 l -0.987777,-0.98778 c -0.296333,-0.29633 -0.705555,-0.46566 -1.128888,-0.46566 H 64.49918 v 9.99066 h 1.919109 v -2.87867 h 1.721554 l 1.608666,2.87867 h 2.18722 z m -3.711219,-4.79777 h 2.384776 c 0.08467,0 0.169333,0.0282 0.225778,0.0988 l 0.620888,0.60678 c 0.05644,0.0706 0.09878,0.14111 0.09878,0.22578 v 1.397 c 0,0.0847 -0.04233,0.16933 -0.09878,0.22578 l -0.620888,0.62088 c -0.05644,0.0564 -0.141111,0.0988 -0.225778,0.0988 h -2.384776 z"
       id="text52559-6-0-1-7-0-1-9-5-3-0-2-1-8-4"
       aria-label="DIR" />
    <path
       style="font-size:14.1111px;line-height:1.25;font-family:Hermann;-inkscape-font-specification:'Hermann, Normal';fill:#14c8ff;stroke-width:0.249064"
       d="m 78.695666,224.56308 h -2.82222 c -0.423333,0 -0.818444,-0.16934 -1.128888,-0.47978 l -1.128888,-1.11478 1.368776,-1.36877 0.931333,0.94544 c 0.05644,0.0564 0.141111,0.0988 0.225777,0.0988 h 2.285999 c 0.08467,0 0.169333,-0.0423 0.225777,-0.0988 l 0.620889,-0.62089 c 0.05644,-0.0564 0.09878,-0.14111 0.09878,-0.22578 v -0.32455 c 0,-0.15522 -0.09878,-0.28222 -0.239888,-0.31045 l -4.148664,-1.15711 c -0.479777,-0.127 -0.888999,-0.42333 -1.185332,-0.80433 -0.296333,-0.39511 -0.451555,-0.87489 -0.451555,-1.35466 v -0.59267 c 0,-0.42333 0.155222,-0.83256 0.465666,-1.143 l 0.987777,-0.98778 c 0.296333,-0.29633 0.705555,-0.46566 1.128888,-0.46566 h 2.82222 c 0.423333,0 0.832555,0.16933 1.128888,0.46566 l 1.128888,1.12889 -1.368777,1.35467 -0.931332,-0.93134 c -0.05644,-0.0705 -0.141111,-0.0988 -0.225778,-0.0988 h -2.285998 c -0.08467,0 -0.169333,0.0282 -0.225778,0.0988 l -0.620888,0.60678 c -0.05645,0.0706 -0.08467,0.14111 -0.08467,0.22578 v 0.33867 c 0,0.14111 0.08467,0.26811 0.225778,0.31044 l 4.148663,1.15711 c 0.479778,0.127 0.889,0.40922 1.185333,0.80433 0.296333,0.381 0.465666,0.86078 0.465666,1.35467 v 0.59266 c 0,0.42334 -0.169333,0.83256 -0.479777,1.12889 l -0.987777,0.98778 c -0.296333,0.31044 -0.705555,0.47978 -1.128888,0.47978 z m 9.327414,-2.032 c -0.05644,0.0564 -0.141111,0.0988 -0.225777,0.0988 h -2.003776 c -0.08467,0 -0.169334,-0.0282 -0.225778,-0.0847 l -0.620888,-0.62089 c -0.05644,-0.0564 -0.09878,-0.14111 -0.09878,-0.22578 v -4.28977 c 0,-0.0847 0.04233,-0.15522 0.09878,-0.22578 l 0.620888,-0.60678 c 0.05644,-0.0705 0.141111,-0.0988 0.225778,-0.0988 h 2.003776 c 0.08467,0 0.169333,0.0423 0.225777,0.0988 l 0.846666,0.84667 1.368777,-1.35467 -1.044221,-1.03011 c -0.296333,-0.31044 -0.705555,-0.47977 -1.128888,-0.47977 h -2.539998 c -0.423333,0 -0.832555,0.16933 -1.128888,0.46566 l -0.987777,0.98778 c -0.310445,0.31044 -0.479778,0.70555 -0.479778,1.143 v 4.81188 c 0,0.42334 0.169333,0.83256 0.479778,1.12889 l 0.987777,0.98778 c 0.296333,0.31044 0.705555,0.46567 1.128888,0.46567 h 2.539998 c 0.423333,0 0.832555,-0.16934 1.128888,-0.47978 l 1.044221,-1.03011 -1.368777,-1.35467 z m 9.242767,-3.937 v -4.04988 h 1.919109 v 10.00477 h -1.919109 v -4.03578 h -3.428998 v 4.03578 H 91.91774 V 214.5442 h 1.919109 v 4.04988 z m 5.573863,-2.11666 v 2.11666 h 3.65478 v 1.91911 h -3.65478 v 2.11667 h 4.37444 v 1.91911 h -5.36221 c -0.0847,0 -0.16934,-0.0282 -0.22578,-0.0847 l -0.62089,-0.62089 c -0.0564,-0.0564 -0.0847,-0.14111 -0.0847,-0.22578 v -8.12799 c 0,-0.0847 0.0282,-0.15522 0.0847,-0.22578 l 0.62089,-0.62089 c 0.0564,-0.0564 0.14111,-0.0847 0.22578,-0.0847 h 5.36221 v 1.91911 z m 12.65765,-1.91911 -2.32833,4.88244 -2.32833,-4.88244 h -1.91911 v 9.99066 h 1.91911 v -5.53156 l 1.34055,2.83634 c 0.0423,0.0847 0.127,0.14111 0.22578,0.14111 h 1.50989 c 0.0988,0 0.18344,-0.0564 0.22577,-0.14111 l 1.35467,-2.83634 v 5.53156 h 1.91911 v -9.99066 z m 9.5532,8.04332 0.69144,1.94734 h 2.032 l -3.44311,-9.79311 c -0.0423,-0.127 -0.16933,-0.21166 -0.29633,-0.21166 h -1.67922 c -0.14111,0 -0.254,0.0847 -0.29633,0.22577 l -3.44311,9.779 h 2.032 l 0.69144,-1.94734 z m -1.86266,-5.29166 1.18533,3.37255 h -2.35656 z"
       id="text52559-6-0-1-7-0-1-9-5-9-7-6-4-5-2-0"
       aria-label="SCHEMA" />
    <text
       xml:space="preserve"
       style="font-style:normal;font-weight:normal;font-size:10.5833px;line-height:1.25;font-family:sans-serif;fill:#000000;fill-opacity:1;stroke:none;stroke-width:0.264583"
       x="-372.44165"
       y="388.89365"
       id="text212478"><tspan
         sodipodi:role="line"
         id="tspan212476"
         style="stroke-width:0.264583"
         x="-372.44165"
         y="388.89365" /></text>
    <g
       id="g4642"
       transform="matrix(0.37635929,0,0,0.37635929,-262.34487,191.77534)"
       inkscape:export-filename="/home/v.hofmann/WORKING/Logos/DirSchema_Logo.png"
       inkscape:export-xdpi="879.35327"
       inkscape:export-ydpi="879.35327">
      <g
         id="g4630"
         transform="matrix(1.5665835,0,0,1.5665835,673.21764,-140.35161)"
         style="fill:#005aa0;fill-opacity:1;stroke:#002864;stroke-width:1.04709;stroke-miterlimit:4;stroke-dasharray:none;stroke-opacity:1">
        <rect
           style="fill:#002864;fill-opacity:1;stroke:#002864;stroke-width:0.598713;stroke-linecap:butt;stroke-miterlimit:4;stroke-dasharray:none;stroke-opacity:1"
           id="rect4616"
           width="15.943884"
           height="20.882372"
           x="69.073608"
           y="115.31378" />
        <g
           id="g4628"
           transform="translate(-0.37092454,0.54327671)"
           style="fill:#8cb423;fill-opacity:1;stroke:#002864;stroke-width:0.25949873;stroke-miterlimit:4;stroke-dasharray:none;stroke-opacity:1">
          <rect
             style="fill:#14c8ff;fill-opacity:1;stroke:#002864;stroke-width:0.25949873;stroke-linecap:round;stroke-miterlimit:4;stroke-dasharray:none;stroke-opacity:1"
             id="rect4618"
             width="11.319204"
             height="1.8730607"
             x="71.756874"
             y="117.18848" />
          <rect
             style="fill:#14c8ff;fill-opacity:1;stroke:#002864;stroke-width:0.25949873;stroke-linecap:round;stroke-miterlimit:4;stroke-dasharray:none;stroke-opacity:1"
             id="rect4620"
             width="11.319204"
             height="1.8730607"
             x="71.756874"
             y="120.765" />
          <rect
             style="fill:#14c8ff;fill-opacity:1;stroke:#002864;stroke-width:0.25949873;stroke-linecap:round;stroke-miterlimit:4;stroke-dasharray:none;stroke-opacity:1"
             id="rect4622"
             width="11.319204"
             height="1.8730607"
             x="71.756874"
             y="124.34147" />
          <rect
             style="fill:#14c8ff;fill-opacity:1;stroke:#002864;stroke-width:0.25949873;stroke-linecap:round;stroke-miterlimit:4;stroke-dasharray:none;stroke-opacity:1"
             id="rect4624"
             width="11.319204"
             height="1.8730607"
             x="71.756874"
             y="127.91798" />
          <rect
             style="fill:#14c8ff;fill-opacity:1;stroke:#002864;stroke-width:0.25949873;stroke-linecap:round;stroke-miterlimit:4;stroke-dasharray:none;stroke-opacity:1"
             id="rect4626"
             width="11.319204"
             height="1.8730607"
             x="71.756874"
             y="131.49451" />
        </g>
      </g>
      <g
         id="g4640"
         transform="matrix(1.5665835,0,0,1.5665835,686.03578,-166.14085)"
         style="stroke:#002864;stroke-width:1.04709;stroke-miterlimit:4;stroke-dasharray:none;stroke-opacity:1">
        <g
           id="g4638"
           style="stroke:#002864;stroke-opacity:1">
          <rect
             style="fill:#14c8ff;fill-opacity:1;stroke:#002864;stroke-width:0.598336;stroke-linecap:butt;stroke-miterlimit:4;stroke-dasharray:none;stroke-opacity:1"
             id="rect4632"
             width="15.943884"
             height="20.882372"
             x="68.84436"
             y="140.69611" />
          <path
             style="font-size:12.8098px;line-height:1.25;-inkscape-font-specification:'sans-serif, Normal';fill:#002864;stroke-width:0.335324"
             d="m 86.16327,137.29376 v 0.90068 h -0.387797 q -1.557441,0 -2.089098,-0.46285 -0.525402,-0.46285 -0.525402,-1.84516 v -1.49489 q 0,-0.94448 -0.337759,-1.30725 -0.337758,-0.36278 -1.225938,-0.36278 h -0.381541 v -0.89444 h 0.381541 q 0.894435,0 1.225938,-0.35652 0.337759,-0.36278 0.337759,-1.29474 v -1.50115 q 0,-1.38231 0.525402,-1.83891 0.531657,-0.46285 2.089098,-0.46285 h 0.387797 v 0.89444 h -0.425326 q -0.881924,0 -1.15088,0.27521 -0.268956,0.27521 -0.268956,1.15713 v 1.55119 q 0,0.982 -0.28772,1.42609 -0.281465,0.44409 -0.969492,0.60046 0.694281,0.16888 0.975747,0.61297 0.281465,0.44409 0.281465,1.41983 v 1.55119 q 0,0.88192 0.268956,1.15714 0.268956,0.27521 1.15088,0.27521 z m 3.20245,0 h 0.437835 q 0.87567,0 1.138371,-0.26896 0.268956,-0.26896 0.268956,-1.16339 v -1.55119 q 0,-0.97574 0.281465,-1.41983 0.281465,-0.44409 0.975746,-0.61297 -0.694281,-0.15637 -0.975746,-0.60046 -0.281465,-0.44409 -0.281465,-1.42609 v -1.55119 q 0,-0.88818 -0.268956,-1.15713 -0.262701,-0.27521 -1.138371,-0.27521 H 89.36572 v -0.89444 h 0.394051 q 1.557442,0 2.076589,0.46285 0.525402,0.4566 0.525402,1.83891 v 1.50115 q 0,0.93196 0.337758,1.29474 0.337759,0.35652 1.225938,0.35652 h 0.387797 v 0.89444 h -0.387797 q -0.888179,0 -1.225938,0.36278 -0.337758,0.36277 -0.337758,1.30725 v 1.49489 q 0,1.38231 -0.525402,1.84516 -0.519147,0.46285 -2.076589,0.46285 H 89.36572 Z"
             id="text4636"
             transform="scale(0.87525491,1.1425243)"
             aria-label="{}" />
        </g>
      </g>
    </g>
    <path
       style="font-size:14.1111px;line-height:1.25;font-family:Hermann;-inkscape-font-specification:'Hermann, Normal';fill:#14c8ff;stroke-width:0.249064"
       d="m 58.360903,240.11585 -0.987777,-0.98778 c -0.310445,-0.31045 -0.705555,-0.47978 -1.128888,-0.47978 h -4.628441 v 0.94544 8.11389 c 0,0.0847 0.02822,0.16933 0.09878,0.22577 l 0.620889,0.62089 c 0.05644,0.0706 0.141111,0.0988 0.225777,0.0988 h 3.682998 c 0.423333,0 0.818443,-0.15522 1.128888,-0.46567 l 0.987777,-1.00188 c 0.282222,-0.29634 0.465666,-0.70556 0.465666,-1.12889 v -4.81189 c 0,-0.42333 -0.169333,-0.83255 -0.465666,-1.12888 z m -1.453444,1.39699 v 4.28978 c 0,0.0847 -0.02822,0.15522 -0.08467,0.22578 l -0.620889,0.60677 c -0.05644,0.0706 -0.141111,0.0988 -0.225777,0.0988 h -2.441221 v -6.16655 h 2.441221 c 0.08467,0 0.169333,0.0423 0.225777,0.0988 l 0.620889,0.62089 c 0.05644,0.0564 0.08467,0.14111 0.08467,0.22577 z m 5.333965,-2.86455 h -1.91911 v 10.00477 h 1.91911 z m 7.888084,6.731 1.058333,-1.07245 c 0.310444,-0.29633 0.479777,-0.70555 0.479777,-1.12889 v -1.91911 c 0,-0.43744 -0.169333,-0.83255 -0.479777,-1.14299 l -0.987777,-0.98778 c -0.296333,-0.29633 -0.705555,-0.46567 -1.128888,-0.46567 H 64.49918 v 9.99066 h 1.919109 v -2.87866 h 1.721554 l 1.608666,2.87866 h 2.18722 z m -3.711219,-4.79778 h 2.384776 c 0.08467,0 0.169333,0.0282 0.225778,0.0988 l 0.620888,0.60678 c 0.05644,0.0705 0.09878,0.14111 0.09878,0.22577 v 1.397 c 0,0.0847 -0.04233,0.16934 -0.09878,0.22578 l -0.620888,0.62089 c -0.05644,0.0564 -0.141111,0.0988 -0.225778,0.0988 h -2.384776 z"
       id="text1"
       aria-label="DIR" />
    <path
       style="font-size:14.1111px;line-height:1.25;font-family:Hermann;-inkscape-font-specification:'Hermann, Normal';fill:#f9f9f9;stroke-width:0.249064"
       d="m 78.695666,248.66717 h -2.82222 c -0.423333,0 -0.818444,-0.16933 -1.128888,-0.47978 l -1.128888,-1.11477 1.368776,-1.36878 0.931333,0.94544 c 0.05644,0.0564 0.141111,0.0988 0.225777,0.0988 h 2.285999 c 0.08467,0 0.169333,-0.0423 0.225777,-0.0988 l 0.620889,-0.62088 c 0.05644,-0.0565 0.09878,-0.14111 0.09878,-0.22578 v -0.32456 c 0,-0.15522 -0.09878,-0.28222 -0.239888,-0.31044 l -4.148664,-1.15711 c -0.479777,-0.127 -0.888999,-0.42333 -1.185332,-0.80433 -0.296333,-0.39511 -0.451555,-0.87489 -0.451555,-1.35467 v -0.59267 c 0,-0.42333 0.155222,-0.83255 0.465666,-1.14299 l 0.987777,-0.98778 c 0.296333,-0.29633 0.705555,-0.46567 1.128888,-0.46567 h 2.82222 c 0.423333,0 0.832555,0.16934 1.128888,0.46567 l 1.128888,1.12889 -1.368777,1.35466 -0.931332,-0.93133 c -0.05644,-0.0706 -0.141111,-0.0988 -0.225778,-0.0988 h -2.285998 c -0.08467,0 -0.169333,0.0282 -0.225778,0.0988 l -0.620888,0.60678 c -0.05645,0.0705 -0.08467,0.14111 -0.08467,0.22577 v 0.33867 c 0,0.14111 0.08467,0.26811 0.225778,0.31044 l 4.148663,1.15712 c 0.479778,0.12699 0.889,0.40922 1.185333,0.80433 0.296333,0.381 0.465666,0.86077 0.465666,1.35466 v 0.59267 c 0,0.42333 -0.169333,0.83255 -0.479777,1.12889 l -0.987777,0.98777 c -0.296333,0.31045 -0.705555,0.47978 -1.128888,0.47978 z m 9.327414,-2.032 c -0.05644,0.0565 -0.141111,0.0988 -0.225777,0.0988 h -2.003776 c -0.08467,0 -0.169334,-0.0282 -0.225778,-0.0847 l -0.620888,-0.62088 c -0.05644,-0.0565 -0.09878,-0.14111 -0.09878,-0.22578 v -4.28978 c 0,-0.0847 0.04233,-0.15522 0.09878,-0.22577 l 0.620888,-0.60678 c 0.05644,-0.0706 0.141111,-0.0988 0.225778,-0.0988 h 2.003776 c 0.08467,0 0.169333,0.0423 0.225777,0.0988 l 0.846666,0.84667 1.368777,-1.35467 -1.044221,-1.03011 c -0.296333,-0.31044 -0.705555,-0.47978 -1.128888,-0.47978 h -2.539998 c -0.423333,0 -0.832555,0.16934 -1.128888,0.46567 l -0.987777,0.98778 c -0.310445,0.31044 -0.479778,0.70555 -0.479778,1.14299 v 4.81189 c 0,0.42333 0.169333,0.83255 0.479778,1.12889 l 0.987777,0.98777 c 0.296333,0.31045 0.705555,0.46567 1.128888,0.46567 h 2.539998 c 0.423333,0 0.832555,-0.16933 1.128888,-0.47978 l 1.044221,-1.03011 -1.368777,-1.35466 z m 9.242767,-3.93699 v -4.04989 h 1.919109 v 10.00477 h -1.919109 v -4.03577 h -3.428998 v 4.03577 H 91.91774 v -10.00477 h 1.919109 v 4.04989 z m 5.573863,-2.11667 v 2.11667 h 3.65478 v 1.91911 h -3.65478 v 2.11666 h 4.37444 v 1.91911 h -5.36221 c -0.0847,0 -0.16934,-0.0282 -0.22578,-0.0847 l -0.62089,-0.62088 c -0.0564,-0.0564 -0.0847,-0.14112 -0.0847,-0.22578 v -8.128 c 0,-0.0847 0.0282,-0.15522 0.0847,-0.22577 l 0.62089,-0.62089 c 0.0564,-0.0565 0.14111,-0.0847 0.22578,-0.0847 h 5.36221 v 1.91911 z m 12.65765,-1.91911 -2.32833,4.88244 -2.32833,-4.88244 h -1.91911 v 9.99066 h 1.91911 v -5.53155 l 1.34055,2.83633 c 0.0423,0.0847 0.127,0.14111 0.22578,0.14111 h 1.50989 c 0.0988,0 0.18344,-0.0564 0.22577,-0.14111 l 1.35467,-2.83633 v 5.53155 h 1.91911 v -9.99066 z m 9.5532,8.04333 0.69144,1.94733 h 2.032 l -3.44311,-9.7931 c -0.0423,-0.127 -0.16933,-0.21167 -0.29633,-0.21167 h -1.67922 c -0.14111,0 -0.254,0.0847 -0.29633,0.22578 l -3.44311,9.77899 h 2.032 l 0.69144,-1.94733 z m -1.86266,-5.29166 1.18533,3.37255 h -2.35656 z"
       id="text2"
       aria-label="SCHEMA" />
    <g
       id="g20"
       transform="matrix(0.37635929,0,0,0.37635929,-262.34487,215.87943)"
       inkscape:export-filename="/home/v.hofmann/WORKING/Logos/DirSchema_Logo.png"
       inkscape:export-xdpi="879.35327"
       inkscape:export-ydpi="879.35327">
      <g
         id="g17"
         transform="matrix(1.5665835,0,0,1.5665835,673.21764,-140.35161)"
         style="fill:#ffffff;fill-opacity:1;stroke:#14c8ff;stroke-width:1.04647528;stroke-miterlimit:4;stroke-dasharray:none;stroke-opacity:1">
        <rect
           style="fill:#f9f9f9;fill-opacity:1;stroke:#14c8ff;stroke-width:1.04647528;stroke-linecap:butt;stroke-miterlimit:4;stroke-dasharray:none;stroke-opacity:1"
           id="rect11"
           width="15.943884"
           height="20.882372"
           x="69.073608"
           y="115.31378" />
        <g
           id="g16"
           transform="translate(-0.37092454,0.54327671)"
           style="fill:#14c8ff;fill-opacity:1;stroke:#f9f9f9;stroke-width:0.36804722;stroke-miterlimit:4;stroke-dasharray:none;stroke-opacity:1">
          <rect
             style="fill:#14c8ff;fill-opacity:1;stroke:#f9f9f9;stroke-width:0.36804722;stroke-linecap:round;stroke-miterlimit:4;stroke-dasharray:none;stroke-opacity:1"
             id="rect12"
             width="11.319204"
             height="1.8730607"
             x="71.756874"
             y="117.18848" />
          <rect
             style="fill:#14c8ff;fill-opacity:1;stroke:#f9f9f9;stroke-width:0.36804722;stroke-linecap:round;stroke-miterlimit:4;stroke-dasharray:none;stroke-opacity:1"
             id="rect13"
             width="11.319204"
             height="1.8730607"
             x="71.756874"
             y="120.765" />
          <rect
             style="fill:#14c8ff;fill-opacity:1;stroke:#f9f9f9;stroke-width:0.36804722;stroke-linecap:round;stroke-miterlimit:4;stroke-dasharray:none;stroke-opacity:1"
             id="rect14"
             width="11.319204"
             height="1.8730607"
             x="71.756874"
             y="124.34147" />
          <rect
             style="fill:#14c8ff;fill-opacity:1;stroke:#f9f9f9;stroke-width:0.36804722;stroke-linecap:round;stroke-miterlimit:4;stroke-dasharray:none;stroke-opacity:1"
             id="rect15"
             width="11.319204"
             height="1.8730607"
             x="71.756874"
             y="127.91798" />
          <rect
             style="fill:#14c8ff;fill-opacity:1;stroke:#f9f9f9;stroke-width:0.36804722;stroke-linecap:round;stroke-miterlimit:4;stroke-dasharray:none;stroke-opacity:1"
             id="rect16"
             width="11.319204"
             height="1.8730607"
             x="71.756874"
             y="131.49451" />
        </g>
      </g>
      <g
         id="g19"
         transform="matrix(1.5665835,0,0,1.5665835,686.03578,-166.14085)"
         style="stroke:#002864;stroke-width:1.04709;stroke-miterlimit:4;stroke-dasharray:none;stroke-opacity:1">
        <g
           id="g18"
           style="stroke:#002864;stroke-opacity:1">
          <rect
             style="fill:#14c8ff;fill-opacity:1;stroke:#ffffff;stroke-width:0.598336;stroke-linecap:butt;stroke-miterlimit:4;stroke-dasharray:none;stroke-opacity:1"
             id="rect17"
             width="15.943884"
             height="20.882372"
             x="68.84436"
             y="140.69611" />
          <path
             style="font-size:12.8098px;line-height:1.25;-inkscape-font-specification:'sans-serif, Normal';fill:#ffffff;stroke:#ffffff;stroke-width:0.335822"
             d="m 86.16327,137.29376 v 0.90068 h -0.387797 q -1.557441,0 -2.089098,-0.46285 -0.525402,-0.46285 -0.525402,-1.84516 v -1.49489 q 0,-0.94448 -0.337759,-1.30725 -0.337758,-0.36278 -1.225938,-0.36278 h -0.381541 v -0.89444 h 0.381541 q 0.894435,0 1.225938,-0.35652 0.337759,-0.36278 0.337759,-1.29474 v -1.50115 q 0,-1.38231 0.525402,-1.83891 0.531657,-0.46285 2.089098,-0.46285 h 0.387797 v 0.89444 h -0.425326 q -0.881924,0 -1.15088,0.27521 -0.268956,0.27521 -0.268956,1.15713 v 1.55119 q 0,0.982 -0.28772,1.42609 -0.281465,0.44409 -0.969492,0.60046 0.694281,0.16888 0.975747,0.61297 0.281465,0.44409 0.281465,1.41983 v 1.55119 q 0,0.88192 0.268956,1.15714 0.268956,0.27521 1.15088,0.27521 z m 3.20245,0 h 0.437835 q 0.87567,0 1.138371,-0.26896 0.268956,-0.26896 0.268956,-1.16339 v -1.55119 q 0,-0.97574 0.281465,-1.41983 0.281465,-0.44409 0.975746,-0.61297 -0.694281,-0.15637 -0.975746,-0.60046 -0.281465,-0.44409 -0.281465,-1.42609 v -1.55119 q 0,-0.88818 -0.268956,-1.15713 -0.262701,-0.27521 -1.138371,-0.27521 H 89.36572 v -0.89444 h 0.394051 q 1.557442,0 2.076589,0.46285 0.525402,0.4566 0.525402,1.83891 v 1.50115 q 0,0.93196 0.337758,1.29474 0.337759,0.35652 1.225938,0.35652 h 0.387797 v 0.89444 h -0.387797 q -0.888179,0 -1.225938,0.36278 -0.337758,0.36277 -0.337758,1.30725 v 1.49489 q 0,1.38231 -0.525402,1.84516 -0.519147,0.46285 -2.076589,0.46285 H 89.36572 Z"
             id="text17"
             transform="scale(0.87525491,1.1425243)"
             aria-label="{}" />
        </g>
      </g>
    </g>
    <g
       id="g29"
       transform="matrix(0.37635929,0,0,0.37635929,-137.56573,215.87943)"
       inkscape:export-filename="/home/v.hofmann/WORKING/Logos/DirSchema_Logo.png"
       inkscape:export-xdpi="879.35327"
       inkscape:export-ydpi="879.35327">
      <g
         id="g26"
         transform="matrix(1.5665835,0,0,1.5665835,673.21764,-140.35161)"
         style="fill:#ffffff;fill-opacity:1;stroke:#14c8ff;stroke-width:1.04648;stroke-miterlimit:4;stroke-dasharray:none;stroke-opacity:1">
        <rect
           style="fill:#f9f9f9;fill-opacity:1;stroke:#14c8ff;stroke-width:1.04648;stroke-linecap:butt;stroke-miterlimit:4;stroke-dasharray:none;stroke-opacity:1"
           id="rect20"
           width="15.943884"
           height="20.882372"
           x="69.073608"
           y="115.31378" />
        <g
           id="g25"
           transform="translate(-0.37092454,0.54327671)"
           style="fill:#14c8ff;fill-opacity:1;stroke:#f9f9f9;stroke-width:0.368047;stroke-miterlimit:4;stroke-dasharray:none;stroke-opacity:1">
          <rect
             style="fill:#14c8ff;fill-opacity:1;stroke:#f9f9f9;stroke-width:0.368047;stroke-linecap:round;stroke-miterlimit:4;stroke-dasharray:none;stroke-opacity:1"
             id="rect21"
             width="11.319204"
             height="1.8730607"
             x="71.756874"
             y="117.18848" />
          <rect
             style="fill:#14c8ff;fill-opacity:1;stroke:#f9f9f9;stroke-width:0.368047;stroke-linecap:round;stroke-miterlimit:4;stroke-dasharray:none;stroke-opacity:1"
             id="rect22"
             width="11.319204"
             height="1.8730607"
             x="71.756874"
             y="120.765" />
          <rect
             style="fill:#14c8ff;fill-opacity:1;stroke:#f9f9f9;stroke-width:0.368047;stroke-linecap:round;stroke-miterlimit:4;stroke-dasharray:none;stroke-opacity:1"
             id="rect23"
             width="11.319204"
             height="1.8730607"
             x="71.756874"
             y="124.34147" />
          <rect
             style="fill:#14c8ff;fill-opacity:1;stroke:#f9f9f9;stroke-width:0.368047;stroke-linecap:round;stroke-miterlimit:4;stroke-dasharray:none;stroke-opacity:1"
             id="rect24"
             width="11.319204"
             height="1.8730607"
             x="71.756874"
             y="127.91798" />
          <rect
             style="fill:#14c8ff;fill-opacity:1;stroke:#f9f9f9;stroke-width:0.368047;stroke-linecap:round;stroke-miterlimit:4;stroke-dasharray:none;stroke-opacity:1"
             id="rect25"
             width="11.319204"
             height="1.8730607"
             x="71.756874"
             y="131.49451" />
        </g>
      </g>
      <g
         id="g28"
         transform="matrix(1.5665835,0,0,1.5665835,686.03578,-166.14085)"
         style="stroke:#002864;stroke-width:1.04709;stroke-miterlimit:4;stroke-dasharray:none;stroke-opacity:1">
        <g
           id="g27"
           style="stroke:#002864;stroke-opacity:1">
          <rect
             style="fill:#14c8ff;fill-opacity:1;stroke:#ffffff;stroke-width:0.598336;stroke-linecap:butt;stroke-miterlimit:4;stroke-dasharray:none;stroke-opacity:1"
             id="rect26"
             width="15.943884"
             height="20.882372"
             x="68.84436"
             y="140.69611" />
          <path
             style="font-size:12.8098px;line-height:1.25;-inkscape-font-specification:'sans-serif, Normal';fill:#ffffff;stroke:#ffffff;stroke-width:0.335822"
             d="m 86.16327,137.29376 v 0.90068 h -0.387797 q -1.557441,0 -2.089098,-0.46285 -0.525402,-0.46285 -0.525402,-1.84516 v -1.49489 q 0,-0.94448 -0.337759,-1.30725 -0.337758,-0.36278 -1.225938,-0.36278 h -0.381541 v -0.89444 h 0.381541 q 0.894435,0 1.225938,-0.35652 0.337759,-0.36278 0.337759,-1.29474 v -1.50115 q 0,-1.38231 0.525402,-1.83891 0.531657,-0.46285 2.089098,-0.46285 h 0.387797 v 0.89444 h -0.425326 q -0.881924,0 -1.15088,0.27521 -0.268956,0.27521 -0.268956,1.15713 v 1.55119 q 0,0.982 -0.28772,1.42609 -0.281465,0.44409 -0.969492,0.60046 0.694281,0.16888 0.975747,0.61297 0.281465,0.44409 0.281465,1.41983 v 1.55119 q 0,0.88192 0.268956,1.15714 0.268956,0.27521 1.15088,0.27521 z m 3.20245,0 h 0.437835 q 0.87567,0 1.138371,-0.26896 0.268956,-0.26896 0.268956,-1.16339 v -1.55119 q 0,-0.97574 0.281465,-1.41983 0.281465,-0.44409 0.975746,-0.61297 -0.694281,-0.15637 -0.975746,-0.60046 -0.281465,-0.44409 -0.281465,-1.42609 v -1.55119 q 0,-0.88818 -0.268956,-1.15713 -0.262701,-0.27521 -1.138371,-0.27521 H 89.36572 v -0.89444 h 0.394051 q 1.557442,0 2.076589,0.46285 0.525402,0.4566 0.525402,1.83891 v 1.50115 q 0,0.93196 0.337758,1.29474 0.337759,0.35652 1.225938,0.35652 h 0.387797 v 0.89444 h -0.387797 q -0.888179,0 -1.225938,0.36278 -0.337758,0.36277 -0.337758,1.30725 v 1.49489 q 0,1.38231 -0.525402,1.84516 -0.519147,0.46285 -2.076589,0.46285 H 89.36572 Z"
             id="text26"
             transform="scale(0.87525491,1.1425243)"
             aria-label="{}" />
        </g>
      </g>
    </g>
    <g
       id="g34"
       transform="matrix(0.37635929,0,0,0.37635929,-139.99755,193.44978)"
       inkscape:export-filename="DirSchema_Logo_noText.png"
       inkscape:export-xdpi="879.35327"
       inkscape:export-ydpi="879.35327">
      <g
         id="g31"
         transform="matrix(1.5665835,0,0,1.5665835,673.21764,-140.35161)"
         style="fill:#005aa0;fill-opacity:1;stroke:#002864;stroke-width:1.04709;stroke-miterlimit:4;stroke-dasharray:none;stroke-opacity:1">
        <rect
           style="fill:#002864;fill-opacity:1;stroke:#002864;stroke-width:0.598713;stroke-linecap:butt;stroke-miterlimit:4;stroke-dasharray:none;stroke-opacity:1"
           id="rect10"
           width="15.943884"
           height="20.882372"
           x="69.073608"
           y="115.31378" />
        <g
           id="g30"
           transform="translate(-0.37092454,0.54327671)"
           style="fill:#8cb423;fill-opacity:1;stroke:#002864;stroke-width:0.259499;stroke-miterlimit:4;stroke-dasharray:none;stroke-opacity:1">
          <rect
             style="fill:#14c8ff;fill-opacity:1;stroke:#002864;stroke-width:0.259499;stroke-linecap:round;stroke-miterlimit:4;stroke-dasharray:none;stroke-opacity:1"
             id="rect18"
             width="11.319204"
             height="1.8730607"
             x="71.756874"
             y="117.18848" />
          <rect
             style="fill:#14c8ff;fill-opacity:1;stroke:#002864;stroke-width:0.259499;stroke-linecap:round;stroke-miterlimit:4;stroke-dasharray:none;stroke-opacity:1"
             id="rect19"
             width="11.319204"
             height="1.8730607"
             x="71.756874"
             y="120.765" />
          <rect
             style="fill:#14c8ff;fill-opacity:1;stroke:#002864;stroke-width:0.259499;stroke-linecap:round;stroke-miterlimit:4;stroke-dasharray:none;stroke-opacity:1"
             id="rect27"
             width="11.319204"
             height="1.8730607"
             x="71.756874"
             y="124.34147" />
          <rect
             style="fill:#14c8ff;fill-opacity:1;stroke:#002864;stroke-width:0.259499;stroke-linecap:round;stroke-miterlimit:4;stroke-dasharray:none;stroke-opacity:1"
             id="rect28"
             width="11.319204"
             height="1.8730607"
             x="71.756874"
             y="127.91798" />
          <rect
             style="fill:#14c8ff;fill-opacity:1;stroke:#002864;stroke-width:0.259499;stroke-linecap:round;stroke-miterlimit:4;stroke-dasharray:none;stroke-opacity:1"
             id="rect29"
             width="11.319204"
             height="1.8730607"
             x="71.756874"
             y="131.49451" />
        </g>
      </g>
      <g
         id="g33"
         transform="matrix(1.5665835,0,0,1.5665835,686.03578,-166.14085)"
         style="stroke:#002864;stroke-width:1.04709;stroke-miterlimit:4;stroke-dasharray:none;stroke-opacity:1">
        <g
           id="g32"
           style="stroke:#002864;stroke-opacity:1">
          <rect
             style="fill:#14c8ff;fill-opacity:1;stroke:#002864;stroke-width:0.598336;stroke-linecap:butt;stroke-miterlimit:4;stroke-dasharray:none;stroke-opacity:1"
             id="rect31"
             width="15.943884"
             height="20.882372"
             x="68.84436"
             y="140.69611" />
          <path
             style="font-size:12.8098px;line-height:1.25;-inkscape-font-specification:'sans-serif, Normal';fill:#002864;stroke-width:0.335324"
             d="m 86.16327,137.29376 v 0.90068 h -0.387797 q -1.557441,0 -2.089098,-0.46285 -0.525402,-0.46285 -0.525402,-1.84516 v -1.49489 q 0,-0.94448 -0.337759,-1.30725 -0.337758,-0.36278 -1.225938,-0.36278 h -0.381541 v -0.89444 h 0.381541 q 0.894435,0 1.225938,-0.35652 0.337759,-0.36278 0.337759,-1.29474 v -1.50115 q 0,-1.38231 0.525402,-1.83891 0.531657,-0.46285 2.089098,-0.46285 h 0.387797 v 0.89444 h -0.425326 q -0.881924,0 -1.15088,0.27521 -0.268956,0.27521 -0.268956,1.15713 v 1.55119 q 0,0.982 -0.28772,1.42609 -0.281465,0.44409 -0.969492,0.60046 0.694281,0.16888 0.975747,0.61297 0.281465,0.44409 0.281465,1.41983 v 1.55119 q 0,0.88192 0.268956,1.15714 0.268956,0.27521 1.15088,0.27521 z m 3.20245,0 h 0.437835 q 0.87567,0 1.138371,-0.26896 0.268956,-0.26896 0.268956,-1.16339 v -1.55119 q 0,-0.97574 0.281465,-1.41983 0.281465,-0.44409 0.975746,-0.61297 -0.694281,-0.15637 -0.975746,-0.60046 -0.281465,-0.44409 -0.281465,-1.42609 v -1.55119 q 0,-0.88818 -0.268956,-1.15713 -0.262701,-0.27521 -1.138371,-0.27521 H 89.36572 v -0.89444 h 0.394051 q 1.557442,0 2.076589,0.46285 0.525402,0.4566 0.525402,1.83891 v 1.50115 q 0,0.93196 0.337758,1.29474 0.337759,0.35652 1.225938,0.35652 h 0.387797 v 0.89444 h -0.387797 q -0.888179,0 -1.225938,0.36278 -0.337758,0.36277 -0.337758,1.30725 v 1.49489 q 0,1.38231 -0.525402,1.84516 -0.519147,0.46285 -2.076589,0.46285 H 89.36572 Z"
             id="text31"
             transform="scale(0.87525491,1.1425243)"
             aria-label="{}" />
        </g>
      </g>
    </g>
  </g>
</svg>
