<?xml version="1.0" encoding="UTF-8" standalone="no"?>
<!-- Created with Inkscape (http://www.inkscape.org/) -->

<svg
   width="92.344719mm"
   height="57.202278mm"
   viewBox="0 0 92.344719 57.202278"
   version="1.1"
   id="svg1"
   inkscape:version="1.3.2 (1:1.3.2+202311252150+091e20ef0f)"
   sodipodi:docname="logo_emglossary.svg"
   xmlns:inkscape="http://www.inkscape.org/namespaces/inkscape"
   xmlns:sodipodi="http://sodipodi.sourceforge.net/DTD/sodipodi-0.dtd"
   xmlns="http://www.w3.org/2000/svg"
   xmlns:svg="http://www.w3.org/2000/svg">
  <sodipodi:namedview
     id="namedview1"
     pagecolor="#ffffff"
     bordercolor="#666666"
     borderopacity="1.0"
     inkscape:showpageshadow="2"
     inkscape:pageopacity="0.0"
     inkscape:pagecheckerboard="0"
     inkscape:deskcolor="#d1d1d1"
     inkscape:document-units="mm"
     inkscape:zoom="1.0262626"
     inkscape:cx="287.45079"
     inkscape:cy="187.08661"
     inkscape:window-width="2500"
     inkscape:window-height="1376"
     inkscape:window-x="2620"
     inkscape:window-y="27"
     inkscape:window-maximized="1"
     inkscape:current-layer="g2" />
  <defs
     id="defs1" />
  <g
     inkscape:label="Layer 1"
     inkscape:groupmode="layer"
     id="layer1"
     transform="translate(-71.519053,-66.927)">
    <g
       id="g2"
       transform="translate(3.7701386,-111.32409)">
      <path
         d="m 69.233256,200.2788 c -0.5388,-0.13654 -1.044,-0.5092 -1.24919,-0.92194 -0.18341,-0.36893 -0.19471,-0.88007 -0.22233,-10.06845 -0.0323,-10.72741 -0.0566,-10.31043 0.62764,-10.72428 0.3273,-0.19796 0.59623,-0.2054 8.32667,-0.23303 l 7.9884,-0.0285 v 9.21393 9.21395 h -0.27049 c -0.48991,0 -0.95594,0.30397 -1.18208,0.77112 -0.26293,0.54314 -0.26706,1.0248 -0.0131,1.58298 0.2309,0.50841 0.54292,0.75058 1.07816,0.83669 0.38655,0.0623 0.57205,0.18521 0.41571,0.27579 -0.14844,0.086 -15.16928,0.16527 -15.4989,0.0819 z m 14.0011,-0.60807 c -0.36534,-0.40209 -0.50749,-0.7879 -0.50749,-1.37724 0,-0.58517 0.13522,-1.00198 0.42538,-1.31185 l 0.20334,-0.2172 -6.99796,-0.067 c -6.50445,-0.0622 -7.02389,-0.0543 -7.36513,0.11288 -1.08044,0.52997 -1.1345,2.53407 -0.0807,2.99217 0.27755,0.12055 1.57912,0.14681 7.45943,0.15024 l 7.12316,0.005 z m -2.38099,-4.77956 c 0,-0.0385 -0.15219,-0.50652 -0.33827,-1.04033 l -0.33827,-0.97055 -4.24141,-5e-4 -4.24143,-4.8e-4 v 1.04081 1.04083 h 4.57971 c 2.51881,0 4.57967,-0.0315 4.57967,-0.0697 z m -7.67937,-4.22365 0.0292,-1.27506 0.70256,-0.0307 0.70258,-0.0308 v -0.9729 c 0,-0.68418 0.0387,-0.98668 0.13017,-1.01935 0.0716,-0.0255 1.12541,-0.25121 2.34189,-0.50142 l 2.21176,-0.45502 v -0.29034 -0.2903 h -2.54389 c -1.58366,0 -2.56819,0.0395 -2.60823,0.10407 -0.0354,0.0573 -0.27235,0.10407 -0.52657,0.10407 h -0.46224 v -1.14491 -1.14491 h -0.36429 -0.3643 v 1.14491 c 0,0.6939 -0.0409,1.14491 -0.10407,1.14491 -0.0652,0 -0.10407,0.64186 -0.10407,1.71741 0,1.07551 0.0388,1.71736 0.10407,1.71736 0.0636,0 0.10407,0.48577 0.10407,1.24902 v 1.24903 h 0.3611 0.36108 z m 6.63853,1.06684 c 0,-0.20061 -0.0693,-0.20829 -1.92553,-0.20829 -1.85617,0 -1.92556,0.007 -1.92556,0.20829 0,0.2006 0.0693,0.20804 1.92556,0.20804 1.85614,0 1.92553,-0.007 1.92553,-0.20804 z m -0.76012,-4.15592 c 0.0732,-0.25352 0.11304,-0.48104 0.0884,-0.50563 -0.0537,-0.0535 -1.9186,0.34758 -2.00158,0.43054 -0.0318,0.032 -0.0276,0.17921 0.01,0.32717 0.0665,0.2654 0.0796,0.26879 0.91895,0.23904 l 0.85135,-0.0302 z m 0.65603,-3.11109 v -0.70979 l -0.70255,-0.75606 -0.70256,-0.75603 -0.93675,0.41932 -0.93676,0.41932 -0.0297,1.04648 -0.0297,1.04649 h 1.66898 1.66897 z m 0.66394,-1.96271 c 0.23592,-0.21044 0.67618,-0.60635 0.97836,-0.87977 l 0.5494,-0.49716 -0.28919,-0.31676 -0.2892,-0.31678 -0.96278,0.84273 c -0.52952,0.46347 -0.96277,0.87849 -0.96277,0.92228 0,0.10015 0.41131,0.62804 0.48933,0.62804 0.0318,0 0.25092,-0.17224 0.48685,-0.38258 z"
         style="fill:#002864;fill-opacity:1;stroke-width:2.40238"
         id="path1-7" />
      <path
         style="fill:#002864;fill-opacity:1;stroke-width:0.739746"
         d="m 92.259886,199.84079 c -0.18026,0.18467 -0.29791,0.27852 -0.37659,0.30037 -0.15521,0.0431 -5.23362,0.0431 -5.38884,0 -0.0787,-0.0219 -0.1963,-0.11576 -0.37658,-0.30037 l -0.26216,-0.2686 v -1.8634 -1.8634 l 0.72913,0.009 0.72913,0.009 0.009,1.40218 0.009,1.40218 h 0.56054 0.56053 v -1.16981 -1.16983 h 0.73715 0.73714 v 1.16983 1.16981 h 0.56053 0.56052 l 0.009,-1.40218 0.009,-1.40218 0.72912,-0.009 0.72913,-0.009 v 1.8634 1.8634 z m -3.071,-4.85953 h -3.33317 l 1.9e-4,-0.71312 2e-4,-0.7131 1.47409,-0.70186 c 0.81075,-0.38602 1.47355,-0.71053 1.47288,-0.72112 -5e-4,-0.0101 -0.66049,-0.33244 -1.46627,-0.7152 l -1.46508,-0.69593 -0.009,-0.72226 -0.009,-0.72228 h 3.33377 3.33377 v 0.73716 0.73714 h -1.57828 -1.57828 l 0.71568,0.34341 c 0.56781,0.27246 0.72505,0.36152 0.761,0.43108 0.0339,0.0655 0.0453,0.22549 0.0453,0.63232 0,0.51864 -0.004,0.54864 -0.0721,0.62838 -0.0431,0.0502 -0.34205,0.2115 -0.74516,0.4023 l -0.67304,0.31856 1.56242,1.2e-4 1.56243,1e-4 v 0.73715 0.73715 z m 3.3052,-7.29133 c -0.0388,0.14896 -0.0811,0.21017 -0.2831,0.4086 l -0.1875,0.18425 -0.21638,-0.21807 -0.21639,-0.21806 0.14517,-0.14725 0.14517,-0.14726 v -0.27779 c 0,-0.2513 -0.008,-0.28841 -0.0851,-0.38944 -0.0639,-0.0838 -0.10527,-0.10931 -0.16562,-0.10197 -0.0749,0.009 -0.0927,0.0501 -0.26083,0.60257 -0.0992,0.32611 -0.20137,0.62581 -0.22699,0.66602 -0.092,0.14433 -0.27135,0.2375 -0.49114,0.25514 -0.33928,0.0272 -0.42074,-0.003 -0.67004,-0.24263 -0.12197,-0.11766 -0.24197,-0.25276 -0.26668,-0.30036 -0.0641,-0.12348 -0.0635,-1.01909 4.9e-4,-1.14094 0.0251,-0.0476 0.13008,-0.16946 0.23327,-0.2708 l 0.1876,-0.18425 0.22242,0.22414 0.22242,0.22414 -0.1512,0.15351 -0.15119,0.1535 v 0.27689 c 0,0.25111 0.008,0.28605 0.083,0.37547 0.0558,0.0663 0.11197,0.0986 0.17148,0.0986 0.0869,0 0.0915,-0.0101 0.25798,-0.56888 0.0932,-0.31288 0.18773,-0.60493 0.21008,-0.64901 0.0572,-0.11285 0.17194,-0.21299 0.3105,-0.27088 0.13625,-0.0569 0.45864,-0.0655 0.59143,-0.0158 0.10931,0.041 0.47546,0.39349 0.54746,0.52707 0.0577,0.10703 0.0889,0.81917 0.0436,0.99354 z m 0.0114,-1.64475 c -0.0329,0.0329 -2.78002,-0.95542 -2.82445,-1.01619 -0.0445,-0.0609 -0.0598,-0.4159 -0.0238,-0.55052 0.0229,-0.0851 0.042,-0.0927 1.63021,-0.64954 0.65192,-0.22853 1.19693,-0.40388 1.21115,-0.38967 0.0142,0.0142 0.0216,0.16157 0.0166,0.32745 l -0.009,0.30159 -0.26472,0.0962 -0.26473,0.0962 0.009,0.47651 0.009,0.4765 0.22436,0.08 c 0.12336,0.044 0.24236,0.0945 0.2644,0.11235 0.0395,0.0317 0.0605,0.60229 0.0237,0.63921 z m -1.18589,-1.54419 c -0.009,0 -0.1697,0.0529 -0.3569,0.11754 l -0.34039,0.11753 0.34891,0.12146 c 0.1919,0.0668 0.3525,0.12209 0.35692,0.12285 0.005,5.1e-4 0.008,-0.10691 0.008,-0.23909 0,-0.1322 -0.008,-0.24037 -0.0166,-0.24037 z m 1.18213,-1.36858 c -0.0126,0.0126 -0.65466,0.0225 -1.42733,0.0225 h -1.40484 v -0.7227 c 0,-0.56367 0.0101,-0.74175 0.0457,-0.80925 0.0658,-0.12462 0.43511,-0.47769 0.54131,-0.51746 0.0496,-0.0186 0.24851,-0.0338 0.44196,-0.0338 0.40374,0 0.5057,0.0361 0.71625,0.25368 0.0697,0.072 0.14054,0.13092 0.15746,0.13092 0.0169,0 0.22797,-0.10817 0.46902,-0.24038 0.24103,-0.1322 0.44782,-0.24037 0.45949,-0.24037 0.0291,0 0.0261,0.64859 -0.003,0.6913 -0.0129,0.0189 -0.1926,0.12703 -0.39923,0.24038 l -0.37569,0.20609 -4.9e-4,0.19932 -5.1e-4,0.19932 0.39261,0.009 0.3926,0.009 0.009,0.29001 c 0.005,0.15949 -5.1e-4,0.3001 -0.0134,0.31248 z m -1.51187,-1.33363 c -0.0802,-0.0769 -0.11425,-0.0862 -0.3167,-0.0862 -0.22069,0 -0.22906,0.003 -0.31072,0.11007 -0.0763,0.0999 -0.0839,0.13653 -0.0839,0.40061 v 0.2906 h 0.40062 0.40062 v -0.31451 c 0,-0.30273 -0.004,-0.31771 -0.0898,-0.40062 z m 0.9312,-1.97634 -0.60093,5.1e-4 -0.81728,0.47514 c -0.44949,0.26134 -0.82807,0.4693 -0.8413,0.46213 -0.0133,-0.008 -0.024,-0.16263 -0.024,-0.34548 0,-0.3876 -0.0562,-0.31962 0.55533,-0.67146 0.20847,-0.11994 0.36711,-0.22975 0.35253,-0.244 -0.0145,-0.0143 -0.22119,-0.13969 -0.45916,-0.27874 l -0.43267,-0.25284 -0.009,-0.35831 c -0.005,-0.19706 -3.2e-4,-0.3583 0.0101,-0.3583 0.0101,0 0.39229,0.21634 0.848,0.48075 l 0.82859,0.48075 h 0.59528 0.59527 v 0.30447 0.30447 z m -2.87619,7.70724 c -0.006,0.0176 -0.02,0.0741 -0.0315,0.12564 -0.0258,0.11627 -0.44261,0.55512 -0.58471,0.61564 -0.0791,0.0337 -0.31062,0.0439 -0.99142,0.0439 -1.03747,0 -1.0399,-5.1e-4 -1.34414,-0.32921 -0.25733,-0.27796 -0.26951,-0.31902 -0.26951,-0.90959 0,-0.59773 0.0209,-0.66013 0.31987,-0.95598 l 0.19369,-0.19167 0.24727,0.24727 0.24728,0.24729 -0.15151,0.15381 -0.15149,0.15381 v 0.35347 c 0,0.34542 0.003,0.35542 0.0898,0.43958 l 0.09,0.0862 h 0.7211 0.72109 l 0.10248,-0.10565 c 0.10172,-0.10501 0.10248,-0.10792 0.10248,-0.43587 v -0.33019 l -0.10893,-0.10893 c -0.0882,-0.0882 -0.13384,-0.10894 -0.23921,-0.10894 h -0.13026 l -0.009,0.31248 -0.009,0.31249 -0.34453,0.009 -0.34453,0.009 v -0.65811 -0.65811 h 0.57791 c 0.41795,0 0.60648,0.0127 0.68106,0.0439 0.16033,0.0683 0.55443,0.49537 0.5963,0.64621 0.0312,0.11286 0.0473,0.91031 0.0199,0.99248 z m -0.18577,-2.23412 -0.13742,0.13487 h -1.4341 -1.43409 l 0.009,-0.34454 0.009,-0.34454 1.20988,-0.009 1.20987,-0.009 v -0.52844 -0.52843 h 0.35255 0.35256 v 0.74649 0.74651 z m 0.10185,-2.55731 c -0.0396,0.10059 -0.4287,0.4994 -0.55732,0.57125 -0.0807,0.045 -0.21826,0.0554 -0.85609,0.0643 -0.99193,0.0138 -1.0494,0.003 -1.33984,-0.27187 -0.32082,-0.30266 -0.35202,-0.38388 -0.35202,-0.91651 0,-0.24007 0.0153,-0.47669 0.0339,-0.52582 0.0419,-0.11007 0.35192,-0.44459 0.52261,-0.56385 l 0.12614,-0.0882 h 0.87782 c 1.01391,0 0.99104,-0.005 1.29653,0.30997 0.27398,0.2829 0.28417,0.3142 0.2818,0.86626 -0.001,0.26087 -0.0162,0.51038 -0.0336,0.55445 z m -0.77192,-0.95194 -0.10248,-0.10565 h -0.64962 -0.64961 l -0.11324,0.0994 -0.11323,0.0994 v 0.29162 c 0,0.28458 0.003,0.29415 0.10248,0.39729 l 0.10248,0.10565 h 0.65722 0.65722 l 0.10564,-0.10248 c 0.10413,-0.10097 0.10565,-0.10666 0.10565,-0.39109 0,-0.28124 -0.003,-0.29135 -0.10249,-0.39432 z m 0.76166,-1.69216 c -0.0239,0.0529 -0.13883,0.18963 -0.25549,0.30388 l -0.2121,0.20773 -0.24733,-0.24731 -0.24731,-0.24732 0.15149,-0.15381 0.15151,-0.15381 v -0.33715 -0.33715 l -0.10881,-0.10539 c -0.17901,-0.17351 -0.20678,-0.14442 -0.36417,0.38151 -0.23795,0.79508 -0.26738,0.87822 -0.34887,0.98563 -0.13365,0.17614 -0.30671,0.24493 -0.6204,0.24662 -0.2406,10e-4 -0.28984,-0.009 -0.42154,-0.0862 -0.19394,-0.11399 -0.49916,-0.45264 -0.53978,-0.59887 -0.0176,-0.0631 -0.0316,-0.31663 -0.0314,-0.56341 4.9e-4,-0.54127 0.0266,-0.61354 0.32488,-0.90538 l 0.20473,-0.20028 0.23853,0.24013 0.23853,0.24015 -0.15122,0.15355 -0.15123,0.15353 v 0.33715 0.33715 l 0.10843,0.10513 c 0.0731,0.0709 0.13273,0.1016 0.18285,0.0944 0.0671,-0.0101 0.0935,-0.0738 0.26907,-0.65172 0.10716,-0.35254 0.22281,-0.6882 0.25716,-0.74588 0.0343,-0.0577 0.11918,-0.14423 0.18849,-0.1923 0.1107,-0.0768 0.16186,-0.0887 0.42085,-0.0984 0.35828,-0.0133 0.45712,0.0282 0.72505,0.30491 0.27707,0.28609 0.28403,0.30862 0.28257,0.91433 -5.1e-4,0.36808 -0.014,0.55081 -0.0445,0.61855 z"
         id="path148-8"
         sodipodi:nodetypes="csssccccccccccccccccccccccccccccssscccccccccscscscccccccscccccscsssssccscccccsssscssscccscssccccccsscccscssscccscscsssssscscccccccccssscccscccssssssccssccccccccssssscccccsccccsscsscccccccsscccccccccccccccccccsscscscsscccccccccsccccsscsscccccccssscsssscccccccssscssscss" />
      <path
         d="m 69.287296,235.41788 c -0.5388,-0.13654 -1.044,-0.5092 -1.24919,-0.92194 -0.18341,-0.36893 -0.19471,-0.88007 -0.22233,-10.06845 -0.0323,-10.72741 -0.0566,-10.31043 0.62764,-10.72428 0.3273,-0.19796 0.59623,-0.2054 8.32667,-0.23303 l 7.98839,-0.0285 v 9.21393 9.21395 h -0.27049 c -0.48991,0 -0.95594,0.30397 -1.18208,0.77112 -0.26293,0.54314 -0.26706,1.0248 -0.0131,1.58298 0.2309,0.50841 0.54292,0.75058 1.07816,0.83669 0.38655,0.0623 0.57205,0.18521 0.41571,0.27579 -0.14844,0.086 -15.16927,0.16527 -15.49889,0.0819 z m 14.00109,-0.60807 c -0.36534,-0.40209 -0.50749,-0.7879 -0.50749,-1.37724 0,-0.58517 0.13522,-1.00198 0.42538,-1.31185 l 0.20334,-0.2172 -6.99795,-0.067 c -6.50445,-0.0622 -7.02389,-0.0543 -7.36513,0.11288 -1.08044,0.52997 -1.1345,2.53407 -0.0807,2.99217 0.27755,0.12055 1.57912,0.14681 7.45943,0.15024 l 7.12315,0.005 z m -2.38098,-4.77956 c 0,-0.0385 -0.15219,-0.50652 -0.33827,-1.04033 l -0.33827,-0.97055 -4.24141,-5e-4 -4.24143,-4.8e-4 v 1.04081 1.04083 h 4.57971 c 2.51881,0 4.57967,-0.0315 4.57967,-0.0697 z m -7.67937,-4.22365 0.0292,-1.27506 0.70256,-0.0307 0.70258,-0.0308 v -0.9729 c 0,-0.68418 0.0387,-0.98668 0.13017,-1.01935 0.0716,-0.0255 1.12541,-0.25121 2.34189,-0.50142 l 2.21176,-0.45502 v -0.29034 -0.2903 h -2.54389 c -1.58366,0 -2.56819,0.0395 -2.60823,0.10407 -0.0354,0.0573 -0.27235,0.10407 -0.52657,0.10407 h -0.46224 v -1.14491 -1.14491 h -0.36429 -0.3643 v 1.14491 c 0,0.6939 -0.0409,1.14491 -0.10407,1.14491 -0.0652,0 -0.10407,0.64186 -0.10407,1.71741 0,1.07551 0.0388,1.71736 0.10407,1.71736 0.0636,0 0.10407,0.48577 0.10407,1.24902 v 1.24903 h 0.3611 0.36108 z m 6.63853,1.06684 c 0,-0.20061 -0.0693,-0.20829 -1.92553,-0.20829 -1.85617,0 -1.92556,0.007 -1.92556,0.20829 0,0.2006 0.0693,0.20804 1.92556,0.20804 1.85614,0 1.92553,-0.007 1.92553,-0.20804 z m -0.76012,-4.15592 c 0.0732,-0.25352 0.11304,-0.48104 0.0884,-0.50563 -0.0537,-0.0535 -1.9186,0.34758 -2.00158,0.43054 -0.0318,0.032 -0.0276,0.17921 0.01,0.32717 0.0665,0.2654 0.0796,0.26879 0.91895,0.23904 l 0.85135,-0.0302 z m 0.65603,-3.11109 v -0.70979 l -0.70255,-0.75606 -0.70256,-0.75603 -0.93675,0.41932 -0.93676,0.41932 -0.0297,1.04648 -0.0297,1.04649 h 1.66898 1.66897 z m 0.66394,-1.96271 c 0.23592,-0.21044 0.67618,-0.60635 0.97836,-0.87977 l 0.5494,-0.49716 -0.28919,-0.31676 -0.2892,-0.31678 -0.96278,0.84273 c -0.52952,0.46347 -0.96277,0.87849 -0.96277,0.92228 0,0.10015 0.41131,0.62804 0.48933,0.62804 0.0318,0 0.25092,-0.17224 0.48685,-0.38258 z"
         style="fill:#002864;fill-opacity:1;stroke-width:2.40238"
         id="path1" />
      <path
         style="fill:#002864;fill-opacity:1;stroke-width:2.41402"
         d="m 89.640286,234.4799 c -0.60263,-0.58825 -0.90889,-0.97217 -0.98019,-1.22893 -0.14065,-0.5065 -0.14065,-17.07887 0,-17.5854 0.0715,-0.25682 0.37776,-0.64058 0.98019,-1.2289 l 0.87653,-0.85551 h 6.08083 6.080844 l -0.0294,2.37938 -0.0294,2.37937 -4.575734,0.0294 -4.57574,0.0294 v 1.82921 1.82919 h 3.81745 3.817504 v 2.40552 2.40552 h -3.817504 -3.81745 v 1.82918 1.82914 l 4.57574,0.0294 4.575734,0.0294 0.0294,2.37933 0.0294,2.37938 h -6.080844 -6.08083 z M 105.4984,224.4583 v -10.87714 l 2.32712,6.3e-4 2.32707,6.5e-4 2.29037,4.81039 c 1.2597,2.64573 2.31867,4.80865 2.35324,4.80646 0.0329,-0.002 1.08485,-2.15537 2.33391,-4.78488 l 2.27103,-4.78099 2.35694,-0.0294 2.35702,-0.0294 v 10.87909 10.8791 h -2.40557 -2.40552 v -5.15041 -5.15039 l -1.12064,2.33548 c -0.88912,1.85293 -1.17975,2.36604 -1.40675,2.48337 -0.21374,0.1107 -0.73584,0.14775 -2.06345,0.14775 -1.69247,0 -1.79038,-0.0123 -2.0506,-0.23528 -0.1638,-0.14068 -0.69018,-1.11622 -1.31281,-2.43168 l -1.03956,-2.19634 -3.9e-4,5.09864 -3.4e-4,5.09868 h -2.40552 -2.40555 z m 23.7938,10.78587 c -0.48611,-0.12669 -0.68586,-0.26466 -1.33339,-0.92385 l -0.60126,-0.61186 0.71163,-0.70612 0.71159,-0.70614 0.48053,0.47373 0.48054,0.47373 h 0.90652 c 0.82007,0 0.94116,-0.0261 1.27086,-0.2777 0.27346,-0.20853 0.35672,-0.34354 0.33276,-0.54047 -0.0294,-0.24442 -0.16349,-0.3025 -1.96637,-0.85117 -1.06419,-0.32372 -2.04221,-0.65713 -2.17342,-0.74074 -0.47099,-0.30022 -0.77503,-0.88548 -0.83259,-1.60274 -0.0887,-1.10716 0.009,-1.37299 0.79176,-2.18653 0.38396,-0.39802 0.82483,-0.78962 0.98016,-0.87026 0.40297,-0.20918 3.3256,-0.20723 3.72324,0.002 0.15533,0.082 0.553,0.42449 0.8837,0.76123 l 0.60127,0.6122 -0.73145,0.72582 -0.73143,0.72583 -0.50094,-0.49341 -0.50093,-0.49338 h -0.90357 c -0.81945,0 -0.93347,0.0261 -1.22527,0.27086 -0.21636,0.18209 -0.32177,0.36539 -0.32177,0.55959 0,0.28357 0.0329,0.29859 1.85643,0.84187 1.02103,0.30413 1.97408,0.61261 2.11792,0.68555 0.36826,0.18665 0.69504,0.56109 0.88395,1.01325 0.18569,0.44463 0.21376,1.49669 0.0515,1.93001 -0.13376,0.35672 -1.28408,1.55158 -1.71999,1.78654 -0.34927,0.18828 -2.67319,0.29009 -3.24222,0.14222 z m 5.36731,0.0372 c -0.10732,-0.10732 3.11782,-9.07203 3.31614,-9.21703 0.19873,-0.14514 1.3572,-0.19514 1.79651,-0.0777 0.2777,0.0747 0.3025,0.13699 2.11965,5.31986 0.74576,2.12741 1.31797,3.90595 1.27159,3.95235 -0.0463,0.0463 -0.52725,0.0704 -1.06855,0.0541 l -0.98418,-0.0294 -0.31394,-0.86386 -0.31393,-0.8639 -1.55498,0.0294 -1.55498,0.0294 -0.26106,0.73216 c -0.1436,0.40256 -0.30838,0.79088 -0.36663,0.86281 -0.10348,0.12884 -1.96546,0.19743 -2.08593,0.0773 z m 5.03916,-3.86991 c 0,-0.0294 -0.17263,-0.55378 -0.38358,-1.16467 l -0.38352,-1.11081 -0.39637,1.13861 c -0.21798,0.62622 -0.39841,1.15032 -0.4009,1.16474 -0.002,0.0163 0.34889,0.0261 0.78023,0.0261 0.43141,0 0.7844,-0.0261 0.7844,-0.0541 z m 4.46609,3.85764 c -0.0412,-0.041 -0.0735,-2.13635 -0.0735,-4.6578 v -4.58442 h 2.35839 c 1.83943,0 2.42055,0.0329 2.64083,0.14914 0.40667,0.21471 1.55885,1.41989 1.68863,1.76646 0.0607,0.16185 0.11023,0.81096 0.11023,1.44224 0,1.31752 -0.11777,1.65025 -0.82783,2.33734 -0.23496,0.22746 -0.42724,0.45862 -0.42724,0.51383 0,0.0552 0.353,0.74395 0.78445,1.53056 0.4314,0.78655 0.7844,1.46137 0.7844,1.49945 0,0.095 -2.11655,0.0852 -2.25593,-0.009 -0.0617,-0.0421 -0.41453,-0.62852 -0.78443,-1.3028 l -0.67253,-1.22599 -0.65044,-0.002 -0.65045,-0.002 -0.0294,1.28121 -0.0294,1.28116 -0.94639,0.0294 c -0.52047,0.0163 -0.97932,-0.002 -1.01972,-0.0437 z m 4.35204,-4.93369 c 0.25093,-0.26171 0.28128,-0.37282 0.28128,-1.03348 0,-0.72018 -0.009,-0.74749 -0.35919,-1.01398 -0.32599,-0.24898 -0.44553,-0.27378 -1.30731,-0.27378 h -0.94831 v 1.30734 1.30735 h 1.02633 c 0.9879,0 1.0368,-0.0123 1.30735,-0.29305 z m 6.44937,3.03879 -0.002,-1.96101 -1.55051,-2.66704 c -0.85283,-1.46681 -1.53148,-2.70223 -1.50808,-2.7454 0.0261,-0.0434 0.53071,-0.0783 1.12741,-0.0783 1.26485,0 1.04302,-0.18341 2.19117,1.81221 0.3914,0.68029 0.74975,1.19798 0.79626,1.15041 0.0466,-0.0473 0.45585,-0.72182 0.90961,-1.49838 l 0.82509,-1.41194 1.16926,-0.0294 c 0.64307,-0.0163 1.16925,-0.001 1.16925,0.0329 0,0.0329 -0.70599,1.28015 -1.56883,2.76727 l -1.56884,2.70394 v 1.94257 1.94255 h -0.99357 -0.99357 z m -25.15104,-9.38587 c -0.0575,-0.0195 -0.2418,-0.0653 -0.41,-0.10285 -0.37942,-0.0843 -1.81152,-1.44438 -2.00901,-1.90809 -0.10993,-0.25813 -0.14329,-1.01365 -0.14329,-3.23531 0,-3.38558 0.002,-3.39351 1.07431,-4.38633 0.90707,-0.83975 1.04106,-0.87949 2.96826,-0.87949 1.95059,0 2.15421,0.0683 3.11966,1.04383 l 0.62547,0.63207 -0.80691,0.80692 -0.80698,0.80695 -0.50193,-0.49443 -0.50193,-0.49436 h -1.15349 c -1.12719,0 -1.15983,0.009 -1.43448,0.29304 l -0.28128,0.29371 v 2.35316 2.35313 l 0.34477,0.33442 c 0.34267,0.33195 0.35216,0.33444 1.42236,0.33444 h 1.07752 l 0.35547,-0.35549 c 0.28782,-0.28781 0.3555,-0.43675 0.3555,-0.78061 v -0.42507 l -1.01971,-0.0294 -1.01976,-0.0294 -0.0294,-1.12431 -0.0294,-1.12429 h 2.14761 2.1476 v 1.88589 c 0,1.36389 -0.0414,1.97912 -0.14329,2.2225 -0.22289,0.52321 -1.61655,1.80928 -2.10878,1.94591 -0.3683,0.10179 -2.97062,0.15435 -3.23877,0.0649 z m 7.29062,-0.60621 -0.44012,-0.44844 v -4.67991 -4.67986 l 1.12433,0.0294 1.12434,0.0294 0.0294,3.9482 0.0294,3.94817 h 1.72447 1.72442 v 1.15047 1.15051 h -2.43602 -2.43609 z m 8.34527,0.33236 c -0.32825,-0.12915 -1.62969,-1.39897 -1.86416,-1.8187 -0.14683,-0.26334 -0.18079,-0.71224 -0.20984,-2.79369 -0.0451,-3.23695 -0.009,-3.4245 0.8872,-4.37228 0.98767,-1.04694 1.25271,-1.14875 2.99085,-1.14875 0.78341,0 1.55559,0.05 1.7159,0.11054 0.35919,0.13668 1.45084,1.14843 1.84002,1.70543 l 0.28782,0.41164 v 2.86459 c 0,3.30869 0.0163,3.23406 -1.01153,4.23097 -0.92319,0.89407 -1.02532,0.92733 -2.82686,0.91959 -0.85129,-0.003 -1.66552,-0.0529 -1.80934,-0.10962 z m 3.10646,-2.519 0.34476,-0.33443 v -2.1199 -2.11987 l -0.32436,-0.36954 -0.32438,-0.36951 h -0.95165 c -0.92866,0 -0.95988,0.009 -1.29647,0.33442 l -0.34477,0.33444 v 2.14469 2.14471 l 0.33444,0.34474 c 0.32948,0.33981 0.34806,0.34476 1.27624,0.34476 0.91776,0 0.95075,-0.009 1.28677,-0.33445 z m 5.52202,2.48553 c -0.17261,-0.078 -0.61881,-0.45306 -0.99165,-0.83376 l -0.67788,-0.69213 0.80704,-0.80712 0.80709,-0.80704 0.50192,0.49436 0.50193,0.49441 h 1.10023 1.10021 l 0.34392,-0.35507 c 0.56621,-0.58417 0.47129,-0.67479 -1.24498,-1.1884 -2.59458,-0.77649 -2.86589,-0.87254 -3.2164,-1.13847 -0.57479,-0.43614 -0.79928,-1.00089 -0.8048,-2.02455 -0.003,-0.78515 0.0294,-0.94583 0.2813,-1.37561 0.37198,-0.63289 1.4771,-1.62891 1.95429,-1.76147 0.20591,-0.0574 1.03327,-0.10317 1.83857,-0.1024 1.76634,0.002 2.00217,0.0869 2.95454,1.06018 l 0.65357,0.6681 -0.78361,0.77839 -0.78369,0.7784 -0.50108,-0.49348 -0.50101,-0.49352 h -1.10023 -1.10021 l -0.34308,0.35386 c -0.23136,0.23854 -0.33154,0.43312 -0.30805,0.59668 0.0329,0.21897 0.24083,0.30512 2.12675,0.87806 1.15044,0.34969 2.24581,0.7271 2.43403,0.8392 0.1883,0.11193 0.47067,0.38891 0.62755,0.61509 0.25061,0.36125 0.28944,0.5282 0.3211,1.37336 0.0434,1.16917 -0.0921,1.49172 -0.99502,2.36606 -0.93359,0.90415 -1.00712,0.92688 -2.98373,0.92211 -1.20115,-0.002 -1.79745,-0.0457 -2.01851,-0.14514 z"
         id="path2"
         sodipodi:nodetypes="csssccccccccccccccccccccccccccccssscccccccccscscscccccccscccccscsssssccscccccsssscssscccscssccccccsscccscssscccscscsssssscscccccccccssscccscccssssssccssccccccccssssscccccsccccsscsscccccccsscccccccccccccccccccsscscscsscccccccccsccccsscsscccccccssscsssscccccccssscssscss" />
      <path
         d="m 187.78409,200.2788 c -0.5388,-0.13654 -1.044,-0.5092 -1.24919,-0.92194 -0.18341,-0.36893 -0.19471,-0.88007 -0.22233,-10.06845 -0.0323,-10.72741 -0.0566,-10.31043 0.62764,-10.72428 0.3273,-0.19796 0.59623,-0.2054 8.32667,-0.23303 l 7.9884,-0.0285 v 9.21393 9.21395 h -0.27049 c -0.48991,0 -0.95594,0.30397 -1.18208,0.77112 -0.26293,0.54314 -0.26706,1.0248 -0.0131,1.58298 0.2309,0.50841 0.54292,0.75058 1.07816,0.83669 0.38655,0.0623 0.57205,0.18521 0.41571,0.27579 -0.14844,0.086 -15.16928,0.16527 -15.4989,0.0819 z m 14.0011,-0.60807 c -0.36534,-0.40209 -0.50749,-0.7879 -0.50749,-1.37724 0,-0.58517 0.13522,-1.00198 0.42538,-1.31185 l 0.20334,-0.2172 -6.99796,-0.067 c -6.50445,-0.0622 -7.02389,-0.0543 -7.36513,0.11288 -1.08044,0.52997 -1.1345,2.53407 -0.0807,2.99217 0.27755,0.12055 1.57912,0.14681 7.45943,0.15024 l 7.12316,0.005 z m -2.38099,-4.77956 c 0,-0.0385 -0.15219,-0.50652 -0.33827,-1.04033 l -0.33827,-0.97055 -4.24141,-5e-4 -4.24143,-4.8e-4 v 1.04081 1.04083 h 4.57971 c 2.51881,0 4.57967,-0.0315 4.57967,-0.0697 z m -7.67937,-4.22365 0.0292,-1.27506 0.70256,-0.0307 0.70258,-0.0308 v -0.9729 c 0,-0.68418 0.0387,-0.98668 0.13017,-1.01935 0.0716,-0.0255 1.12541,-0.25121 2.34189,-0.50142 l 2.21176,-0.45502 v -0.29034 -0.2903 h -2.54389 c -1.58366,0 -2.56819,0.0395 -2.60823,0.10407 -0.0354,0.0573 -0.27235,0.10407 -0.52657,0.10407 h -0.46224 v -1.14491 -1.14491 h -0.36429 -0.3643 v 1.14491 c 0,0.6939 -0.0409,1.14491 -0.10407,1.14491 -0.0652,0 -0.10407,0.64186 -0.10407,1.71741 0,1.07551 0.0388,1.71736 0.10407,1.71736 0.0636,0 0.10407,0.48577 0.10407,1.24902 v 1.24903 h 0.3611 0.36108 z m 6.63853,1.06684 c 0,-0.20061 -0.0693,-0.20829 -1.92553,-0.20829 -1.85617,0 -1.92556,0.007 -1.92556,0.20829 0,0.2006 0.0693,0.20804 1.92556,0.20804 1.85614,0 1.92553,-0.007 1.92553,-0.20804 z m -0.76012,-4.15592 c 0.0732,-0.25352 0.11304,-0.48104 0.0884,-0.50563 -0.0537,-0.0535 -1.9186,0.34758 -2.00158,0.43054 -0.0318,0.032 -0.0276,0.17921 0.01,0.32717 0.0665,0.2654 0.0796,0.26879 0.91895,0.23904 l 0.85135,-0.0302 z m 0.65603,-3.11109 v -0.70979 l -0.70255,-0.75606 -0.70256,-0.75603 -0.93675,0.41932 -0.93676,0.41932 -0.0297,1.04648 -0.0297,1.04649 h 1.66898 1.66897 z m 0.66394,-1.96271 c 0.23592,-0.21044 0.67618,-0.60635 0.97836,-0.87977 l 0.5494,-0.49716 -0.28919,-0.31676 -0.2892,-0.31678 -0.96278,0.84273 c -0.52952,0.46347 -0.96277,0.87849 -0.96277,0.92228 0,0.10015 0.41131,0.62804 0.48933,0.62804 0.0318,0 0.25092,-0.17224 0.48685,-0.38258 z"
         style="fill:#ffffff;fill-opacity:1;stroke-width:2.40238"
         id="path3" />
      <path
         style="fill:#ffffff;fill-opacity:1;stroke-width:0.739746"
         d="m 210.81072,199.84079 c -0.18026,0.18467 -0.29791,0.27852 -0.37659,0.30037 -0.15521,0.0431 -5.23362,0.0431 -5.38884,0 -0.0787,-0.0219 -0.1963,-0.11576 -0.37658,-0.30037 l -0.26216,-0.2686 v -1.8634 -1.8634 l 0.72913,0.009 0.72913,0.009 0.009,1.40218 0.009,1.40218 h 0.56054 0.56053 v -1.16981 -1.16983 h 0.73715 0.73714 v 1.16983 1.16981 h 0.56053 0.56052 l 0.009,-1.40218 0.009,-1.40218 0.72912,-0.009 0.72913,-0.009 v 1.8634 1.8634 z m -3.071,-4.85953 h -3.33317 l 1.9e-4,-0.71312 2e-4,-0.7131 1.47409,-0.70186 c 0.81075,-0.38602 1.47355,-0.71053 1.47288,-0.72112 -5e-4,-0.0101 -0.66049,-0.33244 -1.46627,-0.7152 l -1.46508,-0.69593 -0.009,-0.72226 -0.009,-0.72228 h 3.33377 3.33377 v 0.73716 0.73714 h -1.57828 -1.57828 l 0.71568,0.34341 c 0.56781,0.27246 0.72505,0.36152 0.761,0.43108 0.0339,0.0655 0.0453,0.22549 0.0453,0.63232 0,0.51864 -0.004,0.54864 -0.0721,0.62838 -0.0431,0.0502 -0.34205,0.2115 -0.74516,0.4023 l -0.67304,0.31856 1.56242,1.2e-4 1.56243,1e-4 v 0.73715 0.73715 z m 3.3052,-7.29133 c -0.0388,0.14896 -0.0811,0.21017 -0.2831,0.4086 l -0.1875,0.18425 -0.21638,-0.21807 -0.21639,-0.21806 0.14517,-0.14725 0.14517,-0.14726 v -0.27779 c 0,-0.2513 -0.008,-0.28841 -0.0851,-0.38944 -0.0639,-0.0838 -0.10527,-0.10931 -0.16562,-0.10197 -0.0749,0.009 -0.0927,0.0501 -0.26083,0.60257 -0.0992,0.32611 -0.20137,0.62581 -0.22699,0.66602 -0.092,0.14433 -0.27135,0.2375 -0.49114,0.25514 -0.33928,0.0272 -0.42074,-0.003 -0.67004,-0.24263 -0.12197,-0.11766 -0.24197,-0.25276 -0.26668,-0.30036 -0.0641,-0.12348 -0.0635,-1.01909 4.9e-4,-1.14094 0.0251,-0.0476 0.13008,-0.16946 0.23327,-0.2708 l 0.1876,-0.18425 0.22242,0.22414 0.22242,0.22414 -0.1512,0.15351 -0.15119,0.1535 v 0.27689 c 0,0.25111 0.008,0.28605 0.083,0.37547 0.0558,0.0663 0.11197,0.0986 0.17148,0.0986 0.0869,0 0.0915,-0.0101 0.25798,-0.56888 0.0932,-0.31288 0.18773,-0.60493 0.21008,-0.64901 0.0572,-0.11285 0.17194,-0.21299 0.3105,-0.27088 0.13625,-0.0569 0.45864,-0.0655 0.59143,-0.0158 0.10931,0.041 0.47546,0.39349 0.54746,0.52707 0.0577,0.10703 0.0889,0.81917 0.0436,0.99354 z m 0.0114,-1.64475 c -0.0329,0.0329 -2.78002,-0.95542 -2.82445,-1.01619 -0.0445,-0.0609 -0.0598,-0.4159 -0.0238,-0.55052 0.0229,-0.0851 0.042,-0.0927 1.63021,-0.64954 0.65192,-0.22853 1.19693,-0.40388 1.21115,-0.38967 0.0142,0.0142 0.0216,0.16157 0.0166,0.32745 l -0.009,0.30159 -0.26472,0.0962 -0.26473,0.0962 0.009,0.47651 0.009,0.4765 0.22436,0.08 c 0.12336,0.044 0.24236,0.0945 0.2644,0.11235 0.0395,0.0317 0.0605,0.60229 0.0237,0.63921 z m -1.18589,-1.54419 c -0.009,0 -0.1697,0.0529 -0.3569,0.11754 l -0.34039,0.11753 0.34891,0.12146 c 0.1919,0.0668 0.3525,0.12209 0.35692,0.12285 0.005,5.1e-4 0.008,-0.10691 0.008,-0.23909 0,-0.1322 -0.008,-0.24037 -0.0166,-0.24037 z m 1.18213,-1.36858 c -0.0126,0.0126 -0.65466,0.0225 -1.42733,0.0225 h -1.40484 v -0.7227 c 0,-0.56367 0.0101,-0.74175 0.0457,-0.80925 0.0658,-0.12462 0.43511,-0.47769 0.54131,-0.51746 0.0496,-0.0186 0.24851,-0.0338 0.44196,-0.0338 0.40374,0 0.5057,0.0361 0.71625,0.25368 0.0697,0.072 0.14054,0.13092 0.15746,0.13092 0.0169,0 0.22797,-0.10817 0.46902,-0.24038 0.24103,-0.1322 0.44782,-0.24037 0.45949,-0.24037 0.0291,0 0.0261,0.64859 -0.003,0.6913 -0.0129,0.0189 -0.1926,0.12703 -0.39923,0.24038 l -0.37569,0.20609 -4.9e-4,0.19932 -5.1e-4,0.19932 0.39261,0.009 0.3926,0.009 0.009,0.29001 c 0.005,0.15949 -5.1e-4,0.3001 -0.0134,0.31248 z m -1.51187,-1.33363 c -0.0802,-0.0769 -0.11425,-0.0862 -0.3167,-0.0862 -0.22069,0 -0.22906,0.003 -0.31072,0.11007 -0.0763,0.0999 -0.0839,0.13653 -0.0839,0.40061 v 0.2906 h 0.40062 0.40062 v -0.31451 c 0,-0.30273 -0.004,-0.31771 -0.0898,-0.40062 z m 0.9312,-1.97634 -0.60093,5.1e-4 -0.81728,0.47514 c -0.44949,0.26134 -0.82807,0.4693 -0.8413,0.46213 -0.0133,-0.008 -0.024,-0.16263 -0.024,-0.34548 0,-0.3876 -0.0562,-0.31962 0.55533,-0.67146 0.20847,-0.11994 0.36711,-0.22975 0.35253,-0.244 -0.0145,-0.0143 -0.22119,-0.13969 -0.45916,-0.27874 l -0.43267,-0.25284 -0.009,-0.35831 c -0.005,-0.19706 -3.2e-4,-0.3583 0.0101,-0.3583 0.0101,0 0.39229,0.21634 0.848,0.48075 l 0.82859,0.48075 h 0.59528 0.59527 v 0.30447 0.30447 z m -2.87619,7.70724 c -0.006,0.0176 -0.02,0.0741 -0.0315,0.12564 -0.0258,0.11627 -0.44261,0.55512 -0.58471,0.61564 -0.0791,0.0337 -0.31062,0.0439 -0.99142,0.0439 -1.03747,0 -1.0399,-5.1e-4 -1.34414,-0.32921 -0.25733,-0.27796 -0.26951,-0.31902 -0.26951,-0.90959 0,-0.59773 0.0209,-0.66013 0.31987,-0.95598 l 0.19369,-0.19167 0.24727,0.24727 0.24728,0.24729 -0.15151,0.15381 -0.15149,0.15381 v 0.35347 c 0,0.34542 0.003,0.35542 0.0898,0.43958 l 0.09,0.0862 h 0.7211 0.72109 l 0.10248,-0.10565 c 0.10172,-0.10501 0.10248,-0.10792 0.10248,-0.43587 v -0.33019 l -0.10893,-0.10893 c -0.0882,-0.0882 -0.13384,-0.10894 -0.23921,-0.10894 h -0.13026 l -0.009,0.31248 -0.009,0.31249 -0.34453,0.009 -0.34453,0.009 v -0.65811 -0.65811 h 0.57791 c 0.41795,0 0.60648,0.0127 0.68106,0.0439 0.16033,0.0683 0.55443,0.49537 0.5963,0.64621 0.0312,0.11286 0.0473,0.91031 0.0199,0.99248 z m -0.18577,-2.23412 -0.13742,0.13487 h -1.4341 -1.43409 l 0.009,-0.34454 0.009,-0.34454 1.20988,-0.009 1.20987,-0.009 v -0.52844 -0.52843 h 0.35255 0.35256 v 0.74649 0.74651 z m 0.10185,-2.55731 c -0.0396,0.10059 -0.4287,0.4994 -0.55732,0.57125 -0.0807,0.045 -0.21826,0.0554 -0.85609,0.0643 -0.99193,0.0138 -1.0494,0.003 -1.33984,-0.27187 -0.32082,-0.30266 -0.35202,-0.38388 -0.35202,-0.91651 0,-0.24007 0.0153,-0.47669 0.0339,-0.52582 0.0419,-0.11007 0.35192,-0.44459 0.52261,-0.56385 l 0.12614,-0.0882 h 0.87782 c 1.01391,0 0.99104,-0.005 1.29653,0.30997 0.27398,0.2829 0.28417,0.3142 0.2818,0.86626 -0.001,0.26087 -0.0162,0.51038 -0.0336,0.55445 z m -0.77192,-0.95194 -0.10248,-0.10565 h -0.64962 -0.64961 l -0.11324,0.0994 -0.11323,0.0994 v 0.29162 c 0,0.28458 0.003,0.29415 0.10248,0.39729 l 0.10248,0.10565 h 0.65722 0.65722 l 0.10564,-0.10248 c 0.10413,-0.10097 0.10565,-0.10666 0.10565,-0.39109 0,-0.28124 -0.003,-0.29135 -0.10249,-0.39432 z m 0.76166,-1.69216 c -0.0239,0.0529 -0.13883,0.18963 -0.25549,0.30388 l -0.2121,0.20773 -0.24733,-0.24731 -0.24731,-0.24732 0.15149,-0.15381 0.15151,-0.15381 v -0.33715 -0.33715 l -0.10881,-0.10539 c -0.17901,-0.17351 -0.20678,-0.14442 -0.36417,0.38151 -0.23795,0.79508 -0.26738,0.87822 -0.34887,0.98563 -0.13365,0.17614 -0.30671,0.24493 -0.6204,0.24662 -0.2406,10e-4 -0.28984,-0.009 -0.42154,-0.0862 -0.19394,-0.11399 -0.49916,-0.45264 -0.53978,-0.59887 -0.0176,-0.0631 -0.0316,-0.31663 -0.0314,-0.56341 4.9e-4,-0.54127 0.0266,-0.61354 0.32488,-0.90538 l 0.20473,-0.20028 0.23853,0.24013 0.23853,0.24015 -0.15122,0.15355 -0.15123,0.15353 v 0.33715 0.33715 l 0.10843,0.10513 c 0.0731,0.0709 0.13273,0.1016 0.18285,0.0944 0.0671,-0.0101 0.0935,-0.0738 0.26907,-0.65172 0.10716,-0.35254 0.22281,-0.6882 0.25716,-0.74588 0.0343,-0.0577 0.11918,-0.14423 0.18849,-0.1923 0.1107,-0.0768 0.16186,-0.0887 0.42085,-0.0984 0.35828,-0.0133 0.45712,0.0282 0.72505,0.30491 0.27707,0.28609 0.28403,0.30862 0.28257,0.91433 -5.1e-4,0.36808 -0.014,0.55081 -0.0445,0.61855 z"
         id="path4"
         sodipodi:nodetypes="csssccccccccccccccccccccccccccccssscccccccccscscscccccccscccccscsssssccscccccsssscssscccscssccccccsscccscssscccscscsssssscscccccccccssscccscccssssssccssccccccccssssscccccsccccsscsscccccccsscccccccccccccccccccsscscscsscccccccccsccccsscsscccccccssscsssscccccccssscssscss" />
      <path
         d="m 187.83813,235.41788 c -0.5388,-0.13654 -1.044,-0.5092 -1.24919,-0.92194 -0.18341,-0.36893 -0.19471,-0.88007 -0.22233,-10.06845 -0.0323,-10.72741 -0.0566,-10.31043 0.62764,-10.72428 0.3273,-0.19796 0.59623,-0.2054 8.32667,-0.23303 l 7.98839,-0.0285 v 9.21393 9.21395 h -0.27049 c -0.48991,0 -0.95594,0.30397 -1.18208,0.77112 -0.26293,0.54314 -0.26706,1.0248 -0.0131,1.58298 0.2309,0.50841 0.54292,0.75058 1.07816,0.83669 0.38655,0.0623 0.57205,0.18521 0.41571,0.27579 -0.14844,0.086 -15.16927,0.16527 -15.49889,0.0819 z m 14.00109,-0.60807 c -0.36534,-0.40209 -0.50749,-0.7879 -0.50749,-1.37724 0,-0.58517 0.13522,-1.00198 0.42538,-1.31185 l 0.20334,-0.2172 -6.99795,-0.067 c -6.50445,-0.0622 -7.02389,-0.0543 -7.36513,0.11288 -1.08044,0.52997 -1.1345,2.53407 -0.0807,2.99217 0.27755,0.12055 1.57912,0.14681 7.45943,0.15024 l 7.12315,0.005 z m -2.38098,-4.77956 c 0,-0.0385 -0.15219,-0.50652 -0.33827,-1.04033 l -0.33827,-0.97055 -4.24141,-5e-4 -4.24143,-4.8e-4 v 1.04081 1.04083 h 4.57971 c 2.51881,0 4.57967,-0.0315 4.57967,-0.0697 z m -7.67937,-4.22365 0.0292,-1.27506 0.70256,-0.0307 0.70258,-0.0308 v -0.9729 c 0,-0.68418 0.0387,-0.98668 0.13017,-1.01935 0.0716,-0.0255 1.12541,-0.25121 2.34189,-0.50142 l 2.21176,-0.45502 v -0.29034 -0.2903 h -2.54389 c -1.58366,0 -2.56819,0.0395 -2.60823,0.10407 -0.0354,0.0573 -0.27235,0.10407 -0.52657,0.10407 h -0.46224 v -1.14491 -1.14491 h -0.36429 -0.3643 v 1.14491 c 0,0.6939 -0.0409,1.14491 -0.10407,1.14491 -0.0652,0 -0.10407,0.64186 -0.10407,1.71741 0,1.07551 0.0388,1.71736 0.10407,1.71736 0.0636,0 0.10407,0.48577 0.10407,1.24902 v 1.24903 h 0.3611 0.36108 z m 6.63853,1.06684 c 0,-0.20061 -0.0693,-0.20829 -1.92553,-0.20829 -1.85617,0 -1.92556,0.007 -1.92556,0.20829 0,0.2006 0.0693,0.20804 1.92556,0.20804 1.85614,0 1.92553,-0.007 1.92553,-0.20804 z m -0.76012,-4.15592 c 0.0732,-0.25352 0.11304,-0.48104 0.0884,-0.50563 -0.0537,-0.0535 -1.9186,0.34758 -2.00158,0.43054 -0.0318,0.032 -0.0276,0.17921 0.01,0.32717 0.0665,0.2654 0.0796,0.26879 0.91895,0.23904 l 0.85135,-0.0302 z m 0.65603,-3.11109 v -0.70979 l -0.70255,-0.75606 -0.70256,-0.75603 -0.93675,0.41932 -0.93676,0.41932 -0.0297,1.04648 -0.0297,1.04649 h 1.66898 1.66897 z m 0.66394,-1.96271 c 0.23592,-0.21044 0.67618,-0.60635 0.97836,-0.87977 l 0.5494,-0.49716 -0.28919,-0.31676 -0.2892,-0.31678 -0.96278,0.84273 c -0.52952,0.46347 -0.96277,0.87849 -0.96277,0.92228 0,0.10015 0.41131,0.62804 0.48933,0.62804 0.0318,0 0.25092,-0.17224 0.48685,-0.38258 z"
         style="fill:#ffffff;fill-opacity:1;stroke-width:2.40238"
         id="path5" />
      <path
         style="fill:#ffffff;fill-opacity:1;stroke-width:2.41402"
         d="m 208.19112,234.4799 c -0.60263,-0.58825 -0.90889,-0.97217 -0.98019,-1.22893 -0.14065,-0.5065 -0.14065,-17.07887 0,-17.5854 0.0715,-0.25682 0.37776,-0.64058 0.98019,-1.2289 l 0.87653,-0.85551 h 6.08083 6.08084 l -0.0294,2.37938 -0.0294,2.37937 -4.57573,0.0294 -4.57574,0.0294 v 1.82921 1.82919 h 3.81745 3.8175 v 2.40552 2.40552 h -3.8175 -3.81745 v 1.82918 1.82914 l 4.57574,0.0294 4.57573,0.0294 0.0294,2.37933 0.0294,2.37938 h -6.08084 -6.08083 z m 15.85811,-10.0216 v -10.87714 l 2.32712,6.3e-4 2.32707,6.5e-4 2.29037,4.81039 c 1.2597,2.64573 2.31867,4.80865 2.35324,4.80646 0.0329,-0.002 1.08485,-2.15537 2.33391,-4.78488 l 2.27103,-4.78099 2.35694,-0.0294 2.35702,-0.0294 v 10.87909 10.8791 h -2.40557 -2.40552 v -5.15041 -5.15039 l -1.12064,2.33548 c -0.88912,1.85293 -1.17975,2.36604 -1.40675,2.48337 -0.21374,0.1107 -0.73584,0.14775 -2.06345,0.14775 -1.69247,0 -1.79038,-0.0123 -2.0506,-0.23528 -0.1638,-0.14068 -0.69018,-1.11622 -1.31281,-2.43168 l -1.03956,-2.19634 -3.9e-4,5.09864 -3.4e-4,5.09868 h -2.40552 -2.40555 z m 23.7938,10.78587 c -0.48611,-0.12669 -0.68586,-0.26466 -1.33339,-0.92385 l -0.60126,-0.61186 0.71163,-0.70612 0.71159,-0.70614 0.48053,0.47373 0.48054,0.47373 h 0.90652 c 0.82007,0 0.94116,-0.0261 1.27086,-0.2777 0.27346,-0.20853 0.35672,-0.34354 0.33276,-0.54047 -0.0294,-0.24442 -0.16349,-0.3025 -1.96637,-0.85117 -1.06419,-0.32372 -2.04221,-0.65713 -2.17342,-0.74074 -0.47099,-0.30022 -0.77503,-0.88548 -0.83259,-1.60274 -0.0887,-1.10716 0.009,-1.37299 0.79176,-2.18653 0.38396,-0.39802 0.82483,-0.78962 0.98016,-0.87026 0.40297,-0.20918 3.3256,-0.20723 3.72324,0.002 0.15533,0.082 0.553,0.42449 0.8837,0.76123 l 0.60127,0.6122 -0.73145,0.72582 -0.73143,0.72583 -0.50094,-0.49341 -0.50093,-0.49338 h -0.90357 c -0.81945,0 -0.93347,0.0261 -1.22527,0.27086 -0.21636,0.18209 -0.32177,0.36539 -0.32177,0.55959 0,0.28357 0.0329,0.29859 1.85643,0.84187 1.02103,0.30413 1.97408,0.61261 2.11792,0.68555 0.36826,0.18665 0.69504,0.56109 0.88395,1.01325 0.18569,0.44463 0.21376,1.49669 0.0515,1.93001 -0.13376,0.35672 -1.28408,1.55158 -1.71999,1.78654 -0.34927,0.18828 -2.67319,0.29009 -3.24222,0.14222 z m 5.36731,0.0372 c -0.10732,-0.10732 3.11782,-9.07203 3.31614,-9.21703 0.19873,-0.14514 1.3572,-0.19514 1.79651,-0.0777 0.2777,0.0747 0.3025,0.13699 2.11965,5.31986 0.74576,2.12741 1.31797,3.90595 1.27159,3.95235 -0.0463,0.0463 -0.52725,0.0704 -1.06855,0.0541 l -0.98418,-0.0294 -0.31394,-0.86386 -0.31393,-0.8639 -1.55498,0.0294 -1.55498,0.0294 -0.26106,0.73216 c -0.1436,0.40256 -0.30838,0.79088 -0.36663,0.86281 -0.10348,0.12884 -1.96546,0.19743 -2.08593,0.0773 z m 5.03916,-3.86991 c 0,-0.0294 -0.17263,-0.55378 -0.38358,-1.16467 l -0.38352,-1.11081 -0.39637,1.13861 c -0.21798,0.62622 -0.39841,1.15032 -0.4009,1.16474 -0.002,0.0163 0.34889,0.0261 0.78023,0.0261 0.43141,0 0.7844,-0.0261 0.7844,-0.0541 z m 4.46609,3.85764 c -0.0412,-0.041 -0.0735,-2.13635 -0.0735,-4.6578 v -4.58442 h 2.35839 c 1.83943,0 2.42055,0.0329 2.64083,0.14914 0.40667,0.21471 1.55885,1.41989 1.68863,1.76646 0.0607,0.16185 0.11023,0.81096 0.11023,1.44224 0,1.31752 -0.11777,1.65025 -0.82783,2.33734 -0.23496,0.22746 -0.42724,0.45862 -0.42724,0.51383 0,0.0552 0.353,0.74395 0.78445,1.53056 0.4314,0.78655 0.7844,1.46137 0.7844,1.49945 0,0.095 -2.11655,0.0852 -2.25593,-0.009 -0.0617,-0.0421 -0.41453,-0.62852 -0.78443,-1.3028 l -0.67253,-1.22599 -0.65044,-0.002 -0.65045,-0.002 -0.0294,1.28121 -0.0294,1.28116 -0.94639,0.0294 c -0.52047,0.0163 -0.97932,-0.002 -1.01972,-0.0437 z m 4.35204,-4.93369 c 0.25093,-0.26171 0.28128,-0.37282 0.28128,-1.03348 0,-0.72018 -0.009,-0.74749 -0.35919,-1.01398 -0.32599,-0.24898 -0.44553,-0.27378 -1.30731,-0.27378 h -0.94831 v 1.30734 1.30735 h 1.02633 c 0.9879,0 1.0368,-0.0123 1.30735,-0.29305 z m 6.44937,3.03879 -0.002,-1.96101 -1.55051,-2.66704 c -0.85283,-1.46681 -1.53148,-2.70223 -1.50808,-2.7454 0.0261,-0.0434 0.53071,-0.0783 1.12741,-0.0783 1.26485,0 1.04302,-0.18341 2.19117,1.81221 0.3914,0.68029 0.74975,1.19798 0.79626,1.15041 0.0466,-0.0473 0.45585,-0.72182 0.90961,-1.49838 l 0.82509,-1.41194 1.16926,-0.0294 c 0.64307,-0.0163 1.16925,-0.001 1.16925,0.0329 0,0.0329 -0.70599,1.28015 -1.56883,2.76727 l -1.56884,2.70394 v 1.94257 1.94255 h -0.99357 -0.99357 z m -25.15104,-9.38587 c -0.0575,-0.0195 -0.2418,-0.0653 -0.41,-0.10285 -0.37942,-0.0843 -1.81152,-1.44438 -2.00901,-1.90809 -0.10993,-0.25813 -0.14329,-1.01365 -0.14329,-3.23531 0,-3.38558 0.002,-3.39351 1.07431,-4.38633 0.90707,-0.83975 1.04106,-0.87949 2.96826,-0.87949 1.95059,0 2.15421,0.0683 3.11966,1.04383 l 0.62547,0.63207 -0.80691,0.80692 -0.80698,0.80695 -0.50193,-0.49443 -0.50193,-0.49436 h -1.15349 c -1.12719,0 -1.15983,0.009 -1.43448,0.29304 l -0.28128,0.29371 v 2.35316 2.35313 l 0.34477,0.33442 c 0.34267,0.33195 0.35216,0.33444 1.42236,0.33444 h 1.07752 l 0.35547,-0.35549 c 0.28782,-0.28781 0.3555,-0.43675 0.3555,-0.78061 v -0.42507 l -1.01971,-0.0294 -1.01976,-0.0294 -0.0294,-1.12431 -0.0294,-1.12429 h 2.14761 2.1476 v 1.88589 c 0,1.36389 -0.0414,1.97912 -0.14329,2.2225 -0.22289,0.52321 -1.61655,1.80928 -2.10878,1.94591 -0.3683,0.10179 -2.97062,0.15435 -3.23877,0.0649 z m 7.29062,-0.60621 -0.44012,-0.44844 v -4.67991 -4.67986 l 1.12433,0.0294 1.12434,0.0294 0.0294,3.9482 0.0294,3.94817 h 1.72447 1.72442 v 1.15047 1.15051 h -2.43602 -2.43609 z m 8.34527,0.33236 c -0.32825,-0.12915 -1.62969,-1.39897 -1.86416,-1.8187 -0.14683,-0.26334 -0.18079,-0.71224 -0.20984,-2.79369 -0.0451,-3.23695 -0.009,-3.4245 0.8872,-4.37228 0.98767,-1.04694 1.25271,-1.14875 2.99085,-1.14875 0.78341,0 1.55559,0.05 1.7159,0.11054 0.35919,0.13668 1.45084,1.14843 1.84002,1.70543 l 0.28782,0.41164 v 2.86459 c 0,3.30869 0.0163,3.23406 -1.01153,4.23097 -0.92319,0.89407 -1.02532,0.92733 -2.82686,0.91959 -0.85129,-0.003 -1.66552,-0.0529 -1.80934,-0.10962 z m 3.10646,-2.519 0.34476,-0.33443 v -2.1199 -2.11987 l -0.32436,-0.36954 -0.32438,-0.36951 h -0.95165 c -0.92866,0 -0.95988,0.009 -1.29647,0.33442 l -0.34477,0.33444 v 2.14469 2.14471 l 0.33444,0.34474 c 0.32948,0.33981 0.34806,0.34476 1.27624,0.34476 0.91776,0 0.95075,-0.009 1.28677,-0.33445 z m 5.52202,2.48553 c -0.17261,-0.078 -0.61881,-0.45306 -0.99165,-0.83376 l -0.67788,-0.69213 0.80704,-0.80712 0.80709,-0.80704 0.50192,0.49436 0.50193,0.49441 h 1.10023 1.10021 l 0.34392,-0.35507 c 0.56621,-0.58417 0.47129,-0.67479 -1.24498,-1.1884 -2.59458,-0.77649 -2.86589,-0.87254 -3.2164,-1.13847 -0.57479,-0.43614 -0.79928,-1.00089 -0.8048,-2.02455 -0.003,-0.78515 0.0294,-0.94583 0.2813,-1.37561 0.37198,-0.63289 1.4771,-1.62891 1.95429,-1.76147 0.20591,-0.0574 1.03327,-0.10317 1.83857,-0.1024 1.76634,0.002 2.00217,0.0869 2.95454,1.06018 l 0.65357,0.6681 -0.78361,0.77839 -0.78369,0.7784 -0.50108,-0.49348 -0.50101,-0.49352 h -1.10023 -1.10021 l -0.34308,0.35386 c -0.23136,0.23854 -0.33154,0.43312 -0.30805,0.59668 0.0329,0.21897 0.24083,0.30512 2.12675,0.87806 1.15044,0.34969 2.24581,0.7271 2.43403,0.8392 0.1883,0.11193 0.47067,0.38891 0.62755,0.61509 0.25061,0.36125 0.28944,0.5282 0.3211,1.37336 0.0434,1.16917 -0.0921,1.49172 -0.99502,2.36606 -0.93359,0.90415 -1.00712,0.92688 -2.98373,0.92211 -1.20115,-0.002 -1.79745,-0.0457 -2.01851,-0.14514 z"
         id="path6"
         sodipodi:nodetypes="csssccccccccccccccccccccccccccccssscccccccccscscscccccccscccccscsssssccscccccsssscssscccscssccccccsscccscssscccscscsssssscscccccccccssscccscccssssssccssccccccccssssscccccsccccsscsscccccccsscccccccccccccccccccsscscscsscccccccccsccccsscsscccccccssscsssscccccccssscssscss" />
    </g>
  </g>
</svg>
