<?xml version="1.0" encoding="UTF-8" standalone="no"?>
<!-- Created with Inkscape (http://www.inkscape.org/) -->

<svg
   width="139.30423mm"
   height="20.465693mm"
   viewBox="0 0 139.30423 20.465693"
   version="1.1"
   id="svg1208"
   inkscape:version="1.2.2 (1:1.2.2+202305151915+b0a8486541)"
   sodipodi:docname="Somesy.svg"
   xmlns:inkscape="http://www.inkscape.org/namespaces/inkscape"
   xmlns:sodipodi="http://sodipodi.sourceforge.net/DTD/sodipodi-0.dtd"
   xmlns="http://www.w3.org/2000/svg"
   xmlns:svg="http://www.w3.org/2000/svg">
  <sodipodi:namedview
     id="namedview1210"
     pagecolor="#ffffff"
     bordercolor="#666666"
     borderopacity="1.0"
     inkscape:pageshadow="2"
     inkscape:pageopacity="0.0"
     inkscape:pagecheckerboard="0"
     inkscape:document-units="mm"
     showgrid="false"
     showguides="true"
     inkscape:guide-bbox="true"
     inkscape:lockguides="false"
     inkscape:zoom="1.4142136"
     inkscape:cx="106.77312"
     inkscape:cy="-32.173358"
     inkscape:window-width="2500"
     inkscape:window-height="1376"
     inkscape:window-x="2620"
     inkscape:window-y="27"
     inkscape:window-maximized="1"
     inkscape:current-layer="g941"
     inkscape:showpageshadow="2"
     inkscape:deskcolor="#d1d1d1">
    <sodipodi:guide
       position="4.0124165,-1.9261637"
       orientation="1,0"
       id="guide1673"
       inkscape:locked="false" />
    <sodipodi:guide
       position="21.070627,-0.046806446"
       orientation="0,-1"
       id="guide2630"
       inkscape:locked="false" />
    <sodipodi:guide
       position="15.758197,1.5484414"
       orientation="1,0"
       id="guide2634"
       inkscape:locked="false" />
    <sodipodi:guide
       position="76.663024,50.777023"
       orientation="1,0"
       id="guide2718"
       inkscape:locked="false" />
    <sodipodi:guide
       position="75.455863,61.889524"
       orientation="0,-1"
       id="guide2720"
       inkscape:locked="false" />
  </sodipodi:namedview>
  <defs
     id="defs1205">
    <inkscape:perspective
       sodipodi:type="inkscape:persp3d"
       inkscape:vp_x="0 : -128.03432 : 1"
       inkscape:vp_y="0 : 1000 : 0"
       inkscape:vp_z="210.00002 : -128.03432 : 1"
       inkscape:persp3d-origin="105.00001 : -177.53432 : 1"
       id="perspective137310" />
  </defs>
  <g
     inkscape:label="Layer 1"
     inkscape:groupmode="layer"
     id="layer1"
     transform="translate(-31.531672,-206.72806)">
    <text
       xml:space="preserve"
       style="font-style:normal;font-variant:normal;font-weight:normal;font-stretch:normal;font-size:14.1025px;line-height:1.25;font-family:Hermann;-inkscape-font-specification:'Hermann, Normal';font-variant-ligatures:normal;font-variant-caps:normal;font-variant-numeric:normal;font-variant-east-asian:normal;fill:#14c8ff;fill-opacity:1;stroke:none;stroke-width:0.249064"
       x="77.227486"
       y="224.54897"
       id="text52559-6-0-1-7-0-1-9-5-3-0-2-1-8-4"
       inkscape:export-filename="Somesy_Logo_Text.png"
       inkscape:export-xdpi="263.92001"
       inkscape:export-ydpi="263.92001"><tspan
         sodipodi:role="line"
         id="tspan52557-2-8-9-7-9-9-7-4-9-7-7-9-0-8"
         style="font-style:normal;font-variant:normal;font-weight:normal;font-stretch:normal;font-size:14.1111px;font-family:Hermann;-inkscape-font-specification:'Hermann, Normal';font-variant-ligatures:normal;font-variant-caps:normal;font-variant-numeric:normal;font-variant-east-asian:normal;fill:#14c8ff;fill-opacity:1;stroke-width:0.249064"
         x="77.227486"
         y="224.54897">Me</tspan></text>
    <text
       xml:space="preserve"
       style="font-style:normal;font-variant:normal;font-weight:normal;font-stretch:normal;font-size:14.1025px;line-height:1.25;font-family:Hermann;-inkscape-font-specification:'Hermann, Normal';font-variant-ligatures:normal;font-variant-caps:normal;font-variant-numeric:normal;font-variant-east-asian:normal;fill:#002864;fill-opacity:1;stroke:none;stroke-width:0.249064"
       x="58.213379"
       y="224.54897"
       id="text52559-6-0-1-7-0-1-9-5-9-7-6-4-5-2-0"
       inkscape:export-filename="/home/v.hofmann/WORKING/Logos/DirSchema_Logo_Text.png"
       inkscape:export-xdpi="263.92001"
       inkscape:export-ydpi="263.92001"><tspan
         sodipodi:role="line"
         id="tspan52557-2-8-9-7-9-9-7-4-8-2-3-0-7-1-4"
         style="font-style:normal;font-variant:normal;font-weight:normal;font-stretch:normal;font-size:14.1111px;font-family:Hermann;-inkscape-font-specification:'Hermann, Normal';font-variant-ligatures:normal;font-variant-caps:normal;font-variant-numeric:normal;font-variant-east-asian:normal;fill:#002864;fill-opacity:1;stroke-width:0.249064"
         x="58.213379"
         y="224.54897">SO</tspan></text>
    <text
       xml:space="preserve"
       style="font-style:normal;font-weight:normal;font-size:10.5833px;line-height:1.25;font-family:sans-serif;fill:#000000;fill-opacity:1;stroke:none;stroke-width:0.264583"
       x="-372.44165"
       y="388.89365"
       id="text212478"><tspan
         sodipodi:role="line"
         id="tspan212476"
         style="stroke-width:0.264583"
         x="-372.44165"
         y="388.89365" /></text>
    <text
       xml:space="preserve"
       style="font-style:normal;font-variant:normal;font-weight:normal;font-stretch:normal;font-size:14.1025px;line-height:1.25;font-family:Hermann;-inkscape-font-specification:'Hermann, Normal';font-variant-ligatures:normal;font-variant-caps:normal;font-variant-numeric:normal;font-variant-east-asian:normal;fill:#002864;fill-opacity:1;stroke:none;stroke-width:0.249064"
       x="95.255081"
       y="224.54897"
       id="text473"
       inkscape:export-filename="/home/v.hofmann/WORKING/Logos/DirSchema_Logo_Text.png"
       inkscape:export-xdpi="263.92001"
       inkscape:export-ydpi="263.92001"><tspan
         sodipodi:role="line"
         id="tspan471"
         style="font-style:normal;font-variant:normal;font-weight:normal;font-stretch:normal;font-size:14.1111px;font-family:Hermann;-inkscape-font-specification:'Hermann, Normal';font-variant-ligatures:normal;font-variant-caps:normal;font-variant-numeric:normal;font-variant-east-asian:normal;fill:#002864;fill-opacity:1;stroke-width:0.249064"
         x="95.255081"
         y="224.54897">Sy</tspan></text>
    <g
       id="g941"
       style="fill:none;stroke:#ffc8ff;stroke-width:1;stroke-dasharray:none;stroke-opacity:1"
       transform="translate(-54.387589,0.16009125)">
      <g
         id="g2943"
         transform="matrix(1.2440006,0,0,1.2440006,8.861902,0.66943646)"
         inkscape:export-filename="Somesy_Logo.png"
         inkscape:export-xdpi="263.92001"
         inkscape:export-ydpi="263.92001">
        <path
           id="path2935"
           style="fill:#002864;fill-opacity:1;fill-rule:evenodd;stroke:none;stroke-width:1;stroke-linecap:round;stroke-linejoin:round;stroke-miterlimit:2;stroke-dasharray:none;stroke-opacity:1;paint-order:markers stroke fill"
           d="m 162.5612,168.24266 a 6.6671581,6.6671581 0 0 0 -3.19463,5.05654 6.6671581,6.6671581 0 0 0 3.45612,0.96997 6.6671581,6.6671581 0 0 0 2.95227,-0.69144 6.6671581,6.6671581 0 0 0 -3.21376,-5.33507 z" />
        <path
           id="path2937"
           style="fill:#14c8ff;fill-opacity:1;fill-rule:evenodd;stroke:none;stroke-width:1;stroke-linecap:round;stroke-linejoin:round;stroke-miterlimit:2;stroke-dasharray:none;stroke-opacity:1;paint-order:markers stroke fill"
           d="m 159.35041,174.68736 c 10e-4,2.33662 1.22562,4.50207 3.22719,5.70766 2.00178,-1.20547 3.21218,-3.37565 3.21353,-5.71237 -2e-4,-0.12307 -0.004,-0.2461 -0.0109,-0.36897 -0.91506,0.45076 -1.92136,0.68554 -2.94142,0.68627 -1.21904,-0.001 -3.45612,-0.96997 -3.45612,-0.96997 0,0 -0.0323,0.20151 -0.0323,0.65738 z"
           sodipodi:nodetypes="ccccccc" />
        <path
           id="path2939"
           style="fill:#14c8ff;fill-opacity:1;fill-rule:evenodd;stroke:none;stroke-width:1;stroke-linecap:round;stroke-linejoin:round;stroke-miterlimit:2;stroke-dasharray:none;stroke-opacity:1;paint-order:markers stroke fill"
           d="m 158.40742,166.92935 a 6.6671581,6.6671581 0 0 0 -2.94918,0.68988 6.6671581,6.6671581 0 0 0 3.19723,5.3237 6.6671581,6.6671581 0 0 1 3.19257,-5.05447 6.6671581,6.6671581 0 0 0 -3.44062,-0.95911 z m 3.5171,1.00562 a 6.6671581,6.6671581 0 0 1 0.19637,0.12661 6.6671581,6.6671581 0 0 0 -0.19637,-0.12661 z m 0.32194,0.21291 a 6.6671581,6.6671581 0 0 1 0.19379,0.14211 6.6671581,6.6671581 0 0 0 -0.19379,-0.14211 z m 0.30334,0.22582 a 6.6671581,6.6671581 0 0 1 0.19792,0.16485 6.6671581,6.6671581 0 0 0 -0.19792,-0.16485 z m 0.29559,0.24805 a 6.6671581,6.6671581 0 0 1 0.27285,0.25683 6.6671581,6.6671581 0 0 0 -0.27285,-0.25683 z m 0.32039,0.30696 a 6.6671581,6.6671581 0 0 1 0.20826,0.22117 6.6671581,6.6671581 0 0 0 -0.20826,-0.22117 z m 0.30903,0.33899 a 6.6671581,6.6671581 0 0 1 0.14573,0.17519 6.6671581,6.6671581 0 0 0 -0.14573,-0.17519 z m 0.24029,0.29766 a 6.6671581,6.6671581 0 0 1 0.13385,0.1819 6.6671581,6.6671581 0 0 0 -0.13385,-0.1819 z m 0.22428,0.31264 a 6.6671581,6.6671581 0 0 1 0.12971,0.20154 6.6671581,6.6671581 0 0 0 -0.12971,-0.20154 z m 0.2005,0.31678 a 6.6671581,6.6671581 0 0 1 0.12558,0.22324 6.6671581,6.6671581 0 0 0 -0.12558,-0.22324 z m 0.18862,0.339 a 6.6671581,6.6671581 0 0 1 0.16175,0.33331 6.6671581,6.6671581 0 0 0 -0.16175,-0.33331 z m 0.18346,0.3855 a 6.6671581,6.6671581 0 0 1 0.12402,0.30024 6.6671581,6.6671581 0 0 0 -0.12402,-0.30024 z m 0.17311,0.43822 a 6.6671581,6.6671581 0 0 1 0.0724,0.21239 6.6671581,6.6671581 0 0 0 -0.0724,-0.21239 z m 0.12144,0.37465 a 6.6671581,6.6671581 0 0 1 0.0574,0.20774 6.6671581,6.6671581 0 0 0 -0.0574,-0.20774 z m 0.0977,0.37414 a 6.6671581,6.6671581 0 0 1 0.0429,0.20516 6.6671581,6.6671581 0 0 0 -0.0429,-0.20516 z m 0.0734,0.36484 a 6.6671581,6.6671581 0 0 1 0.0357,0.24029 6.6671581,6.6671581 0 0 0 -0.0357,-0.24029 z m 0.0543,0.37723 a 6.6671581,6.6671581 0 0 1 0.032,0.37362 6.6671581,6.6671581 0 0 0 -0.032,-0.37362 z m 0.032,0.37362 a 6.6671581,6.6671581 0 0 1 -0.33435,0.15348 6.6671581,6.6671581 0 0 0 0.33435,-0.15348 z m -6.39599,-0.27181 a 6.6671581,6.6671581 0 0 0 0.33899,0.19223 6.6671581,6.6671581 0 0 1 -0.33899,-0.19223 z m 0.33899,0.19223 a 6.6671581,6.6671581 0 0 0 1.10795,0.46251 6.6671581,6.6671581 0 0 1 -1.10795,-0.46251 z m 5.6317,0.26975 a 6.6671581,6.6671581 0 0 1 -0.23978,0.0941 6.6671581,6.6671581 0 0 0 0.23978,-0.0941 z m -0.37362,0.14056 a 6.6671581,6.6671581 0 0 1 -0.21446,0.0698 6.6671581,6.6671581 0 0 0 0.21446,-0.0698 z m -4.11189,0.0636 a 6.6671581,6.6671581 0 0 0 0.32556,0.0915 6.6671581,6.6671581 0 0 1 -0.32556,-0.0915 z m 3.75584,0.047 a 6.6671581,6.6671581 0 0 1 -0.20825,0.0553 6.6671581,6.6671581 0 0 0 0.20825,-0.0553 z m -3.3383,0.0661 a 6.6671581,6.6671581 0 0 0 0.28371,0.0615 6.6671581,6.6671581 0 0 1 -0.28371,-0.0615 z m 2.98483,0.0233 a 6.6671581,6.6671581 0 0 1 -0.21497,0.0434 6.6671581,6.6671581 0 0 0 0.21497,-0.0434 z m -2.59829,0.0574 a 6.6671581,6.6671581 0 0 0 0.27544,0.0424 6.6671581,6.6671581 0 0 1 -0.27544,-0.0424 z m 2.23966,0.0124 a 6.6671581,6.6671581 0 0 1 -0.22324,0.032 6.6671581,6.6671581 0 0 0 0.22324,-0.032 z m -1.84898,0.0455 a 6.6671581,6.6671581 0 0 0 0.2651,0.0243 6.6671581,6.6671581 0 0 1 -0.2651,-0.0243 z m 1.4888,0.004 a 6.6671581,6.6671581 0 0 1 -0.26304,0.0233 6.6671581,6.6671581 0 0 0 0.26304,-0.0233 z m -1.10175,0.03 a 6.6671581,6.6671581 0 0 0 0.37672,0.0114 6.6671581,6.6671581 0 0 1 -0.37672,-0.0114 z m 0.37672,0.0114 a 6.6671581,6.6671581 0 0 0 0.36742,-0.0109 6.6671581,6.6671581 0 0 1 -0.36742,0.0109 z" />
        <path
           id="path2941"
           style="fill:#14c8ff;fill-opacity:1;fill-rule:evenodd;stroke:none;stroke-width:1;stroke-linecap:round;stroke-linejoin:round;stroke-miterlimit:2;stroke-dasharray:none;stroke-opacity:1;paint-order:markers stroke fill"
           d="m 166.73423,166.92935 a 6.6671581,6.6671581 0 0 0 -3.43597,0.95808 6.6671581,6.6671581 0 0 1 3.21324,5.33249 6.6671581,6.6671581 0 0 0 3.67885,-5.32423 6.6671581,6.6671581 0 0 0 -3.45612,-0.96634 z m -3.46129,0.97358 a 6.6671581,6.6671581 0 0 0 -0.29301,0.18862 6.6671581,6.6671581 0 0 1 0.29301,-0.18862 z m -0.35554,0.23203 a 6.6671581,6.6671581 0 0 0 -0.26096,0.19275 6.6671581,6.6671581 0 0 1 0.26096,-0.19275 z m -0.32194,0.23978 a 6.6671581,6.6671581 0 0 0 -0.2682,0.22427 6.6671581,6.6671581 0 0 1 0.2682,-0.22427 z m -0.30179,0.25373 a 6.6671581,6.6671581 0 0 0 -0.56482,0.56999 6.6671581,6.6671581 0 0 1 0.56482,-0.56999 z m -0.601,0.61288 a 6.6671581,6.6671581 0 0 0 -0.21342,0.25993 6.6671581,6.6671581 0 0 1 0.21342,-0.25993 z m -0.26871,0.3328 a 6.6671581,6.6671581 0 0 0 -0.17984,0.24908 6.6671581,6.6671581 0 0 1 0.17984,-0.24908 z m -0.231,0.32452 a 6.6671581,6.6671581 0 0 0 -0.15968,0.25218 6.6671581,6.6671581 0 0 1 0.15968,-0.25218 z m -0.21601,0.3452 a 6.6671581,6.6671581 0 0 0 -0.17415,0.31781 6.6671581,6.6671581 0 0 1 0.17415,-0.31781 z m -0.18293,0.33383 a 6.6671581,6.6671581 0 0 0 -0.17002,0.36122 6.6671581,6.6671581 0 0 1 0.17002,-0.36122 z m -0.19689,0.42685 a 6.6671581,6.6671581 0 0 0 -0.11834,0.29972 6.6671581,6.6671581 0 0 1 0.11834,-0.29972 z m -0.15244,0.39791 a 6.6671581,6.6671581 0 0 0 -0.0873,0.26613 6.6671581,6.6671581 0 0 1 0.0873,-0.26613 z m -0.12403,0.39274 a 6.6671581,6.6671581 0 0 0 -0.0672,0.25941 6.6671581,6.6671581 0 0 1 0.0672,-0.25941 z m -0.0946,0.37775 a 6.6671581,6.6671581 0 0 0 -0.0543,0.28009 6.6671581,6.6671581 0 0 1 0.0543,-0.28009 z m -0.0729,0.38603 a 6.6671581,6.6671581 0 0 0 -0.0501,0.38447 6.6671581,6.6671581 0 0 1 0.0501,-0.38447 z m -0.0501,0.38447 a 6.6671581,6.6671581 0 0 0 0.32246,0.18293 6.6671581,6.6671581 0 0 1 -0.32246,-0.18293 z m 0.42529,0.23513 a 6.6671581,6.6671581 0 0 0 0.23513,0.11575 6.6671581,6.6671581 0 0 1 -0.23513,-0.11575 z m 5.87665,0.0925 a 6.6671581,6.6671581 0 0 1 -0.18294,0.0837 6.6671581,6.6671581 0 0 0 0.18294,-0.0837 z m -5.5175,0.0785 a 6.6671581,6.6671581 0 0 0 0.21549,0.0899 6.6671581,6.6671581 0 0 1 -0.21549,-0.0899 z m 5.18728,0.0667 a 6.6671581,6.6671581 0 0 1 -0.20205,0.0796 6.6671581,6.6671581 0 0 0 0.20205,-0.0796 z m -4.83536,0.077 a 6.6671581,6.6671581 0 0 0 0.25425,0.0879 6.6671581,6.6671581 0 0 1 -0.25425,-0.0879 z m 4.48293,0.0558 a 6.6671581,6.6671581 0 0 1 -0.18707,0.061 6.6671581,6.6671581 0 0 0 0.18707,-0.061 z m -4.13515,0.0636 a 6.6671581,6.6671581 0 0 0 0.36019,0.10077 6.6671581,6.6671581 0 0 1 -0.36019,-0.10077 z m 3.78065,0.0475 a 6.6671581,6.6671581 0 0 1 -0.19637,0.0522 6.6671581,6.6671581 0 0 0 0.19637,-0.0522 z m -3.35173,0.0692 a 6.6671581,6.6671581 0 0 0 0.29714,0.0641 6.6671581,6.6671581 0 0 1 -0.29714,-0.0641 z m 3.00498,0.0191 a 6.6671581,6.6671581 0 0 1 -0.21756,0.0444 6.6671581,6.6671581 0 0 0 0.21756,-0.0444 z m -2.59312,0.0651 a 6.6671581,6.6671581 0 0 0 0.2527,0.0388 6.6671581,6.6671581 0 0 1 -0.2527,-0.0388 z m 2.22622,0.007 a 6.6671581,6.6671581 0 0 1 -0.22428,0.0326 6.6671581,6.6671581 0 0 0 0.22428,-0.0326 z m -1.834,0.0491 a 6.6671581,6.6671581 0 0 0 0.24133,0.0222 6.6671581,6.6671581 0 0 1 -0.24133,-0.0222 z m 1.4764,0.001 a 6.6671581,6.6671581 0 0 1 -0.29094,0.0253 6.6671581,6.6671581 0 0 0 0.29094,-0.0253 z m -1.10898,0.031 a 6.6671581,6.6671581 0 0 0 0.37156,0.0114 6.6671581,6.6671581 0 0 1 -0.37156,-0.0114 z m 0.37156,0.0114 a 6.6671581,6.6671581 0 0 0 0.3731,-0.0109 6.6671581,6.6671581 0 0 1 -0.3731,0.0109 z" />
      </g>
      <g
         id="g3737"
         transform="matrix(1.2440006,0,0,1.2440006,-97.725658,0.61846654)">
        <path
           id="path3729"
           style="fill:#002864;fill-opacity:1;fill-rule:evenodd;stroke:none;stroke-width:1;stroke-linecap:round;stroke-linejoin:round;stroke-miterlimit:2;stroke-dasharray:none;stroke-opacity:1;paint-order:markers stroke fill"
           d="m 162.5612,168.24266 a 6.6671581,6.6671581 0 0 0 -3.19463,5.05654 6.6671581,6.6671581 0 0 0 3.45612,0.96997 6.6671581,6.6671581 0 0 0 2.95227,-0.69144 6.6671581,6.6671581 0 0 0 -3.21376,-5.33507 z" />
        <path
           id="path3731"
           style="fill:#14c8ff;fill-opacity:1;fill-rule:evenodd;stroke:none;stroke-width:1;stroke-linecap:round;stroke-linejoin:round;stroke-miterlimit:2;stroke-dasharray:none;stroke-opacity:1;paint-order:markers stroke fill"
           d="m 159.35041,174.68736 c 10e-4,2.33662 1.22562,4.50207 3.22719,5.70766 2.00178,-1.20547 3.21218,-3.37565 3.21353,-5.71237 -2e-4,-0.12307 -0.004,-0.2461 -0.0109,-0.36897 -0.91506,0.45076 -1.92136,0.68554 -2.94142,0.68627 -1.21904,-0.001 -3.45612,-0.96997 -3.45612,-0.96997 0,0 -0.0323,0.20151 -0.0323,0.65738 z"
           sodipodi:nodetypes="ccccccc" />
        <path
           id="path3733"
           style="fill:#14c8ff;fill-opacity:1;fill-rule:evenodd;stroke:none;stroke-width:1;stroke-linecap:round;stroke-linejoin:round;stroke-miterlimit:2;stroke-dasharray:none;stroke-opacity:1;paint-order:markers stroke fill"
           d="m 158.40742,166.92935 a 6.6671581,6.6671581 0 0 0 -2.94918,0.68988 6.6671581,6.6671581 0 0 0 3.19723,5.3237 6.6671581,6.6671581 0 0 1 3.19257,-5.05447 6.6671581,6.6671581 0 0 0 -3.44062,-0.95911 z m 3.5171,1.00562 a 6.6671581,6.6671581 0 0 1 0.19637,0.12661 6.6671581,6.6671581 0 0 0 -0.19637,-0.12661 z m 0.32194,0.21291 a 6.6671581,6.6671581 0 0 1 0.19379,0.14211 6.6671581,6.6671581 0 0 0 -0.19379,-0.14211 z m 0.30334,0.22582 a 6.6671581,6.6671581 0 0 1 0.19792,0.16485 6.6671581,6.6671581 0 0 0 -0.19792,-0.16485 z m 0.29559,0.24805 a 6.6671581,6.6671581 0 0 1 0.27285,0.25683 6.6671581,6.6671581 0 0 0 -0.27285,-0.25683 z m 0.32039,0.30696 a 6.6671581,6.6671581 0 0 1 0.20826,0.22117 6.6671581,6.6671581 0 0 0 -0.20826,-0.22117 z m 0.30903,0.33899 a 6.6671581,6.6671581 0 0 1 0.14573,0.17519 6.6671581,6.6671581 0 0 0 -0.14573,-0.17519 z m 0.24029,0.29766 a 6.6671581,6.6671581 0 0 1 0.13385,0.1819 6.6671581,6.6671581 0 0 0 -0.13385,-0.1819 z m 0.22428,0.31264 a 6.6671581,6.6671581 0 0 1 0.12971,0.20154 6.6671581,6.6671581 0 0 0 -0.12971,-0.20154 z m 0.2005,0.31678 a 6.6671581,6.6671581 0 0 1 0.12558,0.22324 6.6671581,6.6671581 0 0 0 -0.12558,-0.22324 z m 0.18862,0.339 a 6.6671581,6.6671581 0 0 1 0.16175,0.33331 6.6671581,6.6671581 0 0 0 -0.16175,-0.33331 z m 0.18346,0.3855 a 6.6671581,6.6671581 0 0 1 0.12402,0.30024 6.6671581,6.6671581 0 0 0 -0.12402,-0.30024 z m 0.17311,0.43822 a 6.6671581,6.6671581 0 0 1 0.0724,0.21239 6.6671581,6.6671581 0 0 0 -0.0724,-0.21239 z m 0.12144,0.37465 a 6.6671581,6.6671581 0 0 1 0.0574,0.20774 6.6671581,6.6671581 0 0 0 -0.0574,-0.20774 z m 0.0977,0.37414 a 6.6671581,6.6671581 0 0 1 0.0429,0.20516 6.6671581,6.6671581 0 0 0 -0.0429,-0.20516 z m 0.0734,0.36484 a 6.6671581,6.6671581 0 0 1 0.0357,0.24029 6.6671581,6.6671581 0 0 0 -0.0357,-0.24029 z m 0.0543,0.37723 a 6.6671581,6.6671581 0 0 1 0.032,0.37362 6.6671581,6.6671581 0 0 0 -0.032,-0.37362 z m 0.032,0.37362 a 6.6671581,6.6671581 0 0 1 -0.33435,0.15348 6.6671581,6.6671581 0 0 0 0.33435,-0.15348 z m -6.39599,-0.27181 a 6.6671581,6.6671581 0 0 0 0.33899,0.19223 6.6671581,6.6671581 0 0 1 -0.33899,-0.19223 z m 0.33899,0.19223 a 6.6671581,6.6671581 0 0 0 1.10795,0.46251 6.6671581,6.6671581 0 0 1 -1.10795,-0.46251 z m 5.6317,0.26975 a 6.6671581,6.6671581 0 0 1 -0.23978,0.0941 6.6671581,6.6671581 0 0 0 0.23978,-0.0941 z m -0.37362,0.14056 a 6.6671581,6.6671581 0 0 1 -0.21446,0.0698 6.6671581,6.6671581 0 0 0 0.21446,-0.0698 z m -4.11189,0.0636 a 6.6671581,6.6671581 0 0 0 0.32556,0.0915 6.6671581,6.6671581 0 0 1 -0.32556,-0.0915 z m 3.75584,0.047 a 6.6671581,6.6671581 0 0 1 -0.20825,0.0553 6.6671581,6.6671581 0 0 0 0.20825,-0.0553 z m -3.3383,0.0661 a 6.6671581,6.6671581 0 0 0 0.28371,0.0615 6.6671581,6.6671581 0 0 1 -0.28371,-0.0615 z m 2.98483,0.0233 a 6.6671581,6.6671581 0 0 1 -0.21497,0.0434 6.6671581,6.6671581 0 0 0 0.21497,-0.0434 z m -2.59829,0.0574 a 6.6671581,6.6671581 0 0 0 0.27544,0.0424 6.6671581,6.6671581 0 0 1 -0.27544,-0.0424 z m 2.23966,0.0124 a 6.6671581,6.6671581 0 0 1 -0.22324,0.032 6.6671581,6.6671581 0 0 0 0.22324,-0.032 z m -1.84898,0.0455 a 6.6671581,6.6671581 0 0 0 0.2651,0.0243 6.6671581,6.6671581 0 0 1 -0.2651,-0.0243 z m 1.4888,0.004 a 6.6671581,6.6671581 0 0 1 -0.26304,0.0233 6.6671581,6.6671581 0 0 0 0.26304,-0.0233 z m -1.10175,0.03 a 6.6671581,6.6671581 0 0 0 0.37672,0.0114 6.6671581,6.6671581 0 0 1 -0.37672,-0.0114 z m 0.37672,0.0114 a 6.6671581,6.6671581 0 0 0 0.36742,-0.0109 6.6671581,6.6671581 0 0 1 -0.36742,0.0109 z" />
        <path
           id="path3735"
           style="fill:#14c8ff;fill-opacity:1;fill-rule:evenodd;stroke:none;stroke-width:1;stroke-linecap:round;stroke-linejoin:round;stroke-miterlimit:2;stroke-dasharray:none;stroke-opacity:1;paint-order:markers stroke fill"
           d="m 166.73423,166.92935 a 6.6671581,6.6671581 0 0 0 -3.43597,0.95808 6.6671581,6.6671581 0 0 1 3.21324,5.33249 6.6671581,6.6671581 0 0 0 3.67885,-5.32423 6.6671581,6.6671581 0 0 0 -3.45612,-0.96634 z m -3.46129,0.97358 a 6.6671581,6.6671581 0 0 0 -0.29301,0.18862 6.6671581,6.6671581 0 0 1 0.29301,-0.18862 z m -0.35554,0.23203 a 6.6671581,6.6671581 0 0 0 -0.26096,0.19275 6.6671581,6.6671581 0 0 1 0.26096,-0.19275 z m -0.32194,0.23978 a 6.6671581,6.6671581 0 0 0 -0.2682,0.22427 6.6671581,6.6671581 0 0 1 0.2682,-0.22427 z m -0.30179,0.25373 a 6.6671581,6.6671581 0 0 0 -0.56482,0.56999 6.6671581,6.6671581 0 0 1 0.56482,-0.56999 z m -0.601,0.61288 a 6.6671581,6.6671581 0 0 0 -0.21342,0.25993 6.6671581,6.6671581 0 0 1 0.21342,-0.25993 z m -0.26871,0.3328 a 6.6671581,6.6671581 0 0 0 -0.17984,0.24908 6.6671581,6.6671581 0 0 1 0.17984,-0.24908 z m -0.231,0.32452 a 6.6671581,6.6671581 0 0 0 -0.15968,0.25218 6.6671581,6.6671581 0 0 1 0.15968,-0.25218 z m -0.21601,0.3452 a 6.6671581,6.6671581 0 0 0 -0.17415,0.31781 6.6671581,6.6671581 0 0 1 0.17415,-0.31781 z m -0.18293,0.33383 a 6.6671581,6.6671581 0 0 0 -0.17002,0.36122 6.6671581,6.6671581 0 0 1 0.17002,-0.36122 z m -0.19689,0.42685 a 6.6671581,6.6671581 0 0 0 -0.11834,0.29972 6.6671581,6.6671581 0 0 1 0.11834,-0.29972 z m -0.15244,0.39791 a 6.6671581,6.6671581 0 0 0 -0.0873,0.26613 6.6671581,6.6671581 0 0 1 0.0873,-0.26613 z m -0.12403,0.39274 a 6.6671581,6.6671581 0 0 0 -0.0672,0.25941 6.6671581,6.6671581 0 0 1 0.0672,-0.25941 z m -0.0946,0.37775 a 6.6671581,6.6671581 0 0 0 -0.0543,0.28009 6.6671581,6.6671581 0 0 1 0.0543,-0.28009 z m -0.0729,0.38603 a 6.6671581,6.6671581 0 0 0 -0.0501,0.38447 6.6671581,6.6671581 0 0 1 0.0501,-0.38447 z m -0.0501,0.38447 a 6.6671581,6.6671581 0 0 0 0.32246,0.18293 6.6671581,6.6671581 0 0 1 -0.32246,-0.18293 z m 0.42529,0.23513 a 6.6671581,6.6671581 0 0 0 0.23513,0.11575 6.6671581,6.6671581 0 0 1 -0.23513,-0.11575 z m 5.87665,0.0925 a 6.6671581,6.6671581 0 0 1 -0.18294,0.0837 6.6671581,6.6671581 0 0 0 0.18294,-0.0837 z m -5.5175,0.0785 a 6.6671581,6.6671581 0 0 0 0.21549,0.0899 6.6671581,6.6671581 0 0 1 -0.21549,-0.0899 z m 5.18728,0.0667 a 6.6671581,6.6671581 0 0 1 -0.20205,0.0796 6.6671581,6.6671581 0 0 0 0.20205,-0.0796 z m -4.83536,0.077 a 6.6671581,6.6671581 0 0 0 0.25425,0.0879 6.6671581,6.6671581 0 0 1 -0.25425,-0.0879 z m 4.48293,0.0558 a 6.6671581,6.6671581 0 0 1 -0.18707,0.061 6.6671581,6.6671581 0 0 0 0.18707,-0.061 z m -4.13515,0.0636 a 6.6671581,6.6671581 0 0 0 0.36019,0.10077 6.6671581,6.6671581 0 0 1 -0.36019,-0.10077 z m 3.78065,0.0475 a 6.6671581,6.6671581 0 0 1 -0.19637,0.0522 6.6671581,6.6671581 0 0 0 0.19637,-0.0522 z m -3.35173,0.0692 a 6.6671581,6.6671581 0 0 0 0.29714,0.0641 6.6671581,6.6671581 0 0 1 -0.29714,-0.0641 z m 3.00498,0.0191 a 6.6671581,6.6671581 0 0 1 -0.21756,0.0444 6.6671581,6.6671581 0 0 0 0.21756,-0.0444 z m -2.59312,0.0651 a 6.6671581,6.6671581 0 0 0 0.2527,0.0388 6.6671581,6.6671581 0 0 1 -0.2527,-0.0388 z m 2.22622,0.007 a 6.6671581,6.6671581 0 0 1 -0.22428,0.0326 6.6671581,6.6671581 0 0 0 0.22428,-0.0326 z m -1.834,0.0491 a 6.6671581,6.6671581 0 0 0 0.24133,0.0222 6.6671581,6.6671581 0 0 1 -0.24133,-0.0222 z m 1.4764,0.001 a 6.6671581,6.6671581 0 0 1 -0.29094,0.0253 6.6671581,6.6671581 0 0 0 0.29094,-0.0253 z m -1.10898,0.031 a 6.6671581,6.6671581 0 0 0 0.37156,0.0114 6.6671581,6.6671581 0 0 1 -0.37156,-0.0114 z m 0.37156,0.0114 a 6.6671581,6.6671581 0 0 0 0.3731,-0.0109 6.6671581,6.6671581 0 0 1 -0.3731,0.0109 z" />
      </g>
    </g>
    <g
       id="g1653"
       style="stroke:#ffc8ff;stroke-opacity:1;fill:none;stroke-width:1;stroke-dasharray:none" />
    <g
       id="g1662"
       style="fill:none;stroke:#ffc8ff;stroke-width:1;stroke-dasharray:none;stroke-opacity:1"
       transform="translate(-41.388221,0.86197007)" />
  </g>
</svg>
